<svg width="114" height="48" viewBox="0 0 114 48" fill="none" xmlns="http://www.w3.org/2000/svg">
<g clip-path="url(#clip0_917_104541)">
<rect x="0.5" y="0.5" width="113" height="47" rx="2.5" fill="white" stroke="#C4C4C4"/>
<g clip-path="url(#clip1_917_104541)">
<path fill-rule="evenodd" clip-rule="evenodd" d="M90.5114 19.1128C90.4773 18.8609 90.2613 18.6667 90 18.6667C89.715 18.6667 89.4839 18.8978 89.4839 19.1829V23.4837H85.1828L85.1128 23.4884C84.8609 23.5226 84.6667 23.7385 84.6667 23.9998C84.6667 24.2849 84.8978 24.516 85.1828 24.516H89.4839V28.8173L89.4886 28.8873C89.5228 29.1392 89.7387 29.3334 90 29.3334C90.2851 29.3334 90.5161 29.1023 90.5161 28.8173V24.516H94.8172L94.8873 24.5112C95.1392 24.4771 95.3334 24.2611 95.3334 23.9998C95.3334 23.7148 95.1023 23.4837 94.8172 23.4837H90.5161V19.1829L90.5114 19.1128Z" fill="#212121"/>
<path d="M58.333 29H56.7266V22.5469C56.7266 21.7767 56.7448 21.166 56.7812 20.7148C56.6764 20.8242 56.5465 20.945 56.3916 21.0771C56.2412 21.2093 55.7308 21.6286 54.8604 22.335L54.0537 21.3164L56.9932 19.0059H58.333V29Z" fill="#212121"/>
<path fill-rule="evenodd" clip-rule="evenodd" d="M28.6666 23.5C28.9428 23.5 29.1666 23.7239 29.1666 24C29.1666 24.2531 28.9785 24.4623 28.7345 24.4954L28.6666 24.5H19.3333C19.0572 24.5 18.8333 24.2761 18.8333 24C18.8333 23.7469 19.0214 23.5377 19.2655 23.5046L19.3333 23.5H28.6666Z" fill="#212121"/>
</g>
</g>
<defs>
<clipPath id="clip0_917_104541">
<rect width="114" height="48" fill="white"/>
</clipPath>
<clipPath id="clip1_917_104541">
<rect width="82" height="24" fill="white" transform="translate(16 12)"/>
</clipPath>
</defs>
</svg>
