<svg width="1440" height="73" viewBox="0 0 1440 73" fill="none" xmlns="http://www.w3.org/2000/svg">
<rect y="1" width="1440" height="72" fill="white"/>
<path d="M1193.47 34.7607C1192.9 34.7607 1192.46 34.959 1192.15 35.3555C1191.84 35.752 1191.69 36.3011 1191.69 37.0029C1191.69 37.7686 1191.83 38.3359 1192.12 38.7051C1192.41 39.0742 1192.86 39.2588 1193.45 39.2588C1193.85 39.2588 1194.33 39.1562 1194.9 38.9512V39.7988C1194.68 39.89 1194.45 39.9674 1194.22 40.0312C1193.99 40.0951 1193.72 40.127 1193.4 40.127C1192.52 40.127 1191.84 39.8535 1191.36 39.3066C1190.89 38.7552 1190.65 37.9873 1190.65 37.0029C1190.65 36.0505 1190.9 35.2939 1191.4 34.7334C1191.91 34.1729 1192.6 33.8926 1193.47 33.8926C1194.05 33.8926 1194.61 34.0293 1195.15 34.3027L1194.75 35.1094C1194.26 34.877 1193.83 34.7607 1193.47 34.7607ZM1188.05 37.0029C1188.05 36.0915 1188.27 35.237 1188.73 34.4395C1189.19 33.6419 1189.81 33.013 1190.61 32.5527C1191.41 32.0924 1192.27 31.8623 1193.19 31.8623C1194.1 31.8623 1194.95 32.0902 1195.75 32.5459C1196.55 33.0016 1197.18 33.6283 1197.64 34.4258C1198.1 35.2233 1198.33 36.0824 1198.33 37.0029C1198.33 37.9007 1198.11 38.7438 1197.67 39.5322C1197.22 40.3206 1196.6 40.9518 1195.81 41.4258C1195.01 41.8997 1194.14 42.1367 1193.19 42.1367C1192.24 42.1367 1191.37 41.902 1190.58 41.4326C1189.78 40.9587 1189.16 40.3275 1188.71 39.5391C1188.27 38.7507 1188.05 37.9053 1188.05 37.0029ZM1188.76 37.0029C1188.76 37.7913 1188.96 38.5296 1189.36 39.2178C1189.76 39.9014 1190.3 40.4414 1190.98 40.8379C1191.67 41.2298 1192.4 41.4258 1193.19 41.4258C1193.98 41.4258 1194.72 41.2275 1195.4 40.8311C1196.07 40.4346 1196.61 39.8991 1197.01 39.2246C1197.41 38.5456 1197.61 37.805 1197.61 37.0029C1197.61 36.21 1197.41 35.474 1197.02 34.7949C1196.62 34.1159 1196.08 33.5781 1195.4 33.1816C1194.73 32.7806 1193.99 32.5801 1193.19 32.5801C1192.39 32.5801 1191.66 32.7783 1190.98 33.1748C1190.3 33.5713 1189.76 34.109 1189.36 34.7881C1188.96 35.4626 1188.76 36.2008 1188.76 37.0029ZM1209.9 42H1203.33V41.0225L1205.96 38.377C1206.77 37.5658 1207.29 36.987 1207.55 36.6406C1207.81 36.2943 1208 35.957 1208.12 35.6289C1208.25 35.3008 1208.32 34.9476 1208.32 34.5693C1208.32 34.0361 1208.15 33.6146 1207.83 33.3047C1207.51 32.9902 1207.06 32.833 1206.48 32.833C1206.07 32.833 1205.67 32.9014 1205.3 33.0381C1204.93 33.1748 1204.52 33.4232 1204.06 33.7832L1203.46 33.0107C1204.38 32.2451 1205.39 31.8623 1206.47 31.8623C1207.41 31.8623 1208.14 32.1038 1208.68 32.5869C1209.21 33.0654 1209.48 33.7103 1209.48 34.5215C1209.48 35.1549 1209.3 35.7816 1208.94 36.4014C1208.59 37.0212 1207.92 37.805 1206.95 38.7529L1204.76 40.8926V40.9473H1209.9V42ZM1217.97 36.9893C1217.97 38.7165 1217.69 40.0062 1217.15 40.8584C1216.61 41.7106 1215.77 42.1367 1214.65 42.1367C1213.58 42.1367 1212.76 41.7015 1212.2 40.8311C1211.64 39.9561 1211.36 38.6755 1211.36 36.9893C1211.36 35.2484 1211.63 33.9564 1212.17 33.1133C1212.71 32.2702 1213.54 31.8486 1214.65 31.8486C1215.74 31.8486 1216.56 32.2884 1217.12 33.168C1217.69 34.0475 1217.97 35.3213 1217.97 36.9893ZM1212.51 36.9893C1212.51 38.443 1212.68 39.5026 1213.02 40.168C1213.36 40.8288 1213.9 41.1592 1214.65 41.1592C1215.41 41.1592 1215.96 40.8242 1216.29 40.1543C1216.63 39.4798 1216.81 38.4248 1216.81 36.9893C1216.81 35.5537 1216.63 34.5033 1216.29 33.8379C1215.96 33.168 1215.41 32.833 1214.65 32.833C1213.9 32.833 1213.36 33.1634 1213.02 33.8242C1212.68 34.4805 1212.51 35.5355 1212.51 36.9893ZM1223.56 42H1222.45V34.877C1222.45 34.2845 1222.47 33.724 1222.51 33.1953C1222.41 33.291 1222.3 33.3913 1222.19 33.4961C1222.07 33.6009 1221.52 34.0452 1220.56 34.8291L1219.96 34.0498L1222.6 32.0059H1223.56V42ZM1233.94 36.2715C1233.94 40.1816 1232.42 42.1367 1229.4 42.1367C1228.87 42.1367 1228.45 42.0911 1228.14 42V41.0225C1228.5 41.141 1228.92 41.2002 1229.38 41.2002C1230.48 41.2002 1231.3 40.863 1231.86 40.1885C1232.42 39.5094 1232.72 38.4704 1232.77 37.0713H1232.69C1232.44 37.4495 1232.11 37.7389 1231.69 37.9395C1231.28 38.1354 1230.81 38.2334 1230.29 38.2334C1229.41 38.2334 1228.71 37.9691 1228.19 37.4404C1227.67 36.9118 1227.41 36.1735 1227.41 35.2256C1227.41 34.1865 1227.7 33.3662 1228.28 32.7646C1228.86 32.1631 1229.63 31.8623 1230.57 31.8623C1231.25 31.8623 1231.84 32.0378 1232.35 32.3887C1232.86 32.735 1233.25 33.2432 1233.53 33.9131C1233.8 34.5785 1233.94 35.3646 1233.94 36.2715ZM1230.57 32.833C1229.92 32.833 1229.42 33.0426 1229.06 33.4619C1228.71 33.8812 1228.53 34.4645 1228.53 35.2119C1228.53 35.8682 1228.69 36.3854 1229.02 36.7637C1229.35 37.1374 1229.85 37.3242 1230.52 37.3242C1230.93 37.3242 1231.31 37.2399 1231.66 37.0713C1232.01 36.9027 1232.29 36.6725 1232.49 36.3809C1232.69 36.0892 1232.79 35.7839 1232.79 35.4648C1232.79 34.9863 1232.69 34.5443 1232.51 34.1387C1232.32 33.7331 1232.06 33.4141 1231.72 33.1816C1231.39 32.9492 1231.01 32.833 1230.57 32.833ZM1240.87 42H1239.71V32.0059H1245.28V33.0381H1240.87V36.6953H1245.01V37.7275H1240.87V42ZM1251.38 42L1251.15 40.9336H1251.09C1250.72 41.403 1250.35 41.722 1249.97 41.8906C1249.6 42.0547 1249.14 42.1367 1248.59 42.1367C1247.84 42.1367 1247.26 41.9453 1246.84 41.5625C1246.42 41.1797 1246.21 40.6351 1246.21 39.9287C1246.21 38.4157 1247.42 37.6227 1249.84 37.5498L1251.11 37.5088V37.0439C1251.11 36.4561 1250.98 36.0231 1250.73 35.7451C1250.47 35.4626 1250.07 35.3213 1249.52 35.3213C1248.89 35.3213 1248.18 35.5127 1247.4 35.8955L1247.05 35.0273C1247.42 34.8268 1247.82 34.6696 1248.26 34.5557C1248.7 34.4417 1249.14 34.3848 1249.58 34.3848C1250.48 34.3848 1251.14 34.583 1251.57 34.9795C1252 35.376 1252.22 36.0117 1252.22 36.8867V42H1251.38ZM1248.81 41.2002C1249.52 41.2002 1250.07 41.0065 1250.47 40.6191C1250.88 40.2318 1251.08 39.6895 1251.08 38.9922V38.3154L1249.95 38.3633C1249.04 38.3952 1248.39 38.5365 1247.99 38.7871C1247.59 39.0332 1247.4 39.4183 1247.4 39.9424C1247.4 40.3525 1247.52 40.6647 1247.77 40.8789C1248.02 41.0931 1248.36 41.2002 1248.81 41.2002ZM1258.05 34.3848C1259.03 34.3848 1259.79 34.722 1260.34 35.3965C1260.88 36.0664 1261.16 37.0166 1261.16 38.2471C1261.16 39.4775 1260.88 40.4346 1260.33 41.1182C1259.78 41.7972 1259.02 42.1367 1258.05 42.1367C1257.56 42.1367 1257.11 42.0479 1256.71 41.8701C1256.31 41.6878 1255.97 41.4098 1255.7 41.0361H1255.61L1255.37 42H1254.56V31.3633H1255.7V33.9473C1255.7 34.526 1255.68 35.0456 1255.64 35.5059H1255.7C1256.22 34.7585 1257.01 34.3848 1258.05 34.3848ZM1257.88 35.335C1257.11 35.335 1256.55 35.5583 1256.21 36.0049C1255.87 36.4469 1255.7 37.1943 1255.7 38.2471C1255.7 39.2998 1255.87 40.054 1256.22 40.5098C1256.57 40.9609 1257.14 41.1865 1257.91 41.1865C1258.61 41.1865 1259.13 40.9336 1259.47 40.4277C1259.81 39.9173 1259.98 39.1859 1259.98 38.2334C1259.98 37.2581 1259.81 36.5312 1259.47 36.0527C1259.13 35.5742 1258.6 35.335 1257.88 35.335ZM1266.56 34.3711C1266.9 34.3711 1267.2 34.3984 1267.46 34.4531L1267.3 35.5059C1266.99 35.4375 1266.72 35.4033 1266.48 35.4033C1265.88 35.4033 1265.36 35.6494 1264.92 36.1416C1264.5 36.6338 1264.28 37.2467 1264.28 37.9805V42H1263.15V34.5078H1264.08L1264.21 35.8955H1264.27C1264.55 35.4079 1264.88 35.0319 1265.27 34.7676C1265.66 34.5033 1266.1 34.3711 1266.56 34.3711ZM1270.67 38.165L1268.06 34.5078H1269.35L1271.33 37.3789L1273.3 34.5078H1274.58L1271.97 38.165L1274.71 42H1273.43L1271.33 38.9648L1269.21 42H1267.92L1270.67 38.165Z" fill="#807E7E"/>
<path fill-rule="evenodd" clip-rule="evenodd" d="M182.75 27C183.13 27 183.443 27.2822 183.493 27.6482L183.5 27.75V31.75C183.5 32.1297 183.218 32.4435 182.852 32.4932L182.75 32.5H179.75C179.632 32.5 179.533 32.5822 179.507 32.6927L179.5 32.75V34H182.75C183.205 34 183.548 34.3994 183.495 34.8376L183.478 34.9319L182.478 38.9319C182.403 39.2287 182.158 39.4467 181.863 39.4915L181.75 39.5H179.5V45.75C179.5 46.1297 179.218 46.4435 178.852 46.4932L178.75 46.5H174.75C174.37 46.5 174.057 46.2178 174.007 45.8518L174 45.75V39.5H171.75C171.37 39.5 171.057 39.2178 171.007 38.8518L171 38.75V34.75C171 34.3703 171.282 34.0565 171.648 34.0068L171.75 34H174V32.75C174 29.6482 176.456 27.1201 179.529 27.0042L179.75 27H182.75ZM182 28.5H179.75C177.472 28.5 175.612 30.2925 175.505 32.5441L175.5 32.75V34.75C175.5 35.1297 175.218 35.4435 174.852 35.4932L174.75 35.5H172.5V38H174.75C175.13 38 175.443 38.2822 175.493 38.6482L175.5 38.75V45H178V38.75C178 38.3703 178.282 38.0565 178.648 38.0068L178.75 38H181.164L181.789 35.5H178.75C178.37 35.5 178.057 35.2178 178.007 34.8518L178 34.75V32.75C178 31.8318 178.707 31.0788 179.606 31.0058L179.75 31H182V28.5Z" fill="#212121"/>
<path fill-rule="evenodd" clip-rule="evenodd" d="M236.75 28H244.75C247.373 28 249.5 30.1266 249.5 32.75V40.75C249.5 43.3734 247.373 45.5 244.75 45.5H236.75C234.127 45.5 232 43.3734 232 40.75V32.75C232 30.1266 234.127 28 236.75 28ZM244.75 29.5H236.75C234.955 29.5 233.5 30.9551 233.5 32.75V40.75C233.5 42.5449 234.955 44 236.75 44H244.75C246.545 44 248 42.5449 248 40.75V32.75C248 30.9551 246.545 29.5 244.75 29.5ZM237 36.75C237 34.6789 238.679 33 240.75 33C242.821 33 244.5 34.6789 244.5 36.75C244.5 38.8211 242.821 40.5 240.75 40.5C238.679 40.5 237 38.8211 237 36.75ZM243 36.75C243 35.5074 241.993 34.5 240.75 34.5C239.507 34.5 238.5 35.5074 238.5 36.75C238.5 37.9926 239.507 39 240.75 39C241.993 39 243 37.9926 243 36.75ZM245.993 32.1482C245.943 31.7822 245.63 31.5 245.25 31.5C244.836 31.5 244.5 31.8358 244.5 32.251L244.507 32.3528C244.557 32.7188 244.87 33.001 245.25 33.001C245.664 33.001 246 32.6652 246 32.25L245.993 32.1482Z" fill="#212121"/>
<path fill-rule="evenodd" clip-rule="evenodd" d="M313.678 33.3713L313.682 32.8806L313.687 32.9466C313.689 32.9594 313.692 32.9619 313.694 32.9612L314.049 32.2535L314.502 31.3682L314.785 30.7931L314.91 30.5281C315.15 30.0127 315.323 29.5841 315.43 29.224L315.452 29.1386L315.459 29.1249C315.619 28.6806 315.329 28.1126 314.75 28.1126L314.639 28.1209L314.532 28.1449L314.421 28.1891C314.233 28.2815 314.038 28.3657 313.832 28.445L313.394 28.6007L313.019 28.7177L312.54 28.8537L311.968 29.0106L311.846 28.9039C310.594 27.87 308.889 27.7466 307.108 28.4132L306.9 28.4965C305.188 29.2254 304.064 30.82 304.004 32.6431L304.001 33.0906L303.82 33.0813C301.219 32.89 298.916 31.588 297.361 29.416C297.042 28.9698 296.367 29.0065 296.098 29.4848L296.005 29.6608L295.958 29.7577C295.258 31.2042 294.797 32.969 294.966 34.8282L294.994 35.0927C295.279 37.3723 296.542 39.3243 298.941 40.7662L299.206 40.9206L299.034 41.0175C297.563 41.8103 296.237 42.1598 294.781 42.1032C293.988 42.0723 293.696 43.1317 294.393 43.5111C297.936 45.4423 301.732 46.037 304.995 45.0899C308.973 43.934 312 40.9556 313.159 36.8304C313.47 35.6998 313.644 34.5392 313.678 33.3713ZM311.19 30.35C311.383 30.5678 311.685 30.6543 311.964 30.5719L313.134 30.2453L313.423 30.1616L313.246 30.5264L312.417 32.1517L312.316 32.3608C312.219 32.5722 312.189 32.6814 312.184 32.8194L312.184 32.8806C312.19 34.0779 312.032 35.2723 311.713 36.4284C310.698 40.0441 308.064 42.6362 304.576 43.6494L304.268 43.733C302.323 44.225 300.146 44.1043 297.955 43.4135L297.514 43.2666L297.767 43.1921C298.871 42.8421 299.975 42.2711 301.167 41.4768C301.661 41.1477 301.595 40.4023 301.051 40.1651C298.051 38.857 296.668 36.9779 296.46 34.6922L296.438 34.3625C296.396 33.3753 296.566 32.4057 296.856 31.527L296.942 31.2776L296.978 31.3196C298.979 33.4936 301.747 34.6797 304.771 34.6024C305.177 34.592 305.501 34.2593 305.501 33.8526V32.8526C305.483 31.4968 306.32 30.3103 307.634 29.818C309.115 29.2635 310.377 29.432 311.19 30.35Z" fill="#212121"/>
<path fill-rule="evenodd" clip-rule="evenodd" d="M364.25 30C366.321 30 368 31.6789 368 33.75C368 34.9526 367.434 36.0229 366.554 36.7091L366.498 36.75L366.554 36.7909C367.385 37.439 367.936 38.4297 367.995 39.5508L368 39.75C368 41.7543 366.428 43.3913 364.449 43.4948L364.25 43.5H359.75C359.37 43.5 359.057 43.2178 359.007 42.8518L359 42.75V36.75V30.75C359 30.3703 359.282 30.0565 359.648 30.0068L359.75 30H364.25ZM360.5 37.5V42H364.25C365.441 42 366.416 41.0748 366.495 39.904L366.5 39.75C366.5 38.5591 365.575 37.5844 364.404 37.5052L364.25 37.5H360.5ZM364.28 36.0006C364.27 36.0002 364.26 36 364.25 36H360.5V31.5H364.25L364.404 31.5052C365.575 31.5844 366.5 32.5591 366.5 33.75C366.5 34.9409 365.575 35.9156 364.404 35.9948L364.28 36.0006ZM378.5 37.75C378.5 35.4028 376.597 33.5 374.25 33.5C371.903 33.5 370 35.4028 370 37.75V39.75L370.007 39.8524L370.04 40.0582C370.373 41.8271 371.79 43.2046 373.584 43.4749C375.448 43.7556 377.274 42.7752 378.07 41.0667C378.245 40.6912 378.082 40.245 377.707 40.0701C377.331 39.8952 376.885 40.0579 376.71 40.4333C376.195 41.5389 375.014 42.1732 373.808 41.9916L373.629 41.9587C372.568 41.7268 371.742 40.8902 371.524 39.8269L371.5 39.693V38.5H377.75L377.852 38.4932C378.218 38.4435 378.5 38.1297 378.5 37.75ZM371.621 36.9418C371.966 35.8174 373.012 35 374.25 35L374.418 35.005C375.581 35.0749 376.55 35.8685 376.879 36.9418L376.895 37H371.604L371.621 36.9418ZM376.5 30.75C376.5 30.3358 376.164 30 375.75 30H372.75L372.648 30.0068C372.282 30.0565 372 30.3703 372 30.75C372 31.1642 372.336 31.5 372.75 31.5H375.75L375.852 31.4932C376.218 31.4435 376.5 31.1297 376.5 30.75Z" fill="#212121"/>
<rect width="1440" height="1" fill="#EAEAEA"/>
</svg>
