<svg width="1110" height="152" viewBox="0 0 1110 152" fill="none" xmlns="http://www.w3.org/2000/svg">
<rect x="0.5" y="0.5" width="1109" height="151" rx="11.5" stroke="#EAEAEA"/>
<rect x="355" y="28" width="1" height="96" fill="#EAEAEA"/>
<rect x="754" y="28" width="1" height="96" fill="#EAEAEA"/>
<path d="M892.969 93L890.062 85.4062H890.016C890.07 86.0078 890.098 86.7227 890.098 87.5508V93H889.178V84.4336H890.678L893.391 91.5H893.438L896.174 84.4336H897.662V93H896.666V87.4805C896.666 86.8477 896.693 86.1602 896.748 85.418H896.701L893.771 93H892.969ZM905.414 89.7832C905.414 90.8301 905.15 91.6484 904.623 92.2383C904.096 92.8242 903.367 93.1172 902.438 93.1172C901.863 93.1172 901.354 92.9824 900.908 92.7129C900.463 92.4434 900.119 92.0566 899.877 91.5527C899.635 91.0488 899.514 90.459 899.514 89.7832C899.514 88.7363 899.775 87.9219 900.299 87.3398C900.822 86.7539 901.549 86.4609 902.479 86.4609C903.377 86.4609 904.09 86.7598 904.617 87.3574C905.148 87.9551 905.414 88.7637 905.414 89.7832ZM900.521 89.7832C900.521 90.6035 900.686 91.2285 901.014 91.6582C901.342 92.0879 901.824 92.3027 902.461 92.3027C903.098 92.3027 903.58 92.0898 903.908 91.6641C904.24 91.2344 904.406 90.6074 904.406 89.7832C904.406 88.9668 904.24 88.3477 903.908 87.9258C903.58 87.5 903.094 87.2871 902.449 87.2871C901.812 87.2871 901.332 87.4961 901.008 87.9141C900.684 88.332 900.521 88.9551 900.521 89.7832ZM911.52 93V88.8457C911.52 88.3223 911.4 87.9316 911.162 87.6738C910.924 87.416 910.551 87.2871 910.043 87.2871C909.371 87.2871 908.879 87.4688 908.566 87.832C908.254 88.1953 908.098 88.7949 908.098 89.6309V93H907.125V86.5781H907.916L908.074 87.457H908.121C908.32 87.1406 908.6 86.8965 908.959 86.7246C909.318 86.5488 909.719 86.4609 910.16 86.4609C910.934 86.4609 911.516 86.6484 911.906 87.0234C912.297 87.3945 912.492 87.9902 912.492 88.8105V93H911.52ZM916.57 92.3145C916.742 92.3145 916.908 92.3027 917.068 92.2793C917.229 92.252 917.355 92.2246 917.449 92.1973V92.9414C917.344 92.9922 917.188 93.0332 916.98 93.0645C916.777 93.0996 916.594 93.1172 916.43 93.1172C915.188 93.1172 914.566 92.4629 914.566 91.1543V87.334H913.646V86.8652L914.566 86.4609L914.977 85.0898H915.539V86.5781H917.402V87.334H915.539V91.1133C915.539 91.5 915.631 91.7969 915.814 92.0039C915.998 92.2109 916.25 92.3145 916.57 92.3145ZM923.133 93V88.8457C923.133 88.3223 923.014 87.9316 922.775 87.6738C922.537 87.416 922.164 87.2871 921.656 87.2871C920.98 87.2871 920.486 87.4707 920.174 87.8379C919.865 88.2051 919.711 88.8066 919.711 89.6426V93H918.738V83.8828H919.711V86.6426C919.711 86.9746 919.695 87.25 919.664 87.4688H919.723C919.914 87.1602 920.186 86.918 920.537 86.7422C920.893 86.5625 921.297 86.4727 921.75 86.4727C922.535 86.4727 923.123 86.6602 923.514 87.0352C923.908 87.4062 924.105 87.998 924.105 88.8105V93H923.133ZM927.082 93H926.109V83.8828H927.082V93ZM928.125 86.5781H929.168L930.574 90.2402C930.883 91.0762 931.074 91.6797 931.148 92.0508H931.195C931.246 91.8516 931.352 91.5117 931.512 91.0312C931.676 90.5469 932.207 89.0625 933.105 86.5781H934.148L931.389 93.8906C931.115 94.6133 930.795 95.125 930.428 95.4258C930.064 95.7305 929.617 95.8828 929.086 95.8828C928.789 95.8828 928.496 95.8496 928.207 95.7832V95.0039C928.422 95.0508 928.662 95.0742 928.928 95.0742C929.596 95.0742 930.072 94.6992 930.357 93.9492L930.715 93.0352L928.125 86.5781ZM941.297 93.1172C940.879 93.1172 940.496 93.041 940.148 92.8887C939.805 92.7324 939.516 92.4941 939.281 92.1738H939.211C939.258 92.5488 939.281 92.9043 939.281 93.2402V95.8828H938.309V86.5781H939.1L939.234 87.457H939.281C939.531 87.1055 939.822 86.8516 940.154 86.6953C940.486 86.5391 940.867 86.4609 941.297 86.4609C942.148 86.4609 942.805 86.752 943.266 87.334C943.73 87.916 943.963 88.7324 943.963 89.7832C943.963 90.8379 943.727 91.6582 943.254 92.2441C942.785 92.8262 942.133 93.1172 941.297 93.1172ZM941.156 87.2871C940.5 87.2871 940.025 87.4688 939.732 87.832C939.439 88.1953 939.289 88.7734 939.281 89.5664V89.7832C939.281 90.6855 939.432 91.332 939.732 91.7227C940.033 92.1094 940.516 92.3027 941.18 92.3027C941.734 92.3027 942.168 92.0781 942.48 91.6289C942.797 91.1797 942.955 90.5605 942.955 89.7715C942.955 88.9707 942.797 88.3574 942.48 87.9316C942.168 87.502 941.727 87.2871 941.156 87.2871ZM951.211 89.7832C951.211 90.8301 950.947 91.6484 950.42 92.2383C949.893 92.8242 949.164 93.1172 948.234 93.1172C947.66 93.1172 947.15 92.9824 946.705 92.7129C946.26 92.4434 945.916 92.0566 945.674 91.5527C945.432 91.0488 945.311 90.459 945.311 89.7832C945.311 88.7363 945.572 87.9219 946.096 87.3398C946.619 86.7539 947.346 86.4609 948.275 86.4609C949.174 86.4609 949.887 86.7598 950.414 87.3574C950.945 87.9551 951.211 88.7637 951.211 89.7832ZM946.318 89.7832C946.318 90.6035 946.482 91.2285 946.811 91.6582C947.139 92.0879 947.621 92.3027 948.258 92.3027C948.895 92.3027 949.377 92.0898 949.705 91.6641C950.037 91.2344 950.203 90.6074 950.203 89.7832C950.203 88.9668 950.037 88.3477 949.705 87.9258C949.377 87.5 948.891 87.2871 948.246 87.2871C947.609 87.2871 947.129 87.4961 946.805 87.9141C946.48 88.332 946.318 88.9551 946.318 89.7832ZM953.895 93H952.922V86.5781H953.895V93ZM952.84 84.8379C952.84 84.6152 952.895 84.4531 953.004 84.3516C953.113 84.2461 953.25 84.1934 953.414 84.1934C953.57 84.1934 953.705 84.2461 953.818 84.3516C953.932 84.457 953.988 84.6191 953.988 84.8379C953.988 85.0566 953.932 85.2207 953.818 85.3301C953.705 85.4355 953.57 85.4883 953.414 85.4883C953.25 85.4883 953.113 85.4355 953.004 85.3301C952.895 85.2207 952.84 85.0566 952.84 84.8379ZM960.352 93V88.8457C960.352 88.3223 960.232 87.9316 959.994 87.6738C959.756 87.416 959.383 87.2871 958.875 87.2871C958.203 87.2871 957.711 87.4688 957.398 87.832C957.086 88.1953 956.93 88.7949 956.93 89.6309V93H955.957V86.5781H956.748L956.906 87.457H956.953C957.152 87.1406 957.432 86.8965 957.791 86.7246C958.15 86.5488 958.551 86.4609 958.992 86.4609C959.766 86.4609 960.348 86.6484 960.738 87.0234C961.129 87.3945 961.324 87.9902 961.324 88.8105V93H960.352ZM965.402 92.3145C965.574 92.3145 965.74 92.3027 965.9 92.2793C966.061 92.252 966.188 92.2246 966.281 92.1973V92.9414C966.176 92.9922 966.02 93.0332 965.812 93.0645C965.609 93.0996 965.426 93.1172 965.262 93.1172C964.02 93.1172 963.398 92.4629 963.398 91.1543V87.334H962.479V86.8652L963.398 86.4609L963.809 85.0898H964.371V86.5781H966.234V87.334H964.371V91.1133C964.371 91.5 964.463 91.7969 964.646 92.0039C964.83 92.2109 965.082 92.3145 965.402 92.3145ZM971.713 91.248C971.713 91.8457 971.49 92.3066 971.045 92.6309C970.6 92.9551 969.975 93.1172 969.17 93.1172C968.318 93.1172 967.654 92.9824 967.178 92.7129V91.8105C967.486 91.9668 967.816 92.0898 968.168 92.1797C968.523 92.2695 968.865 92.3145 969.193 92.3145C969.701 92.3145 970.092 92.2344 970.365 92.0742C970.639 91.9102 970.775 91.6621 970.775 91.3301C970.775 91.0801 970.666 90.8672 970.447 90.6914C970.232 90.5117 969.811 90.3008 969.182 90.0586C968.584 89.8359 968.158 89.6426 967.904 89.4785C967.654 89.3105 967.467 89.1211 967.342 88.9102C967.221 88.6992 967.16 88.4473 967.16 88.1543C967.16 87.6309 967.373 87.2188 967.799 86.918C968.225 86.6133 968.809 86.4609 969.551 86.4609C970.242 86.4609 970.918 86.6016 971.578 86.8828L971.232 87.6738C970.588 87.4082 970.004 87.2754 969.48 87.2754C969.02 87.2754 968.672 87.3477 968.438 87.4922C968.203 87.6367 968.086 87.8359 968.086 88.0898C968.086 88.2617 968.129 88.4082 968.215 88.5293C968.305 88.6504 968.447 88.7656 968.643 88.875C968.838 88.9844 969.213 89.1426 969.768 89.3496C970.529 89.627 971.043 89.9062 971.309 90.1875C971.578 90.4688 971.713 90.8223 971.713 91.248ZM977.812 86.1387C977.812 86.4082 977.883 86.666 978.023 86.9121C978.164 87.1543 978.404 87.4473 978.744 87.791C979.248 87.498 979.598 87.2285 979.793 86.9824C979.992 86.7324 980.092 86.4453 980.092 86.1211C980.092 85.8203 979.99 85.5762 979.787 85.3887C979.588 85.1973 979.32 85.1016 978.984 85.1016C978.637 85.1016 978.354 85.1953 978.135 85.3828C977.92 85.5703 977.812 85.8223 977.812 86.1387ZM978.721 92.2441C979.662 92.2441 980.443 91.9434 981.064 91.3418L978.504 88.8574C978.07 89.123 977.764 89.3438 977.584 89.5195C977.404 89.6914 977.271 89.877 977.186 90.0762C977.1 90.2754 977.057 90.502 977.057 90.7559C977.057 91.2129 977.207 91.5762 977.508 91.8457C977.812 92.1113 978.217 92.2441 978.721 92.2441ZM976.049 90.7793C976.049 90.2715 976.184 89.8223 976.453 89.4316C976.727 89.041 977.215 88.6465 977.918 88.248C977.586 87.877 977.359 87.5957 977.238 87.4043C977.121 87.2129 977.027 87.0137 976.957 86.8066C976.887 86.5996 976.852 86.3848 976.852 86.1621C976.852 85.5762 977.043 85.1191 977.426 84.791C977.809 84.4629 978.342 84.2988 979.025 84.2988C979.658 84.2988 980.156 84.4629 980.52 84.791C980.883 85.1152 981.064 85.5684 981.064 86.1504C981.064 86.5684 980.932 86.9551 980.666 87.3105C980.4 87.6621 979.961 88.0195 979.348 88.3828L981.732 90.6738C981.951 90.4316 982.125 90.1484 982.254 89.8242C982.387 89.4961 982.498 89.1387 982.588 88.752H983.572C983.307 89.8691 982.906 90.7168 982.371 91.2949L984.123 93H982.781L981.697 91.957C981.236 92.3711 980.768 92.668 980.291 92.8477C979.814 93.0273 979.283 93.1172 978.697 93.1172C977.857 93.1172 977.205 92.9102 976.74 92.4961C976.279 92.082 976.049 91.5098 976.049 90.7793ZM991.23 86.4609C991.516 86.4609 991.771 86.4844 991.998 86.5312L991.863 87.4336C991.598 87.375 991.363 87.3457 991.16 87.3457C990.641 87.3457 990.195 87.5566 989.824 87.9785C989.457 88.4004 989.273 88.9258 989.273 89.5547V93H988.301V86.5781H989.104L989.215 87.7676H989.262C989.5 87.3496 989.787 87.0273 990.123 86.8008C990.459 86.5742 990.828 86.4609 991.23 86.4609ZM995.912 93.1172C994.963 93.1172 994.213 92.8281 993.662 92.25C993.115 91.6719 992.842 90.8691 992.842 89.8418C992.842 88.8066 993.096 87.9844 993.604 87.375C994.115 86.7656 994.801 86.4609 995.66 86.4609C996.465 86.4609 997.102 86.7266 997.57 87.2578C998.039 87.7852 998.273 88.4824 998.273 89.3496V89.9648H993.85C993.869 90.7188 994.059 91.291 994.418 91.6816C994.781 92.0723 995.291 92.2676 995.947 92.2676C996.639 92.2676 997.322 92.123 997.998 91.834V92.7012C997.654 92.8496 997.328 92.9551 997.02 93.0176C996.715 93.084 996.346 93.1172 995.912 93.1172ZM995.648 87.2754C995.133 87.2754 994.721 87.4434 994.412 87.7793C994.107 88.1152 993.928 88.5801 993.873 89.1738H997.23C997.23 88.5605 997.094 88.0918 996.82 87.7676C996.547 87.4395 996.156 87.2754 995.648 87.2754ZM1005.18 93L1004 89.2324C1003.93 89.002 1003.79 88.4785 1003.59 87.6621H1003.54C1003.38 88.3457 1003.25 88.873 1003.13 89.2441L1001.92 93H1000.79L999.041 86.5781H1000.06C1000.47 88.1914 1000.79 89.4199 1001 90.2637C1001.22 91.1074 1001.35 91.6758 1001.38 91.9688H1001.43C1001.47 91.7461 1001.54 91.459 1001.63 91.1074C1001.73 90.752 1001.81 90.4707 1001.88 90.2637L1003.06 86.5781H1004.12L1005.26 90.2637C1005.48 90.9355 1005.63 91.5 1005.71 91.957H1005.76C1005.77 91.8164 1005.81 91.5996 1005.88 91.3066C1005.95 91.0137 1006.36 89.4375 1007.1 86.5781H1008.11L1006.34 93H1005.18ZM1013.23 93L1013.03 92.0859H1012.99C1012.67 92.4883 1012.35 92.7617 1012.03 92.9062C1011.71 93.0469 1011.31 93.1172 1010.84 93.1172C1010.2 93.1172 1009.7 92.9531 1009.34 92.625C1008.98 92.2969 1008.8 91.8301 1008.8 91.2246C1008.8 89.9277 1009.83 89.248 1011.91 89.1855L1013 89.1504V88.752C1013 88.248 1012.89 87.877 1012.67 87.6387C1012.46 87.3965 1012.11 87.2754 1011.63 87.2754C1011.1 87.2754 1010.49 87.4395 1009.82 87.7676L1009.52 87.0234C1009.83 86.8516 1010.18 86.7168 1010.55 86.6191C1010.93 86.5215 1011.31 86.4727 1011.69 86.4727C1012.46 86.4727 1013.02 86.6426 1013.39 86.9824C1013.76 87.3223 1013.95 87.8672 1013.95 88.6172V93H1013.23ZM1011.03 92.3145C1011.63 92.3145 1012.11 92.1484 1012.45 91.8164C1012.8 91.4844 1012.97 91.0195 1012.97 90.4219V89.8418L1012 89.8828C1011.23 89.9102 1010.67 90.0312 1010.33 90.2461C1009.99 90.457 1009.82 90.7871 1009.82 91.2363C1009.82 91.5879 1009.92 91.8555 1010.13 92.0391C1010.35 92.2227 1010.65 92.3145 1011.03 92.3145ZM1018.89 86.4609C1019.17 86.4609 1019.43 86.4844 1019.65 86.5312L1019.52 87.4336C1019.25 87.375 1019.02 87.3457 1018.82 87.3457C1018.3 87.3457 1017.85 87.5566 1017.48 87.9785C1017.11 88.4004 1016.93 88.9258 1016.93 89.5547V93H1015.96V86.5781H1016.76L1016.87 87.7676H1016.92C1017.16 87.3496 1017.44 87.0273 1017.78 86.8008C1018.12 86.5742 1018.48 86.4609 1018.89 86.4609ZM1025.23 92.1387H1025.17C1024.72 92.791 1024.05 93.1172 1023.16 93.1172C1022.32 93.1172 1021.66 92.8301 1021.2 92.2559C1020.73 91.6816 1020.5 90.8652 1020.5 89.8066C1020.5 88.748 1020.73 87.9258 1021.2 87.3398C1021.67 86.7539 1022.32 86.4609 1023.16 86.4609C1024.03 86.4609 1024.7 86.7773 1025.16 87.4102H1025.24L1025.2 86.9473L1025.17 86.4961V83.8828H1026.15V93H1025.36L1025.23 92.1387ZM1023.28 92.3027C1023.95 92.3027 1024.43 92.123 1024.72 91.7637C1025.02 91.4004 1025.17 90.8164 1025.17 90.0117V89.8066C1025.17 88.8965 1025.02 88.248 1024.72 87.8613C1024.42 87.4707 1023.93 87.2754 1023.27 87.2754C1022.7 87.2754 1022.26 87.498 1021.96 87.9434C1021.66 88.3848 1021.51 89.0098 1021.51 89.8184C1021.51 90.6387 1021.66 91.2578 1021.96 91.6758C1022.26 92.0938 1022.7 92.3027 1023.28 92.3027ZM1032.36 91.248C1032.36 91.8457 1032.13 92.3066 1031.69 92.6309C1031.24 92.9551 1030.62 93.1172 1029.81 93.1172C1028.96 93.1172 1028.3 92.9824 1027.82 92.7129V91.8105C1028.13 91.9668 1028.46 92.0898 1028.81 92.1797C1029.17 92.2695 1029.51 92.3145 1029.84 92.3145C1030.35 92.3145 1030.74 92.2344 1031.01 92.0742C1031.28 91.9102 1031.42 91.6621 1031.42 91.3301C1031.42 91.0801 1031.31 90.8672 1031.09 90.6914C1030.88 90.5117 1030.46 90.3008 1029.83 90.0586C1029.23 89.8359 1028.8 89.6426 1028.55 89.4785C1028.3 89.3105 1028.11 89.1211 1027.99 88.9102C1027.87 88.6992 1027.8 88.4473 1027.8 88.1543C1027.8 87.6309 1028.02 87.2188 1028.44 86.918C1028.87 86.6133 1029.45 86.4609 1030.2 86.4609C1030.89 86.4609 1031.56 86.6016 1032.22 86.8828L1031.88 87.6738C1031.23 87.4082 1030.65 87.2754 1030.12 87.2754C1029.66 87.2754 1029.32 87.3477 1029.08 87.4922C1028.85 87.6367 1028.73 87.8359 1028.73 88.0898C1028.73 88.2617 1028.77 88.4082 1028.86 88.5293C1028.95 88.6504 1029.09 88.7656 1029.29 88.875C1029.48 88.9844 1029.86 89.1426 1030.41 89.3496C1031.17 89.627 1031.69 89.9062 1031.95 90.1875C1032.22 90.4688 1032.36 90.8223 1032.36 91.248Z" fill="#807E7E"/>
<path d="M904.359 71H902.508V59.5781H908.953V61.1562H904.359V64.7266H908.664V66.3125H904.359V71ZM915.211 62.2031C915.581 62.2031 915.885 62.2292 916.125 62.2812L915.945 63.9922C915.685 63.9297 915.414 63.8984 915.133 63.8984C914.398 63.8984 913.802 64.138 913.344 64.6172C912.891 65.0964 912.664 65.7188 912.664 66.4844V71H910.828V62.3594H912.266L912.508 63.8828H912.602C912.888 63.3672 913.26 62.9583 913.719 62.6562C914.182 62.3542 914.68 62.2031 915.211 62.2031ZM921.508 71.1562C920.164 71.1562 919.112 70.7656 918.352 69.9844C917.596 69.1979 917.219 68.1172 917.219 66.7422C917.219 65.3307 917.57 64.2214 918.273 63.4141C918.977 62.6068 919.943 62.2031 921.172 62.2031C922.312 62.2031 923.214 62.5495 923.875 63.2422C924.536 63.9349 924.867 64.888 924.867 66.1016V67.0938H919.109C919.135 67.9323 919.362 68.5781 919.789 69.0312C920.216 69.4792 920.818 69.7031 921.594 69.7031C922.104 69.7031 922.578 69.6562 923.016 69.5625C923.458 69.4635 923.932 69.3021 924.438 69.0781V70.5703C923.99 70.7839 923.536 70.9349 923.078 71.0234C922.62 71.112 922.096 71.1562 921.508 71.1562ZM921.172 63.5938C920.589 63.5938 920.12 63.7786 919.766 64.1484C919.417 64.5182 919.208 65.0573 919.141 65.7656H923.062C923.052 65.0521 922.88 64.513 922.547 64.1484C922.214 63.7786 921.755 63.5938 921.172 63.5938ZM930.727 71.1562C929.383 71.1562 928.331 70.7656 927.57 69.9844C926.815 69.1979 926.438 68.1172 926.438 66.7422C926.438 65.3307 926.789 64.2214 927.492 63.4141C928.195 62.6068 929.161 62.2031 930.391 62.2031C931.531 62.2031 932.432 62.5495 933.094 63.2422C933.755 63.9349 934.086 64.888 934.086 66.1016V67.0938H928.328C928.354 67.9323 928.581 68.5781 929.008 69.0312C929.435 69.4792 930.036 69.7031 930.812 69.7031C931.323 69.7031 931.797 69.6562 932.234 69.5625C932.677 69.4635 933.151 69.3021 933.656 69.0781V70.5703C933.208 70.7839 932.755 70.9349 932.297 71.0234C931.839 71.112 931.315 71.1562 930.727 71.1562ZM930.391 63.5938C929.807 63.5938 929.339 63.7786 928.984 64.1484C928.635 64.5182 928.427 65.0573 928.359 65.7656H932.281C932.271 65.0521 932.099 64.513 931.766 64.1484C931.432 63.7786 930.974 63.5938 930.391 63.5938ZM946.133 68.5391C946.133 69.3828 945.826 70.0312 945.211 70.4844C944.596 70.9323 943.716 71.1562 942.57 71.1562C941.419 71.1562 940.495 70.9818 939.797 70.6328V69.0469C940.812 69.5156 941.758 69.75 942.633 69.75C943.763 69.75 944.328 69.4089 944.328 68.7266C944.328 68.5078 944.266 68.3255 944.141 68.1797C944.016 68.0339 943.81 67.8828 943.523 67.7266C943.237 67.5703 942.839 67.3932 942.328 67.1953C941.333 66.8099 940.659 66.4245 940.305 66.0391C939.956 65.6536 939.781 65.1536 939.781 64.5391C939.781 63.7995 940.078 63.2266 940.672 62.8203C941.271 62.4089 942.083 62.2031 943.109 62.2031C944.125 62.2031 945.086 62.4089 945.992 62.8203L945.398 64.2031C944.466 63.8177 943.682 63.625 943.047 63.625C942.078 63.625 941.594 63.901 941.594 64.4531C941.594 64.724 941.719 64.9531 941.969 65.1406C942.224 65.3281 942.776 65.5859 943.625 65.9141C944.339 66.1901 944.857 66.4427 945.18 66.6719C945.503 66.901 945.742 67.1667 945.898 67.4688C946.055 67.7656 946.133 68.1224 946.133 68.5391ZM951.344 69.6719C951.792 69.6719 952.24 69.6016 952.688 69.4609V70.8438C952.484 70.9323 952.221 71.0052 951.898 71.0625C951.581 71.125 951.25 71.1562 950.906 71.1562C949.167 71.1562 948.297 70.2396 948.297 68.4062V63.75H947.117V62.9375L948.383 62.2656L949.008 60.4375H950.141V62.3594H952.602V63.75H950.141V68.375C950.141 68.8177 950.25 69.1458 950.469 69.3594C950.693 69.5677 950.984 69.6719 951.344 69.6719ZM960.516 71L960.258 69.8672H960.164C959.909 70.2682 959.544 70.5833 959.07 70.8125C958.602 71.0417 958.065 71.1562 957.461 71.1562C956.414 71.1562 955.633 70.8958 955.117 70.375C954.602 69.8542 954.344 69.0651 954.344 68.0078V62.3594H956.195V67.6875C956.195 68.349 956.331 68.8464 956.602 69.1797C956.872 69.5078 957.297 69.6719 957.875 69.6719C958.646 69.6719 959.211 69.4427 959.57 68.9844C959.935 68.5208 960.117 67.7474 960.117 66.6641V62.3594H961.961V71H960.516ZM968.914 63.75H966.805V71H964.961V63.75H963.539V62.8906L964.961 62.3281V61.7656C964.961 60.7448 965.201 59.9896 965.68 59.5C966.159 59.0052 966.891 58.7578 967.875 58.7578C968.521 58.7578 969.156 58.8646 969.781 59.0781L969.297 60.4688C968.844 60.3229 968.411 60.25 968 60.25C967.583 60.25 967.279 60.3802 967.086 60.6406C966.898 60.8958 966.805 61.2812 966.805 61.7969V62.3594H968.914V63.75ZM974.727 63.75H972.617V71H970.773V63.75H969.352V62.8906L970.773 62.3281V61.7656C970.773 60.7448 971.013 59.9896 971.492 59.5C971.971 59.0052 972.703 58.7578 973.688 58.7578C974.333 58.7578 974.969 58.8646 975.594 59.0781L975.109 60.4688C974.656 60.3229 974.224 60.25 973.812 60.25C973.396 60.25 973.091 60.3802 972.898 60.6406C972.711 60.8958 972.617 61.2812 972.617 61.7969V62.3594H974.727V63.75ZM977.789 67.5312H976.43L976.023 59.5781H978.188L977.789 67.5312ZM975.93 70.0234C975.93 69.638 976.031 69.3464 976.234 69.1484C976.438 68.9453 976.727 68.8438 977.102 68.8438C977.471 68.8438 977.755 68.9479 977.953 69.1562C978.151 69.3646 978.25 69.6536 978.25 70.0234C978.25 70.3932 978.148 70.6875 977.945 70.9062C977.747 71.1198 977.466 71.2266 977.102 71.2266C976.732 71.2266 976.443 71.1224 976.234 70.9141C976.031 70.7057 975.93 70.4089 975.93 70.0234Z" fill="#212121"/>
<path fill-rule="evenodd" clip-rule="evenodd" d="M874.5 60.251C874.5 56.0629 871.105 52.6677 866.917 52.6677L866.443 52.6725C862.353 52.8268 858.739 55.9019 856.44 60.7395L856.414 60.7923L856.121 60.1892C853.721 55.489 850.034 52.5957 845.886 52.6679C841.729 52.6677 838.333 56.0629 838.333 60.251C838.333 61.7542 838.771 63.1552 839.525 64.3337H837.75C835.495 64.3337 833.667 66.1619 833.667 68.4171V73.0837C833.667 75.3389 835.495 77.1671 837.75 77.1671H838.333V91.7504L838.345 92.1413C838.547 95.5031 841.337 98.1671 844.75 98.1671H856.417H868.083L868.474 98.1554C871.836 97.9534 874.5 95.163 874.5 91.7504V77.1671H875.083C877.339 77.1671 879.167 75.3389 879.167 73.0837V68.4171C879.167 66.1619 877.339 64.3337 875.083 64.3337H873.308C874.063 63.1552 874.5 61.7542 874.5 60.251ZM866.87 67.8337C866.886 67.8341 866.901 67.8343 866.917 67.8343C866.949 67.8343 866.981 67.8341 867.013 67.8337H875.083C875.406 67.8337 875.667 68.0949 875.667 68.4171V73.0837C875.667 73.4059 875.406 73.6671 875.083 73.6671H872.75H858.167V67.8337H866.87ZM866.988 64.3337C869.21 64.2959 871 62.4825 871 60.251C871 57.9959 869.172 56.1677 866.886 56.1674C863.684 56.1116 860.519 59.2032 858.749 64.3337H866.988ZM854.085 64.3337C852.314 59.2032 849.145 56.1117 845.917 56.1677C843.662 56.1677 841.833 57.9959 841.833 60.251C841.833 62.3934 843.483 64.1505 845.582 64.3208L845.902 64.3337H854.085ZM845.82 67.8337C845.852 67.8341 845.884 67.8343 845.917 67.8343C845.932 67.8343 845.948 67.8341 845.963 67.8337H854.667V73.6671H840.083H837.75C837.428 73.6671 837.167 73.4059 837.167 73.0837V68.4171C837.167 68.0949 837.428 67.8337 837.75 67.8337H845.82ZM841.833 91.7504V77.1671H854.667V94.6671H844.75L844.452 94.652C842.981 94.5027 841.833 93.2606 841.833 91.7504ZM868.083 94.6671H858.167V77.1671H871V91.7504L870.985 92.0486C870.836 93.5194 869.594 94.6671 868.083 94.6671Z" fill="#212121"/>
<g clip-path="url(#clip0_878_100418)">
<path d="M516.217 94H510.586V93.1621L512.842 90.8945C513.529 90.1992 513.982 89.7031 514.201 89.4062C514.42 89.1094 514.584 88.8203 514.693 88.5391C514.803 88.2578 514.857 87.9551 514.857 87.6309C514.857 87.1738 514.719 86.8125 514.441 86.5469C514.164 86.2773 513.779 86.1426 513.287 86.1426C512.932 86.1426 512.594 86.2012 512.273 86.3184C511.957 86.4355 511.604 86.6484 511.213 86.957L510.697 86.2949C511.486 85.6387 512.346 85.3105 513.275 85.3105C514.08 85.3105 514.711 85.5176 515.168 85.9316C515.625 86.3418 515.854 86.8945 515.854 87.5898C515.854 88.1328 515.701 88.6699 515.396 89.2012C515.092 89.7324 514.521 90.4043 513.686 91.2168L511.811 93.0508V93.0977H516.217V94ZM523.488 92.0312H522.217V94H521.285V92.0312H517.119V91.1816L521.186 85.3867H522.217V91.1465H523.488V92.0312ZM521.285 91.1465V88.2988C521.285 87.7402 521.305 87.1094 521.344 86.4062H521.297C521.109 86.7812 520.934 87.0918 520.77 87.3379L518.092 91.1465H521.285ZM531.135 85.4336L527.941 94H526.969L530.162 85.4336H531.135ZM536.045 94L539.596 86.3301H534.926V85.4336H540.627V86.2129L537.123 94H536.045ZM548.285 88.334H546.65V94H545.678V88.334H544.529V87.8945L545.678 87.543V87.1855C545.678 85.6074 546.367 84.8184 547.746 84.8184C548.086 84.8184 548.484 84.8867 548.941 85.0234L548.689 85.8027C548.314 85.6816 547.994 85.6211 547.729 85.6211C547.361 85.6211 547.09 85.7441 546.914 85.9902C546.738 86.2324 546.65 86.623 546.65 87.1621V87.5781H548.285V88.334ZM552.387 87.4609C552.672 87.4609 552.928 87.4844 553.154 87.5312L553.02 88.4336C552.754 88.375 552.52 88.3457 552.316 88.3457C551.797 88.3457 551.352 88.5566 550.98 88.9785C550.613 89.4004 550.43 89.9258 550.43 90.5547V94H549.457V87.5781H550.26L550.371 88.7676H550.418C550.656 88.3496 550.943 88.0273 551.279 87.8008C551.615 87.5742 551.984 87.4609 552.387 87.4609ZM555.328 94H554.355V87.5781H555.328V94ZM554.273 85.8379C554.273 85.6152 554.328 85.4531 554.438 85.3516C554.547 85.2461 554.684 85.1934 554.848 85.1934C555.004 85.1934 555.139 85.2461 555.252 85.3516C555.365 85.457 555.422 85.6191 555.422 85.8379C555.422 86.0566 555.365 86.2207 555.252 86.3301C555.139 86.4355 555.004 86.4883 554.848 86.4883C554.684 86.4883 554.547 86.4355 554.438 86.3301C554.328 86.2207 554.273 86.0566 554.273 85.8379ZM560.104 94.1172C559.154 94.1172 558.404 93.8281 557.854 93.25C557.307 92.6719 557.033 91.8691 557.033 90.8418C557.033 89.8066 557.287 88.9844 557.795 88.375C558.307 87.7656 558.992 87.4609 559.852 87.4609C560.656 87.4609 561.293 87.7266 561.762 88.2578C562.23 88.7852 562.465 89.4824 562.465 90.3496V90.9648H558.041C558.061 91.7188 558.25 92.291 558.609 92.6816C558.973 93.0723 559.482 93.2676 560.139 93.2676C560.83 93.2676 561.514 93.123 562.189 92.834V93.7012C561.846 93.8496 561.52 93.9551 561.211 94.0176C560.906 94.084 560.537 94.1172 560.104 94.1172ZM559.84 88.2754C559.324 88.2754 558.912 88.4434 558.604 88.7793C558.299 89.1152 558.119 89.5801 558.064 90.1738H561.422C561.422 89.5605 561.285 89.0918 561.012 88.7676C560.738 88.4395 560.348 88.2754 559.84 88.2754ZM568.523 94V89.8457C568.523 89.3223 568.404 88.9316 568.166 88.6738C567.928 88.416 567.555 88.2871 567.047 88.2871C566.375 88.2871 565.883 88.4688 565.57 88.832C565.258 89.1953 565.102 89.7949 565.102 90.6309V94H564.129V87.5781H564.92L565.078 88.457H565.125C565.324 88.1406 565.604 87.8965 565.963 87.7246C566.322 87.5488 566.723 87.4609 567.164 87.4609C567.938 87.4609 568.52 87.6484 568.91 88.0234C569.301 88.3945 569.496 88.9902 569.496 89.8105V94H568.523ZM575.871 93.1387H575.818C575.369 93.791 574.697 94.1172 573.803 94.1172C572.963 94.1172 572.309 93.8301 571.84 93.2559C571.375 92.6816 571.143 91.8652 571.143 90.8066C571.143 89.748 571.377 88.9258 571.846 88.3398C572.314 87.7539 572.967 87.4609 573.803 87.4609C574.674 87.4609 575.342 87.7773 575.807 88.4102H575.883L575.842 87.9473L575.818 87.4961V84.8828H576.791V94H576L575.871 93.1387ZM573.926 93.3027C574.59 93.3027 575.07 93.123 575.367 92.7637C575.668 92.4004 575.818 91.8164 575.818 91.0117V90.8066C575.818 89.8965 575.666 89.248 575.361 88.8613C575.061 88.4707 574.578 88.2754 573.914 88.2754C573.344 88.2754 572.906 88.498 572.602 88.9434C572.301 89.3848 572.15 90.0098 572.15 90.8184C572.15 91.6387 572.301 92.2578 572.602 92.6758C572.902 93.0938 573.344 93.3027 573.926 93.3027ZM579.832 94H578.859V84.8828H579.832V94ZM580.875 87.5781H581.918L583.324 91.2402C583.633 92.0762 583.824 92.6797 583.898 93.0508H583.945C583.996 92.8516 584.102 92.5117 584.262 92.0312C584.426 91.5469 584.957 90.0625 585.855 87.5781H586.898L584.139 94.8906C583.865 95.6133 583.545 96.125 583.178 96.4258C582.814 96.7305 582.367 96.8828 581.836 96.8828C581.539 96.8828 581.246 96.8496 580.957 96.7832V96.0039C581.172 96.0508 581.412 96.0742 581.678 96.0742C582.346 96.0742 582.822 95.6992 583.107 94.9492L583.465 94.0352L580.875 87.5781ZM593.133 93.3145C593.305 93.3145 593.471 93.3027 593.631 93.2793C593.791 93.252 593.918 93.2246 594.012 93.1973V93.9414C593.906 93.9922 593.75 94.0332 593.543 94.0645C593.34 94.0996 593.156 94.1172 592.992 94.1172C591.75 94.1172 591.129 93.4629 591.129 92.1543V88.334H590.209V87.8652L591.129 87.4609L591.539 86.0898H592.102V87.5781H593.965V88.334H592.102V92.1133C592.102 92.5 592.193 92.7969 592.377 93.0039C592.561 93.2109 592.812 93.3145 593.133 93.3145ZM598.014 94.1172C597.064 94.1172 596.314 93.8281 595.764 93.25C595.217 92.6719 594.943 91.8691 594.943 90.8418C594.943 89.8066 595.197 88.9844 595.705 88.375C596.217 87.7656 596.902 87.4609 597.762 87.4609C598.566 87.4609 599.203 87.7266 599.672 88.2578C600.141 88.7852 600.375 89.4824 600.375 90.3496V90.9648H595.951C595.971 91.7188 596.16 92.291 596.52 92.6816C596.883 93.0723 597.393 93.2676 598.049 93.2676C598.74 93.2676 599.424 93.123 600.1 92.834V93.7012C599.756 93.8496 599.43 93.9551 599.121 94.0176C598.816 94.084 598.447 94.1172 598.014 94.1172ZM597.75 88.2754C597.234 88.2754 596.822 88.4434 596.514 88.7793C596.209 89.1152 596.029 89.5801 595.975 90.1738H599.332C599.332 89.5605 599.195 89.0918 598.922 88.7676C598.648 88.4395 598.258 88.2754 597.75 88.2754ZM605.988 94L605.795 93.0859H605.748C605.428 93.4883 605.107 93.7617 604.787 93.9062C604.471 94.0469 604.074 94.1172 603.598 94.1172C602.961 94.1172 602.461 93.9531 602.098 93.625C601.738 93.2969 601.559 92.8301 601.559 92.2246C601.559 90.9277 602.596 90.248 604.67 90.1855L605.76 90.1504V89.752C605.76 89.248 605.65 88.877 605.432 88.6387C605.217 88.3965 604.871 88.2754 604.395 88.2754C603.859 88.2754 603.254 88.4395 602.578 88.7676L602.279 88.0234C602.596 87.8516 602.941 87.7168 603.316 87.6191C603.695 87.5215 604.074 87.4727 604.453 87.4727C605.219 87.4727 605.785 87.6426 606.152 87.9824C606.523 88.3223 606.709 88.8672 606.709 89.6172V94H605.988ZM603.791 93.3145C604.396 93.3145 604.871 93.1484 605.215 92.8164C605.562 92.4844 605.736 92.0195 605.736 91.4219V90.8418L604.764 90.8828C603.99 90.9102 603.432 91.0312 603.088 91.2461C602.748 91.457 602.578 91.7871 602.578 92.2363C602.578 92.5879 602.684 92.8555 602.895 93.0391C603.109 93.2227 603.408 93.3145 603.791 93.3145ZM616.904 94V89.8223C616.904 89.3105 616.795 88.9277 616.576 88.6738C616.357 88.416 616.018 88.2871 615.557 88.2871C614.951 88.2871 614.504 88.4609 614.215 88.8086C613.926 89.1562 613.781 89.6914 613.781 90.4141V94H612.809V89.8223C612.809 89.3105 612.699 88.9277 612.48 88.6738C612.262 88.416 611.92 88.2871 611.455 88.2871C610.846 88.2871 610.398 88.4707 610.113 88.8379C609.832 89.2012 609.691 89.7988 609.691 90.6309V94H608.719V87.5781H609.51L609.668 88.457H609.715C609.898 88.1445 610.156 87.9004 610.488 87.7246C610.824 87.5488 611.199 87.4609 611.613 87.4609C612.617 87.4609 613.273 87.8242 613.582 88.5508H613.629C613.82 88.2148 614.098 87.9492 614.461 87.7539C614.824 87.5586 615.238 87.4609 615.703 87.4609C616.43 87.4609 616.973 87.6484 617.332 88.0234C617.695 88.3945 617.877 88.9902 617.877 89.8105V94H616.904ZM626.953 94L626.76 93.0859H626.713C626.393 93.4883 626.072 93.7617 625.752 93.9062C625.436 94.0469 625.039 94.1172 624.562 94.1172C623.926 94.1172 623.426 93.9531 623.062 93.625C622.703 93.2969 622.523 92.8301 622.523 92.2246C622.523 90.9277 623.561 90.248 625.635 90.1855L626.725 90.1504V89.752C626.725 89.248 626.615 88.877 626.396 88.6387C626.182 88.3965 625.836 88.2754 625.359 88.2754C624.824 88.2754 624.219 88.4395 623.543 88.7676L623.244 88.0234C623.561 87.8516 623.906 87.7168 624.281 87.6191C624.66 87.5215 625.039 87.4727 625.418 87.4727C626.184 87.4727 626.75 87.6426 627.117 87.9824C627.488 88.3223 627.674 88.8672 627.674 89.6172V94H626.953ZM624.756 93.3145C625.361 93.3145 625.836 93.1484 626.18 92.8164C626.527 92.4844 626.701 92.0195 626.701 91.4219V90.8418L625.729 90.8828C624.955 90.9102 624.396 91.0312 624.053 91.2461C623.713 91.457 623.543 91.7871 623.543 92.2363C623.543 92.5879 623.648 92.8555 623.859 93.0391C624.074 93.2227 624.373 93.3145 624.756 93.3145ZM631.09 94L628.652 87.5781H629.695L631.078 91.3867C631.391 92.2773 631.574 92.8555 631.629 93.1211H631.676C631.719 92.9141 631.854 92.4863 632.08 91.8379C632.311 91.1855 632.824 89.7656 633.621 87.5781H634.664L632.227 94H631.09ZM639.645 94L639.451 93.0859H639.404C639.084 93.4883 638.764 93.7617 638.443 93.9062C638.127 94.0469 637.73 94.1172 637.254 94.1172C636.617 94.1172 636.117 93.9531 635.754 93.625C635.395 93.2969 635.215 92.8301 635.215 92.2246C635.215 90.9277 636.252 90.248 638.326 90.1855L639.416 90.1504V89.752C639.416 89.248 639.307 88.877 639.088 88.6387C638.873 88.3965 638.527 88.2754 638.051 88.2754C637.516 88.2754 636.91 88.4395 636.234 88.7676L635.936 88.0234C636.252 87.8516 636.598 87.7168 636.973 87.6191C637.352 87.5215 637.73 87.4727 638.109 87.4727C638.875 87.4727 639.441 87.6426 639.809 87.9824C640.18 88.3223 640.365 88.8672 640.365 89.6172V94H639.645ZM637.447 93.3145C638.053 93.3145 638.527 93.1484 638.871 92.8164C639.219 92.4844 639.393 92.0195 639.393 91.4219V90.8418L638.42 90.8828C637.646 90.9102 637.088 91.0312 636.744 91.2461C636.404 91.457 636.234 91.7871 636.234 92.2363C636.234 92.5879 636.34 92.8555 636.551 93.0391C636.766 93.2227 637.064 93.3145 637.447 93.3145ZM643.348 94H642.375V87.5781H643.348V94ZM642.293 85.8379C642.293 85.6152 642.348 85.4531 642.457 85.3516C642.566 85.2461 642.703 85.1934 642.867 85.1934C643.023 85.1934 643.158 85.2461 643.271 85.3516C643.385 85.457 643.441 85.6191 643.441 85.8379C643.441 86.0566 643.385 86.2207 643.271 86.3301C643.158 86.4355 643.023 86.4883 642.867 86.4883C642.703 86.4883 642.566 86.4355 642.457 86.3301C642.348 86.2207 642.293 86.0566 642.293 85.8379ZM646.383 94H645.41V84.8828H646.383V94ZM652.395 94L652.201 93.0859H652.154C651.834 93.4883 651.514 93.7617 651.193 93.9062C650.877 94.0469 650.48 94.1172 650.004 94.1172C649.367 94.1172 648.867 93.9531 648.504 93.625C648.145 93.2969 647.965 92.8301 647.965 92.2246C647.965 90.9277 649.002 90.248 651.076 90.1855L652.166 90.1504V89.752C652.166 89.248 652.057 88.877 651.838 88.6387C651.623 88.3965 651.277 88.2754 650.801 88.2754C650.266 88.2754 649.66 88.4395 648.984 88.7676L648.686 88.0234C649.002 87.8516 649.348 87.7168 649.723 87.6191C650.102 87.5215 650.48 87.4727 650.859 87.4727C651.625 87.4727 652.191 87.6426 652.559 87.9824C652.93 88.3223 653.115 88.8672 653.115 89.6172V94H652.395ZM650.197 93.3145C650.803 93.3145 651.277 93.1484 651.621 92.8164C651.969 92.4844 652.143 92.0195 652.143 91.4219V90.8418L651.17 90.8828C650.396 90.9102 649.838 91.0312 649.494 91.2461C649.154 91.457 648.984 91.7871 648.984 92.2363C648.984 92.5879 649.09 92.8555 649.301 93.0391C649.516 93.2227 649.814 93.3145 650.197 93.3145ZM658.113 87.4727C658.957 87.4727 659.611 87.7617 660.076 88.3398C660.545 88.9141 660.779 89.7285 660.779 90.7832C660.779 91.8379 660.543 92.6582 660.07 93.2441C659.602 93.8262 658.949 94.1172 658.113 94.1172C657.695 94.1172 657.312 94.041 656.965 93.8887C656.621 93.7324 656.332 93.4941 656.098 93.1738H656.027L655.822 94H655.125V84.8828H656.098V87.0977C656.098 87.5938 656.082 88.0391 656.051 88.4336H656.098C656.551 87.793 657.223 87.4727 658.113 87.4727ZM657.973 88.2871C657.309 88.2871 656.83 88.4785 656.537 88.8613C656.244 89.2402 656.098 89.8809 656.098 90.7832C656.098 91.6855 656.248 92.332 656.549 92.7227C656.85 93.1094 657.332 93.3027 657.996 93.3027C658.594 93.3027 659.039 93.0859 659.332 92.6523C659.625 92.2148 659.771 91.5879 659.771 90.7715C659.771 89.9355 659.625 89.3125 659.332 88.9023C659.039 88.4922 658.586 88.2871 657.973 88.2871ZM663.457 94H662.484V84.8828H663.457V94ZM668.232 94.1172C667.283 94.1172 666.533 93.8281 665.982 93.25C665.436 92.6719 665.162 91.8691 665.162 90.8418C665.162 89.8066 665.416 88.9844 665.924 88.375C666.436 87.7656 667.121 87.4609 667.98 87.4609C668.785 87.4609 669.422 87.7266 669.891 88.2578C670.359 88.7852 670.594 89.4824 670.594 90.3496V90.9648H666.17C666.189 91.7188 666.379 92.291 666.738 92.6816C667.102 93.0723 667.611 93.2676 668.268 93.2676C668.959 93.2676 669.643 93.123 670.318 92.834V93.7012C669.975 93.8496 669.648 93.9551 669.34 94.0176C669.035 94.084 668.666 94.1172 668.232 94.1172ZM667.969 88.2754C667.453 88.2754 667.041 88.4434 666.732 88.7793C666.428 89.1152 666.248 89.5801 666.193 90.1738H669.551C669.551 89.5605 669.414 89.0918 669.141 88.7676C668.867 88.4395 668.477 88.2754 667.969 88.2754Z" fill="#807E7E"/>
<path d="M513.359 71H511.508V59.5781H517.953V61.1562H513.359V64.7266H517.664V66.3125H513.359V71ZM524.211 62.2031C524.581 62.2031 524.885 62.2292 525.125 62.2812L524.945 63.9922C524.685 63.9297 524.414 63.8984 524.133 63.8984C523.398 63.8984 522.802 64.138 522.344 64.6172C521.891 65.0964 521.664 65.7188 521.664 66.4844V71H519.828V62.3594H521.266L521.508 63.8828H521.602C521.888 63.3672 522.26 62.9583 522.719 62.6562C523.182 62.3542 523.68 62.2031 524.211 62.2031ZM528.57 71H526.734V62.3594H528.57V71ZM526.625 60.0703C526.625 59.7422 526.714 59.4896 526.891 59.3125C527.073 59.1354 527.331 59.0469 527.664 59.0469C527.987 59.0469 528.237 59.1354 528.414 59.3125C528.596 59.4896 528.688 59.7422 528.688 60.0703C528.688 60.3828 528.596 60.6302 528.414 60.8125C528.237 60.9896 527.987 61.0781 527.664 61.0781C527.331 61.0781 527.073 60.9896 526.891 60.8125C526.714 60.6302 526.625 60.3828 526.625 60.0703ZM534.977 71.1562C533.633 71.1562 532.581 70.7656 531.82 69.9844C531.065 69.1979 530.688 68.1172 530.688 66.7422C530.688 65.3307 531.039 64.2214 531.742 63.4141C532.445 62.6068 533.411 62.2031 534.641 62.2031C535.781 62.2031 536.682 62.5495 537.344 63.2422C538.005 63.9349 538.336 64.888 538.336 66.1016V67.0938H532.578C532.604 67.9323 532.831 68.5781 533.258 69.0312C533.685 69.4792 534.286 69.7031 535.062 69.7031C535.573 69.7031 536.047 69.6562 536.484 69.5625C536.927 69.4635 537.401 69.3021 537.906 69.0781V70.5703C537.458 70.7839 537.005 70.9349 536.547 71.0234C536.089 71.112 535.565 71.1562 534.977 71.1562ZM534.641 63.5938C534.057 63.5938 533.589 63.7786 533.234 64.1484C532.885 64.5182 532.677 65.0573 532.609 65.7656H536.531C536.521 65.0521 536.349 64.513 536.016 64.1484C535.682 63.7786 535.224 63.5938 534.641 63.5938ZM548.023 71H546.18V65.6875C546.18 65.0208 546.044 64.5234 545.773 64.1953C545.508 63.8672 545.083 63.7031 544.5 63.7031C543.724 63.7031 543.156 63.9323 542.797 64.3906C542.438 64.849 542.258 65.6172 542.258 66.6953V71H540.422V62.3594H541.859L542.117 63.4922H542.211C542.471 63.0807 542.841 62.763 543.32 62.5391C543.799 62.3151 544.331 62.2031 544.914 62.2031C546.987 62.2031 548.023 63.2578 548.023 65.3672V71ZM553.492 71.1562C552.414 71.1562 551.573 70.7656 550.969 69.9844C550.365 69.2031 550.062 68.1068 550.062 66.6953C550.062 65.2786 550.367 64.1771 550.977 63.3906C551.591 62.599 552.44 62.2031 553.523 62.2031C554.659 62.2031 555.523 62.6224 556.117 63.4609H556.211C556.122 62.8411 556.078 62.3516 556.078 61.9922V58.8438H557.922V71H556.484L556.164 69.8672H556.078C555.49 70.7266 554.628 71.1562 553.492 71.1562ZM553.984 69.6719C554.74 69.6719 555.289 69.4609 555.633 69.0391C555.977 68.612 556.154 67.9219 556.164 66.9688V66.7109C556.164 65.6224 555.987 64.849 555.633 64.3906C555.279 63.9323 554.724 63.7031 553.969 63.7031C553.323 63.7031 552.826 63.9661 552.477 64.4922C552.128 65.013 551.953 65.7578 551.953 66.7266C551.953 67.6849 552.122 68.4167 552.461 68.9219C552.799 69.4219 553.307 69.6719 553.984 69.6719ZM562.383 71H560.547V58.8438H562.383V71ZM563.703 62.3594H565.703L567.461 67.2578C567.727 67.9557 567.904 68.612 567.992 69.2266H568.055C568.102 68.9401 568.188 68.5938 568.312 68.1875C568.438 67.776 569.099 65.8333 570.297 62.3594H572.281L568.586 72.1484C567.914 73.9453 566.794 74.8438 565.227 74.8438C564.82 74.8438 564.424 74.7995 564.039 74.7109V73.2578C564.315 73.3203 564.63 73.3516 564.984 73.3516C565.87 73.3516 566.492 72.8385 566.852 71.8125L567.172 71L563.703 62.3594ZM583.555 68.5391C583.555 69.3828 583.247 70.0312 582.633 70.4844C582.018 70.9323 581.138 71.1562 579.992 71.1562C578.841 71.1562 577.917 70.9818 577.219 70.6328V69.0469C578.234 69.5156 579.18 69.75 580.055 69.75C581.185 69.75 581.75 69.4089 581.75 68.7266C581.75 68.5078 581.688 68.3255 581.562 68.1797C581.438 68.0339 581.232 67.8828 580.945 67.7266C580.659 67.5703 580.26 67.3932 579.75 67.1953C578.755 66.8099 578.081 66.4245 577.727 66.0391C577.378 65.6536 577.203 65.1536 577.203 64.5391C577.203 63.7995 577.5 63.2266 578.094 62.8203C578.693 62.4089 579.505 62.2031 580.531 62.2031C581.547 62.2031 582.508 62.4089 583.414 62.8203L582.82 64.2031C581.888 63.8177 581.104 63.625 580.469 63.625C579.5 63.625 579.016 63.901 579.016 64.4531C579.016 64.724 579.141 64.9531 579.391 65.1406C579.646 65.3281 580.198 65.5859 581.047 65.9141C581.76 66.1901 582.279 66.4427 582.602 66.6719C582.924 66.901 583.164 67.1667 583.32 67.4688C583.477 67.7656 583.555 68.1224 583.555 68.5391ZM591.641 71L591.383 69.8672H591.289C591.034 70.2682 590.669 70.5833 590.195 70.8125C589.727 71.0417 589.19 71.1562 588.586 71.1562C587.539 71.1562 586.758 70.8958 586.242 70.375C585.727 69.8542 585.469 69.0651 585.469 68.0078V62.3594H587.32V67.6875C587.32 68.349 587.456 68.8464 587.727 69.1797C587.997 69.5078 588.422 69.6719 589 69.6719C589.771 69.6719 590.336 69.4427 590.695 68.9844C591.06 68.5208 591.242 67.7474 591.242 66.6641V62.3594H593.086V71H591.641ZM600.086 71.1562C598.992 71.1562 598.143 70.763 597.539 69.9766H597.43C597.503 70.7057 597.539 71.1484 597.539 71.3047V74.8438H595.703V62.3594H597.188C597.229 62.5208 597.315 62.9062 597.445 63.5156H597.539C598.112 62.6406 598.971 62.2031 600.117 62.2031C601.195 62.2031 602.034 62.5938 602.633 63.375C603.237 64.1562 603.539 65.2526 603.539 66.6641C603.539 68.0755 603.232 69.1771 602.617 69.9688C602.008 70.7604 601.164 71.1562 600.086 71.1562ZM599.641 63.7031C598.911 63.7031 598.378 63.9167 598.039 64.3438C597.706 64.7708 597.539 65.4531 597.539 66.3906V66.6641C597.539 67.7161 597.706 68.4792 598.039 68.9531C598.372 69.4219 598.917 69.6562 599.672 69.6562C600.307 69.6562 600.797 69.3958 601.141 68.875C601.484 68.3542 601.656 67.612 601.656 66.6484C601.656 65.6797 601.484 64.9479 601.141 64.4531C600.802 63.9531 600.302 63.7031 599.641 63.7031ZM610.055 71.1562C608.961 71.1562 608.112 70.763 607.508 69.9766H607.398C607.471 70.7057 607.508 71.1484 607.508 71.3047V74.8438H605.672V62.3594H607.156C607.198 62.5208 607.284 62.9062 607.414 63.5156H607.508C608.081 62.6406 608.94 62.2031 610.086 62.2031C611.164 62.2031 612.003 62.5938 612.602 63.375C613.206 64.1562 613.508 65.2526 613.508 66.6641C613.508 68.0755 613.201 69.1771 612.586 69.9688C611.977 70.7604 611.133 71.1562 610.055 71.1562ZM609.609 63.7031C608.88 63.7031 608.346 63.9167 608.008 64.3438C607.674 64.7708 607.508 65.4531 607.508 66.3906V66.6641C607.508 67.7161 607.674 68.4792 608.008 68.9531C608.341 69.4219 608.885 69.6562 609.641 69.6562C610.276 69.6562 610.766 69.3958 611.109 68.875C611.453 68.3542 611.625 67.612 611.625 66.6484C611.625 65.6797 611.453 64.9479 611.109 64.4531C610.771 63.9531 610.271 63.7031 609.609 63.7031ZM623.305 66.6641C623.305 68.0755 622.943 69.1771 622.219 69.9688C621.495 70.7604 620.487 71.1562 619.195 71.1562C618.388 71.1562 617.674 70.974 617.055 70.6094C616.435 70.2448 615.958 69.7214 615.625 69.0391C615.292 68.3568 615.125 67.5651 615.125 66.6641C615.125 65.263 615.484 64.1693 616.203 63.3828C616.922 62.5964 617.935 62.2031 619.242 62.2031C620.492 62.2031 621.482 62.6068 622.211 63.4141C622.94 64.2161 623.305 65.2995 623.305 66.6641ZM617.016 66.6641C617.016 68.6589 617.753 69.6562 619.227 69.6562C620.685 69.6562 621.414 68.6589 621.414 66.6641C621.414 64.6901 620.68 63.7031 619.211 63.7031C618.44 63.7031 617.88 63.9583 617.531 64.4688C617.188 64.9792 617.016 65.7109 617.016 66.6641ZM629.805 62.2031C630.174 62.2031 630.479 62.2292 630.719 62.2812L630.539 63.9922C630.279 63.9297 630.008 63.8984 629.727 63.8984C628.992 63.8984 628.396 64.138 627.938 64.6172C627.484 65.0964 627.258 65.7188 627.258 66.4844V71H625.422V62.3594H626.859L627.102 63.8828H627.195C627.482 63.3672 627.854 62.9583 628.312 62.6562C628.776 62.3542 629.273 62.2031 629.805 62.2031ZM635.547 69.6719C635.995 69.6719 636.443 69.6016 636.891 69.4609V70.8438C636.688 70.9323 636.424 71.0052 636.102 71.0625C635.784 71.125 635.453 71.1562 635.109 71.1562C633.37 71.1562 632.5 70.2396 632.5 68.4062V63.75H631.32V62.9375L632.586 62.2656L633.211 60.4375H634.344V62.3594H636.805V63.75H634.344V68.375C634.344 68.8177 634.453 69.1458 634.672 69.3594C634.896 69.5677 635.188 69.6719 635.547 69.6719Z" fill="#212121"/>
<path fill-rule="evenodd" clip-rule="evenodd" d="M446.876 63.481C447.241 62.286 448.352 61.4166 449.667 61.4166H482.333C483.648 61.4166 484.759 62.286 485.124 63.481L466 76.2301L446.876 63.481ZM443.25 64.3012C443.25 64.3199 443.25 64.3386 443.25 64.3572V87.6666C443.25 91.2105 446.123 94.0833 449.667 94.0833H482.333C485.877 94.0833 488.75 91.2105 488.75 87.6666V64.3572M485.25 67.6032V87.6666C485.25 89.2775 483.944 90.5833 482.333 90.5833H449.667C448.056 90.5833 446.75 89.2775 446.75 87.6666V67.6032L465.029 79.7894C465.617 80.1813 466.383 80.1813 466.971 79.7894L485.25 67.6032ZM488.75 64.3013C488.733 60.7722 485.866 57.9166 482.333 57.9166H449.667C446.134 57.9166 443.267 60.7722 443.25 64.3012" fill="#212121"/>
</g>
<g clip-path="url(#clip1_878_100418)">
<path d="M141.895 87.4492C141.895 87.9961 141.74 88.4434 141.432 88.791C141.127 89.1387 140.693 89.3711 140.131 89.4883V89.5352C140.818 89.6211 141.328 89.8398 141.66 90.1914C141.992 90.543 142.158 91.0039 142.158 91.5742C142.158 92.3906 141.875 93.0195 141.309 93.4609C140.742 93.8984 139.938 94.1172 138.895 94.1172C138.441 94.1172 138.025 94.082 137.646 94.0117C137.271 93.9453 136.906 93.8262 136.551 93.6543V92.7285C136.922 92.9121 137.316 93.0527 137.734 93.1504C138.156 93.2441 138.555 93.291 138.93 93.291C140.41 93.291 141.15 92.7109 141.15 91.5508C141.15 90.5117 140.334 89.9922 138.701 89.9922H137.857V89.1543H138.713C139.381 89.1543 139.91 89.0078 140.301 88.7148C140.691 88.418 140.887 88.0078 140.887 87.4844C140.887 87.0664 140.742 86.7383 140.453 86.5C140.168 86.2617 139.779 86.1426 139.287 86.1426C138.912 86.1426 138.559 86.1934 138.227 86.2949C137.895 86.3965 137.516 86.584 137.09 86.8574L136.598 86.2012C136.949 85.9238 137.354 85.707 137.811 85.5508C138.271 85.3906 138.756 85.3105 139.264 85.3105C140.096 85.3105 140.742 85.502 141.203 85.8848C141.664 86.2637 141.895 86.7852 141.895 87.4492ZM151.387 93.1387H151.334C150.885 93.791 150.213 94.1172 149.318 94.1172C148.479 94.1172 147.824 93.8301 147.355 93.2559C146.891 92.6816 146.658 91.8652 146.658 90.8066C146.658 89.748 146.893 88.9258 147.361 88.3398C147.83 87.7539 148.482 87.4609 149.318 87.4609C150.189 87.4609 150.857 87.7773 151.322 88.4102H151.398L151.357 87.9473L151.334 87.4961V84.8828H152.307V94H151.516L151.387 93.1387ZM149.441 93.3027C150.105 93.3027 150.586 93.123 150.883 92.7637C151.184 92.4004 151.334 91.8164 151.334 91.0117V90.8066C151.334 89.8965 151.182 89.248 150.877 88.8613C150.576 88.4707 150.094 88.2754 149.43 88.2754C148.859 88.2754 148.422 88.498 148.117 88.9434C147.816 89.3848 147.666 90.0098 147.666 90.8184C147.666 91.6387 147.816 92.2578 148.117 92.6758C148.418 93.0938 148.859 93.3027 149.441 93.3027ZM158.324 94L158.131 93.0859H158.084C157.764 93.4883 157.443 93.7617 157.123 93.9062C156.807 94.0469 156.41 94.1172 155.934 94.1172C155.297 94.1172 154.797 93.9531 154.434 93.625C154.074 93.2969 153.895 92.8301 153.895 92.2246C153.895 90.9277 154.932 90.248 157.006 90.1855L158.096 90.1504V89.752C158.096 89.248 157.986 88.877 157.768 88.6387C157.553 88.3965 157.207 88.2754 156.73 88.2754C156.195 88.2754 155.59 88.4395 154.914 88.7676L154.615 88.0234C154.932 87.8516 155.277 87.7168 155.652 87.6191C156.031 87.5215 156.41 87.4727 156.789 87.4727C157.555 87.4727 158.121 87.6426 158.488 87.9824C158.859 88.3223 159.045 88.8672 159.045 89.6172V94H158.324ZM156.127 93.3145C156.732 93.3145 157.207 93.1484 157.551 92.8164C157.898 92.4844 158.072 92.0195 158.072 91.4219V90.8418L157.1 90.8828C156.326 90.9102 155.768 91.0312 155.424 91.2461C155.084 91.457 154.914 91.7871 154.914 92.2363C154.914 92.5879 155.02 92.8555 155.23 93.0391C155.445 93.2227 155.744 93.3145 156.127 93.3145ZM160.035 87.5781H161.078L162.484 91.2402C162.793 92.0762 162.984 92.6797 163.059 93.0508H163.105C163.156 92.8516 163.262 92.5117 163.422 92.0312C163.586 91.5469 164.117 90.0625 165.016 87.5781H166.059L163.299 94.8906C163.025 95.6133 162.705 96.125 162.338 96.4258C161.975 96.7305 161.527 96.8828 160.996 96.8828C160.699 96.8828 160.406 96.8496 160.117 96.7832V96.0039C160.332 96.0508 160.572 96.0742 160.838 96.0742C161.506 96.0742 161.982 95.6992 162.268 94.9492L162.625 94.0352L160.035 87.5781ZM171.244 92.248C171.244 92.8457 171.021 93.3066 170.576 93.6309C170.131 93.9551 169.506 94.1172 168.701 94.1172C167.85 94.1172 167.186 93.9824 166.709 93.7129V92.8105C167.018 92.9668 167.348 93.0898 167.699 93.1797C168.055 93.2695 168.396 93.3145 168.725 93.3145C169.232 93.3145 169.623 93.2344 169.896 93.0742C170.17 92.9102 170.307 92.6621 170.307 92.3301C170.307 92.0801 170.197 91.8672 169.979 91.6914C169.764 91.5117 169.342 91.3008 168.713 91.0586C168.115 90.8359 167.689 90.6426 167.436 90.4785C167.186 90.3105 166.998 90.1211 166.873 89.9102C166.752 89.6992 166.691 89.4473 166.691 89.1543C166.691 88.6309 166.904 88.2188 167.33 87.918C167.756 87.6133 168.34 87.4609 169.082 87.4609C169.773 87.4609 170.449 87.6016 171.109 87.8828L170.764 88.6738C170.119 88.4082 169.535 88.2754 169.012 88.2754C168.551 88.2754 168.203 88.3477 167.969 88.4922C167.734 88.6367 167.617 88.8359 167.617 89.0898C167.617 89.2617 167.66 89.4082 167.746 89.5293C167.836 89.6504 167.979 89.7656 168.174 89.875C168.369 89.9844 168.744 90.1426 169.299 90.3496C170.061 90.627 170.574 90.9062 170.84 91.1875C171.109 91.4688 171.244 91.8223 171.244 92.248ZM181.205 87.5781V88.1934L180.016 88.334C180.125 88.4707 180.223 88.6504 180.309 88.873C180.395 89.0918 180.438 89.3398 180.438 89.6172C180.438 90.2461 180.223 90.748 179.793 91.123C179.363 91.498 178.773 91.6855 178.023 91.6855C177.832 91.6855 177.652 91.6699 177.484 91.6387C177.07 91.8574 176.863 92.1328 176.863 92.4648C176.863 92.6406 176.936 92.7715 177.08 92.8574C177.225 92.9395 177.473 92.9805 177.824 92.9805H178.961C179.656 92.9805 180.189 93.127 180.561 93.4199C180.936 93.7129 181.123 94.1387 181.123 94.6973C181.123 95.4082 180.838 95.9492 180.268 96.3203C179.697 96.6953 178.865 96.8828 177.771 96.8828C176.932 96.8828 176.283 96.7266 175.826 96.4141C175.373 96.1016 175.146 95.6602 175.146 95.0898C175.146 94.6992 175.271 94.3613 175.521 94.0762C175.771 93.791 176.123 93.5977 176.576 93.4961C176.412 93.4219 176.273 93.3066 176.16 93.1504C176.051 92.9941 175.996 92.8125 175.996 92.6055C175.996 92.3711 176.059 92.166 176.184 91.9902C176.309 91.8145 176.506 91.6445 176.775 91.4805C176.443 91.3438 176.172 91.1113 175.961 90.7832C175.754 90.4551 175.65 90.0801 175.65 89.6582C175.65 88.9551 175.861 88.4141 176.283 88.0352C176.705 87.6523 177.303 87.4609 178.076 87.4609C178.412 87.4609 178.715 87.5 178.984 87.5781H181.205ZM176.084 95.0781C176.084 95.4258 176.23 95.6895 176.523 95.8691C176.816 96.0488 177.236 96.1387 177.783 96.1387C178.6 96.1387 179.203 96.0156 179.594 95.7695C179.988 95.5273 180.186 95.1973 180.186 94.7793C180.186 94.4316 180.078 94.1895 179.863 94.0527C179.648 93.9199 179.244 93.8535 178.65 93.8535H177.484C177.043 93.8535 176.699 93.959 176.453 94.1699C176.207 94.3809 176.084 94.6836 176.084 95.0781ZM176.611 89.6348C176.611 90.084 176.738 90.4238 176.992 90.6543C177.246 90.8848 177.6 91 178.053 91C179.002 91 179.477 90.5391 179.477 89.6172C179.477 88.6523 178.996 88.1699 178.035 88.1699C177.578 88.1699 177.227 88.293 176.98 88.5391C176.734 88.7852 176.611 89.1504 176.611 89.6348ZM183.438 87.5781V91.7441C183.438 92.2676 183.557 92.6582 183.795 92.916C184.033 93.1738 184.406 93.3027 184.914 93.3027C185.586 93.3027 186.076 93.1191 186.385 92.752C186.697 92.3848 186.854 91.7852 186.854 90.9531V87.5781H187.826V94H187.023L186.883 93.1387H186.83C186.631 93.4551 186.354 93.6973 185.998 93.8652C185.646 94.0332 185.244 94.1172 184.791 94.1172C184.01 94.1172 183.424 93.9316 183.033 93.5605C182.646 93.1895 182.453 92.5957 182.453 91.7793V87.5781H183.438ZM192.824 87.4609C193.109 87.4609 193.365 87.4844 193.592 87.5312L193.457 88.4336C193.191 88.375 192.957 88.3457 192.754 88.3457C192.234 88.3457 191.789 88.5566 191.418 88.9785C191.051 89.4004 190.867 89.9258 190.867 90.5547V94H189.895V87.5781H190.697L190.809 88.7676H190.855C191.094 88.3496 191.381 88.0273 191.717 87.8008C192.053 87.5742 192.422 87.4609 192.824 87.4609ZM198.742 94L198.549 93.0859H198.502C198.182 93.4883 197.861 93.7617 197.541 93.9062C197.225 94.0469 196.828 94.1172 196.352 94.1172C195.715 94.1172 195.215 93.9531 194.852 93.625C194.492 93.2969 194.312 92.8301 194.312 92.2246C194.312 90.9277 195.35 90.248 197.424 90.1855L198.514 90.1504V89.752C198.514 89.248 198.404 88.877 198.186 88.6387C197.971 88.3965 197.625 88.2754 197.148 88.2754C196.613 88.2754 196.008 88.4395 195.332 88.7676L195.033 88.0234C195.35 87.8516 195.695 87.7168 196.07 87.6191C196.449 87.5215 196.828 87.4727 197.207 87.4727C197.973 87.4727 198.539 87.6426 198.906 87.9824C199.277 88.3223 199.463 88.8672 199.463 89.6172V94H198.742ZM196.545 93.3145C197.15 93.3145 197.625 93.1484 197.969 92.8164C198.316 92.4844 198.49 92.0195 198.49 91.4219V90.8418L197.518 90.8828C196.744 90.9102 196.186 91.0312 195.842 91.2461C195.502 91.457 195.332 91.7871 195.332 92.2363C195.332 92.5879 195.438 92.8555 195.648 93.0391C195.863 93.2227 196.162 93.3145 196.545 93.3145ZM205.867 94V89.8457C205.867 89.3223 205.748 88.9316 205.51 88.6738C205.271 88.416 204.898 88.2871 204.391 88.2871C203.719 88.2871 203.227 88.4688 202.914 88.832C202.602 89.1953 202.445 89.7949 202.445 90.6309V94H201.473V87.5781H202.264L202.422 88.457H202.469C202.668 88.1406 202.947 87.8965 203.307 87.7246C203.666 87.5488 204.066 87.4609 204.508 87.4609C205.281 87.4609 205.863 87.6484 206.254 88.0234C206.645 88.3945 206.84 88.9902 206.84 89.8105V94H205.867ZM210.918 93.3145C211.09 93.3145 211.256 93.3027 211.416 93.2793C211.576 93.252 211.703 93.2246 211.797 93.1973V93.9414C211.691 93.9922 211.535 94.0332 211.328 94.0645C211.125 94.0996 210.941 94.1172 210.777 94.1172C209.535 94.1172 208.914 93.4629 208.914 92.1543V88.334H207.994V87.8652L208.914 87.4609L209.324 86.0898H209.887V87.5781H211.75V88.334H209.887V92.1133C209.887 92.5 209.979 92.7969 210.162 93.0039C210.346 93.2109 210.598 93.3145 210.918 93.3145ZM215.799 94.1172C214.85 94.1172 214.1 93.8281 213.549 93.25C213.002 92.6719 212.729 91.8691 212.729 90.8418C212.729 89.8066 212.982 88.9844 213.49 88.375C214.002 87.7656 214.688 87.4609 215.547 87.4609C216.352 87.4609 216.988 87.7266 217.457 88.2578C217.926 88.7852 218.16 89.4824 218.16 90.3496V90.9648H213.736C213.756 91.7188 213.945 92.291 214.305 92.6816C214.668 93.0723 215.178 93.2676 215.834 93.2676C216.525 93.2676 217.209 93.123 217.885 92.834V93.7012C217.541 93.8496 217.215 93.9551 216.906 94.0176C216.602 94.084 216.232 94.1172 215.799 94.1172ZM215.535 88.2754C215.02 88.2754 214.607 88.4434 214.299 88.7793C213.994 89.1152 213.814 89.5801 213.76 90.1738H217.117C217.117 89.5605 216.98 89.0918 216.707 88.7676C216.434 88.4395 216.043 88.2754 215.535 88.2754ZM222.537 94.1172C221.588 94.1172 220.838 93.8281 220.287 93.25C219.74 92.6719 219.467 91.8691 219.467 90.8418C219.467 89.8066 219.721 88.9844 220.229 88.375C220.74 87.7656 221.426 87.4609 222.285 87.4609C223.09 87.4609 223.727 87.7266 224.195 88.2578C224.664 88.7852 224.898 89.4824 224.898 90.3496V90.9648H220.475C220.494 91.7188 220.684 92.291 221.043 92.6816C221.406 93.0723 221.916 93.2676 222.572 93.2676C223.264 93.2676 223.947 93.123 224.623 92.834V93.7012C224.279 93.8496 223.953 93.9551 223.645 94.0176C223.34 94.084 222.971 94.1172 222.537 94.1172ZM222.273 88.2754C221.758 88.2754 221.346 88.4434 221.037 88.7793C220.732 89.1152 220.553 89.5801 220.498 90.1738H223.855C223.855 89.5605 223.719 89.0918 223.445 88.7676C223.172 88.4395 222.781 88.2754 222.273 88.2754ZM230.934 93.1387H230.881C230.432 93.791 229.76 94.1172 228.865 94.1172C228.025 94.1172 227.371 93.8301 226.902 93.2559C226.438 92.6816 226.205 91.8652 226.205 90.8066C226.205 89.748 226.439 88.9258 226.908 88.3398C227.377 87.7539 228.029 87.4609 228.865 87.4609C229.736 87.4609 230.404 87.7773 230.869 88.4102H230.945L230.904 87.9473L230.881 87.4961V84.8828H231.854V94H231.062L230.934 93.1387ZM228.988 93.3027C229.652 93.3027 230.133 93.123 230.43 92.7637C230.73 92.4004 230.881 91.8164 230.881 91.0117V90.8066C230.881 89.8965 230.729 89.248 230.424 88.8613C230.123 88.4707 229.641 88.2754 228.977 88.2754C228.406 88.2754 227.969 88.498 227.664 88.9434C227.363 89.3848 227.213 90.0098 227.213 90.8184C227.213 91.6387 227.363 92.2578 227.664 92.6758C227.965 93.0938 228.406 93.3027 228.988 93.3027ZM241.41 93.1387H241.357C240.908 93.791 240.236 94.1172 239.342 94.1172C238.502 94.1172 237.848 93.8301 237.379 93.2559C236.914 92.6816 236.682 91.8652 236.682 90.8066C236.682 89.748 236.916 88.9258 237.385 88.3398C237.854 87.7539 238.506 87.4609 239.342 87.4609C240.213 87.4609 240.881 87.7773 241.346 88.4102H241.422L241.381 87.9473L241.357 87.4961V84.8828H242.33V94H241.539L241.41 93.1387ZM239.465 93.3027C240.129 93.3027 240.609 93.123 240.906 92.7637C241.207 92.4004 241.357 91.8164 241.357 91.0117V90.8066C241.357 89.8965 241.205 89.248 240.9 88.8613C240.6 88.4707 240.117 88.2754 239.453 88.2754C238.883 88.2754 238.445 88.498 238.141 88.9434C237.84 89.3848 237.689 90.0098 237.689 90.8184C237.689 91.6387 237.84 92.2578 238.141 92.6758C238.441 93.0938 238.883 93.3027 239.465 93.3027ZM247.111 94.1172C246.162 94.1172 245.412 93.8281 244.861 93.25C244.314 92.6719 244.041 91.8691 244.041 90.8418C244.041 89.8066 244.295 88.9844 244.803 88.375C245.314 87.7656 246 87.4609 246.859 87.4609C247.664 87.4609 248.301 87.7266 248.77 88.2578C249.238 88.7852 249.473 89.4824 249.473 90.3496V90.9648H245.049C245.068 91.7188 245.258 92.291 245.617 92.6816C245.98 93.0723 246.49 93.2676 247.146 93.2676C247.838 93.2676 248.521 93.123 249.197 92.834V93.7012C248.854 93.8496 248.527 93.9551 248.219 94.0176C247.914 94.084 247.545 94.1172 247.111 94.1172ZM246.848 88.2754C246.332 88.2754 245.92 88.4434 245.611 88.7793C245.307 89.1152 245.127 89.5801 245.072 90.1738H248.43C248.43 89.5605 248.293 89.0918 248.02 88.7676C247.746 88.4395 247.355 88.2754 246.848 88.2754ZM252.109 94H251.137V84.8828H252.109V94ZM255.145 94H254.172V87.5781H255.145V94ZM254.09 85.8379C254.09 85.6152 254.145 85.4531 254.254 85.3516C254.363 85.2461 254.5 85.1934 254.664 85.1934C254.82 85.1934 254.955 85.2461 255.068 85.3516C255.182 85.457 255.238 85.6191 255.238 85.8379C255.238 86.0566 255.182 86.2207 255.068 86.3301C254.955 86.4355 254.82 86.4883 254.664 86.4883C254.5 86.4883 254.363 86.4355 254.254 86.3301C254.145 86.2207 254.09 86.0566 254.09 85.8379ZM258.613 94L256.176 87.5781H257.219L258.602 91.3867C258.914 92.2773 259.098 92.8555 259.152 93.1211H259.199C259.242 92.9141 259.377 92.4863 259.604 91.8379C259.834 91.1855 260.348 89.7656 261.145 87.5781H262.188L259.75 94H258.613ZM265.932 94.1172C264.982 94.1172 264.232 93.8281 263.682 93.25C263.135 92.6719 262.861 91.8691 262.861 90.8418C262.861 89.8066 263.115 88.9844 263.623 88.375C264.135 87.7656 264.82 87.4609 265.68 87.4609C266.484 87.4609 267.121 87.7266 267.59 88.2578C268.059 88.7852 268.293 89.4824 268.293 90.3496V90.9648H263.869C263.889 91.7188 264.078 92.291 264.438 92.6816C264.801 93.0723 265.311 93.2676 265.967 93.2676C266.658 93.2676 267.342 93.123 268.018 92.834V93.7012C267.674 93.8496 267.348 93.9551 267.039 94.0176C266.734 94.084 266.365 94.1172 265.932 94.1172ZM265.668 88.2754C265.152 88.2754 264.74 88.4434 264.432 88.7793C264.127 89.1152 263.947 89.5801 263.893 90.1738H267.25C267.25 89.5605 267.113 89.0918 266.84 88.7676C266.566 88.4395 266.176 88.2754 265.668 88.2754ZM272.887 87.4609C273.172 87.4609 273.428 87.4844 273.654 87.5312L273.52 88.4336C273.254 88.375 273.02 88.3457 272.816 88.3457C272.297 88.3457 271.852 88.5566 271.48 88.9785C271.113 89.4004 270.93 89.9258 270.93 90.5547V94H269.957V87.5781H270.76L270.871 88.7676H270.918C271.156 88.3496 271.443 88.0273 271.779 87.8008C272.115 87.5742 272.484 87.4609 272.887 87.4609ZM273.836 87.5781H274.879L276.285 91.2402C276.594 92.0762 276.785 92.6797 276.859 93.0508H276.906C276.957 92.8516 277.062 92.5117 277.223 92.0312C277.387 91.5469 277.918 90.0625 278.816 87.5781H279.859L277.1 94.8906C276.826 95.6133 276.506 96.125 276.139 96.4258C275.775 96.7305 275.328 96.8828 274.797 96.8828C274.5 96.8828 274.207 96.8496 273.918 96.7832V96.0039C274.133 96.0508 274.373 96.0742 274.639 96.0742C275.307 96.0742 275.783 95.6992 276.068 94.9492L276.426 94.0352L273.836 87.5781Z" fill="#807E7E"/>
<path d="M139.359 71H137.508V59.5781H143.953V61.1562H139.359V64.7266H143.664V66.3125H139.359V71ZM151.234 71L150.867 69.7969H150.805C150.388 70.3229 149.969 70.6823 149.547 70.875C149.125 71.0625 148.583 71.1562 147.922 71.1562C147.073 71.1562 146.409 70.9271 145.93 70.4688C145.456 70.0104 145.219 69.362 145.219 68.5234C145.219 67.6328 145.549 66.9609 146.211 66.5078C146.872 66.0547 147.88 65.8073 149.234 65.7656L150.727 65.7188V65.2578C150.727 64.7057 150.596 64.2943 150.336 64.0234C150.081 63.7474 149.682 63.6094 149.141 63.6094C148.698 63.6094 148.273 63.6745 147.867 63.8047C147.461 63.9349 147.07 64.0885 146.695 64.2656L146.102 62.9531C146.57 62.7083 147.083 62.5234 147.641 62.3984C148.198 62.2682 148.724 62.2031 149.219 62.2031C150.318 62.2031 151.146 62.4427 151.703 62.9219C152.266 63.401 152.547 64.1536 152.547 65.1797V71H151.234ZM148.5 69.75C149.167 69.75 149.701 69.5651 150.102 69.1953C150.508 68.8203 150.711 68.2969 150.711 67.625V66.875L149.602 66.9219C148.737 66.9531 148.107 67.099 147.711 67.3594C147.32 67.6146 147.125 68.0078 147.125 68.5391C147.125 68.9245 147.24 69.224 147.469 69.4375C147.698 69.6458 148.042 69.75 148.5 69.75ZM160.914 68.5391C160.914 69.3828 160.607 70.0312 159.992 70.4844C159.378 70.9323 158.497 71.1562 157.352 71.1562C156.201 71.1562 155.276 70.9818 154.578 70.6328V69.0469C155.594 69.5156 156.539 69.75 157.414 69.75C158.544 69.75 159.109 69.4089 159.109 68.7266C159.109 68.5078 159.047 68.3255 158.922 68.1797C158.797 68.0339 158.591 67.8828 158.305 67.7266C158.018 67.5703 157.62 67.3932 157.109 67.1953C156.115 66.8099 155.44 66.4245 155.086 66.0391C154.737 65.6536 154.562 65.1536 154.562 64.5391C154.562 63.7995 154.859 63.2266 155.453 62.8203C156.052 62.4089 156.865 62.2031 157.891 62.2031C158.906 62.2031 159.867 62.4089 160.773 62.8203L160.18 64.2031C159.247 63.8177 158.464 63.625 157.828 63.625C156.859 63.625 156.375 63.901 156.375 64.4531C156.375 64.724 156.5 64.9531 156.75 65.1406C157.005 65.3281 157.557 65.5859 158.406 65.9141C159.12 66.1901 159.638 66.4427 159.961 66.6719C160.284 66.901 160.523 67.1667 160.68 67.4688C160.836 67.7656 160.914 68.1224 160.914 68.5391ZM166.125 69.6719C166.573 69.6719 167.021 69.6016 167.469 69.4609V70.8438C167.266 70.9323 167.003 71.0052 166.68 71.0625C166.362 71.125 166.031 71.1562 165.688 71.1562C163.948 71.1562 163.078 70.2396 163.078 68.4062V63.75H161.898V62.9375L163.164 62.2656L163.789 60.4375H164.922V62.3594H167.383V63.75H164.922V68.375C164.922 68.8177 165.031 69.1458 165.25 69.3594C165.474 69.5677 165.766 69.6719 166.125 69.6719ZM180.141 67.8984C180.141 68.9141 179.773 69.7109 179.039 70.2891C178.305 70.8672 177.292 71.1562 176 71.1562C174.708 71.1562 173.651 70.9557 172.828 70.5547V68.7891C173.349 69.0339 173.901 69.2266 174.484 69.3672C175.073 69.5078 175.62 69.5781 176.125 69.5781C176.865 69.5781 177.409 69.4375 177.758 69.1562C178.112 68.875 178.289 68.4974 178.289 68.0234C178.289 67.5964 178.128 67.2344 177.805 66.9375C177.482 66.6406 176.815 66.2891 175.805 65.8828C174.763 65.4609 174.029 64.9792 173.602 64.4375C173.174 63.8958 172.961 63.2448 172.961 62.4844C172.961 61.5312 173.299 60.7812 173.977 60.2344C174.654 59.6875 175.562 59.4141 176.703 59.4141C177.797 59.4141 178.885 59.6536 179.969 60.1328L179.375 61.6562C178.359 61.2292 177.453 61.0156 176.656 61.0156C176.052 61.0156 175.594 61.1484 175.281 61.4141C174.969 61.6745 174.812 62.0208 174.812 62.4531C174.812 62.75 174.875 63.0052 175 63.2188C175.125 63.4271 175.331 63.625 175.617 63.8125C175.904 64 176.419 64.2474 177.164 64.5547C178.003 64.9036 178.617 65.2292 179.008 65.5312C179.398 65.8333 179.685 66.1745 179.867 66.5547C180.049 66.9349 180.141 67.3828 180.141 67.8984ZM189.758 71H187.914V65.6875C187.914 65.0208 187.779 64.5234 187.508 64.1953C187.242 63.8672 186.818 63.7031 186.234 63.7031C185.464 63.7031 184.896 63.9349 184.531 64.3984C184.172 64.8568 183.992 65.6276 183.992 66.7109V71H182.156V58.8438H183.992V61.9297C183.992 62.4245 183.961 62.9531 183.898 63.5156H184.016C184.266 63.099 184.612 62.776 185.055 62.5469C185.503 62.3177 186.023 62.2031 186.617 62.2031C188.711 62.2031 189.758 63.2578 189.758 65.3672V71ZM194.148 71H192.312V62.3594H194.148V71ZM192.203 60.0703C192.203 59.7422 192.292 59.4896 192.469 59.3125C192.651 59.1354 192.909 59.0469 193.242 59.0469C193.565 59.0469 193.815 59.1354 193.992 59.3125C194.174 59.4896 194.266 59.7422 194.266 60.0703C194.266 60.3828 194.174 60.6302 193.992 60.8125C193.815 60.9896 193.565 61.0781 193.242 61.0781C192.909 61.0781 192.651 60.9896 192.469 60.8125C192.292 60.6302 192.203 60.3828 192.203 60.0703ZM201.164 71.1562C200.07 71.1562 199.221 70.763 198.617 69.9766H198.508C198.581 70.7057 198.617 71.1484 198.617 71.3047V74.8438H196.781V62.3594H198.266C198.307 62.5208 198.393 62.9062 198.523 63.5156H198.617C199.19 62.6406 200.049 62.2031 201.195 62.2031C202.273 62.2031 203.112 62.5938 203.711 63.375C204.315 64.1562 204.617 65.2526 204.617 66.6641C204.617 68.0755 204.31 69.1771 203.695 69.9688C203.086 70.7604 202.242 71.1562 201.164 71.1562ZM200.719 63.7031C199.99 63.7031 199.456 63.9167 199.117 64.3438C198.784 64.7708 198.617 65.4531 198.617 66.3906V66.6641C198.617 67.7161 198.784 68.4792 199.117 68.9531C199.451 69.4219 199.995 69.6562 200.75 69.6562C201.385 69.6562 201.875 69.3958 202.219 68.875C202.562 68.3542 202.734 67.612 202.734 66.6484C202.734 65.6797 202.562 64.9479 202.219 64.4531C201.88 63.9531 201.38 63.7031 200.719 63.7031ZM211.133 71.1562C210.039 71.1562 209.19 70.763 208.586 69.9766H208.477C208.549 70.7057 208.586 71.1484 208.586 71.3047V74.8438H206.75V62.3594H208.234C208.276 62.5208 208.362 62.9062 208.492 63.5156H208.586C209.159 62.6406 210.018 62.2031 211.164 62.2031C212.242 62.2031 213.081 62.5938 213.68 63.375C214.284 64.1562 214.586 65.2526 214.586 66.6641C214.586 68.0755 214.279 69.1771 213.664 69.9688C213.055 70.7604 212.211 71.1562 211.133 71.1562ZM210.688 63.7031C209.958 63.7031 209.424 63.9167 209.086 64.3438C208.753 64.7708 208.586 65.4531 208.586 66.3906V66.6641C208.586 67.7161 208.753 68.4792 209.086 68.9531C209.419 69.4219 209.964 69.6562 210.719 69.6562C211.354 69.6562 211.844 69.3958 212.188 68.875C212.531 68.3542 212.703 67.612 212.703 66.6484C212.703 65.6797 212.531 64.9479 212.188 64.4531C211.849 63.9531 211.349 63.7031 210.688 63.7031ZM218.555 71H216.719V62.3594H218.555V71ZM216.609 60.0703C216.609 59.7422 216.698 59.4896 216.875 59.3125C217.057 59.1354 217.315 59.0469 217.648 59.0469C217.971 59.0469 218.221 59.1354 218.398 59.3125C218.581 59.4896 218.672 59.7422 218.672 60.0703C218.672 60.3828 218.581 60.6302 218.398 60.8125C218.221 60.9896 217.971 61.0781 217.648 61.0781C217.315 61.0781 217.057 60.9896 216.875 60.8125C216.698 60.6302 216.609 60.3828 216.609 60.0703ZM228.789 71H226.945V65.6875C226.945 65.0208 226.81 64.5234 226.539 64.1953C226.273 63.8672 225.849 63.7031 225.266 63.7031C224.49 63.7031 223.922 63.9323 223.562 64.3906C223.203 64.849 223.023 65.6172 223.023 66.6953V71H221.188V62.3594H222.625L222.883 63.4922H222.977C223.237 63.0807 223.607 62.763 224.086 62.5391C224.565 62.3151 225.096 62.2031 225.68 62.2031C227.753 62.2031 228.789 63.2578 228.789 65.3672V71ZM238.641 62.3594V63.3672L237.164 63.6406C237.299 63.8229 237.411 64.0469 237.5 64.3125C237.589 64.5781 237.633 64.8594 237.633 65.1562C237.633 66.0469 237.326 66.7474 236.711 67.2578C236.096 67.7682 235.25 68.0234 234.172 68.0234C233.896 68.0234 233.646 68.0026 233.422 67.9609C233.026 68.2057 232.828 68.4922 232.828 68.8203C232.828 69.0182 232.919 69.1667 233.102 69.2656C233.289 69.3646 233.63 69.4141 234.125 69.4141H235.633C236.586 69.4141 237.31 69.6172 237.805 70.0234C238.299 70.4297 238.547 71.0156 238.547 71.7812C238.547 72.7604 238.143 73.5156 237.336 74.0469C236.529 74.5781 235.362 74.8438 233.836 74.8438C232.659 74.8438 231.76 74.6354 231.141 74.2188C230.521 73.8021 230.211 73.2083 230.211 72.4375C230.211 71.9062 230.378 71.4583 230.711 71.0938C231.049 70.7344 231.521 70.4844 232.125 70.3438C231.88 70.2396 231.677 70.0729 231.516 69.8438C231.359 69.6094 231.281 69.3646 231.281 69.1094C231.281 68.7865 231.372 68.513 231.555 68.2891C231.737 68.0651 232.008 67.8438 232.367 67.625C231.919 67.4323 231.555 67.1198 231.273 66.6875C230.997 66.25 230.859 65.7396 230.859 65.1562C230.859 64.2188 231.154 63.4922 231.742 62.9766C232.336 62.4609 233.18 62.2031 234.273 62.2031C234.518 62.2031 234.773 62.2214 235.039 62.2578C235.31 62.2891 235.513 62.3229 235.648 62.3594H238.641ZM231.852 72.3438C231.852 72.7396 232.029 73.0443 232.383 73.2578C232.742 73.4714 233.245 73.5781 233.891 73.5781C234.891 73.5781 235.635 73.4349 236.125 73.1484C236.615 72.862 236.859 72.4818 236.859 72.0078C236.859 71.6328 236.724 71.3646 236.453 71.2031C236.188 71.0469 235.69 70.9688 234.961 70.9688H233.57C233.044 70.9688 232.625 71.0911 232.312 71.3359C232.005 71.5859 231.852 71.9219 231.852 72.3438ZM232.641 65.1562C232.641 65.6979 232.779 66.1146 233.055 66.4062C233.336 66.6979 233.737 66.8438 234.258 66.8438C235.32 66.8438 235.852 66.276 235.852 65.1406C235.852 64.5781 235.719 64.1458 235.453 63.8438C235.193 63.5365 234.794 63.3828 234.258 63.3828C233.727 63.3828 233.323 63.5339 233.047 63.8359C232.776 64.138 232.641 64.5781 232.641 65.1562Z" fill="#212121"/>
<path fill-rule="evenodd" clip-rule="evenodd" d="M96.6667 60.25C97.1097 60.25 97.5327 60.4178 97.8536 60.714L98.0332 60.9068L106.84 71.9167H108.333C111.746 71.9167 114.536 74.5806 114.738 77.9424L114.75 78.3333V87.6667C114.75 88.5526 114.092 89.2848 113.237 89.4007L113 89.4167H109.842C109.08 92.1099 106.604 94.0833 103.667 94.0833C100.73 94.0833 98.2533 92.1099 97.4915 89.4167H86.5085C85.7467 92.1099 83.2705 94.0833 80.3333 94.0833C77.3962 94.0833 74.92 92.1099 74.1582 89.4167H71C70.114 89.4167 69.3819 88.7583 69.266 87.9041L69.25 87.6667V73.6667C69.25 73.5393 69.2636 73.4151 69.2895 73.2954L69.3451 73.0967L74.0418 61.3501C74.2781 60.7595 74.8127 60.3496 75.4312 60.2659L75.6667 60.25H96.6667ZM74.1582 85.9167H72.75V75.4167H108.333L108.632 75.4317C110.102 75.5811 111.25 76.8232 111.25 78.3333V85.9167H109.842C109.08 83.2234 106.604 81.25 103.667 81.25C100.73 81.25 98.2533 83.2234 97.4915 85.9167H86.5085C85.7467 83.2234 83.2705 81.25 80.3333 81.25C77.3962 81.25 74.92 83.2234 74.1582 85.9167ZM77.4167 87.6667C77.4167 89.2775 78.7225 90.5833 80.3333 90.5833C81.9442 90.5833 83.25 89.2775 83.25 87.6667C83.25 86.0558 81.9442 84.75 80.3333 84.75C78.7225 84.75 77.4167 86.0558 77.4167 87.6667ZM106.583 87.6696C106.583 87.6686 106.583 87.6676 106.583 87.6667C106.583 86.0558 105.278 84.75 103.667 84.75C102.056 84.75 100.75 86.0558 100.75 87.6667C100.75 89.2775 102.056 90.5833 103.667 90.5833C105.277 90.5833 106.582 89.2791 106.583 87.6696ZM76.8497 63.75H90.25V71.9167H73.583L76.8497 63.75ZM95.8267 63.75H93.75V71.9167H102.36L95.8267 63.75Z" fill="#212121"/>
</g>
<defs>
<clipPath id="clip0_878_100418">
<rect width="234" height="56" fill="white" transform="translate(438 48)"/>
</clipPath>
<clipPath id="clip1_878_100418">
<rect width="216" height="56" fill="white" transform="translate(64 48)"/>
</clipPath>
</defs>
</svg>
