<svg width="132" height="24" viewBox="0 0 132 24" fill="none" xmlns="http://www.w3.org/2000/svg">
<mask id="path-1-inside-1_921_102271" fill="white">
<path fill-rule="evenodd" clip-rule="evenodd" d="M6.83146 7.67267L6.86303 7.70466L6.89478 7.67411C7.61981 6.99191 8.61889 6.6615 9.62074 6.79046L9.76385 6.81202C11.0038 7.02615 12.0196 7.91627 12.3947 9.11736C12.7698 10.3185 12.4411 11.6285 11.5434 12.5102L11.5169 12.5323L7.16973 16.8384C7.01472 16.9919 6.77359 17.0059 6.60293 16.8803L6.554 16.8384L2.18175 12.5081C1.277 11.6277 0.94321 10.3139 1.31804 9.10837C1.69287 7.90287 2.71282 7.00994 3.95729 6.79779C5.0103 6.61828 6.07313 6.95193 6.83146 7.67267ZM4.10435 7.66037C3.18452 7.81717 2.43065 8.47717 2.1536 9.36818C1.88974 10.2168 2.10095 11.138 2.69934 11.786L2.79474 11.8838L6.86188 15.9122L10.929 11.8838L10.947 11.8679L11.0222 11.7908C11.6158 11.1422 11.8236 10.2237 11.5595 9.37822C11.2823 8.49046 10.5315 7.83255 9.61497 7.67428C8.69848 7.516 7.7705 7.884 7.21156 8.62736C7.03593 8.86093 6.68507 8.85996 6.51074 8.62541C5.95414 7.87651 5.02417 7.50356 4.10435 7.66037Z"/>
</mask>
<path fill-rule="evenodd" clip-rule="evenodd" d="M6.83146 7.67267L6.86303 7.70466L6.89478 7.67411C7.61981 6.99191 8.61889 6.6615 9.62074 6.79046L9.76385 6.81202C11.0038 7.02615 12.0196 7.91627 12.3947 9.11736C12.7698 10.3185 12.4411 11.6285 11.5434 12.5102L11.5169 12.5323L7.16973 16.8384C7.01472 16.9919 6.77359 17.0059 6.60293 16.8803L6.554 16.8384L2.18175 12.5081C1.277 11.6277 0.94321 10.3139 1.31804 9.10837C1.69287 7.90287 2.71282 7.00994 3.95729 6.79779C5.0103 6.61828 6.07313 6.95193 6.83146 7.67267ZM4.10435 7.66037C3.18452 7.81717 2.43065 8.47717 2.1536 9.36818C1.88974 10.2168 2.10095 11.138 2.69934 11.786L2.79474 11.8838L6.86188 15.9122L10.929 11.8838L10.947 11.8679L11.0222 11.7908C11.6158 11.1422 11.8236 10.2237 11.5595 9.37822C11.2823 8.49046 10.5315 7.83255 9.61497 7.67428C8.69848 7.516 7.7705 7.884 7.21156 8.62736C7.03593 8.86093 6.68507 8.85996 6.51074 8.62541C5.95414 7.87651 5.02417 7.50356 4.10435 7.66037Z" fill="#212121"/>
<path d="M6.83146 7.67267L7.54322 6.97025L7.53197 6.95886L7.52037 6.94783L6.83146 7.67267ZM6.86303 7.70466L6.15127 8.40709L6.84485 9.10989L7.55638 8.42526L6.86303 7.70466ZM6.89478 7.67411L6.20947 6.94578L6.20143 6.95351L6.89478 7.67411ZM9.62074 6.79046L9.76971 5.80162L9.75907 5.80002L9.74841 5.79865L9.62074 6.79046ZM9.76385 6.81202L9.93402 5.82661L9.92344 5.82478L9.91282 5.82318L9.76385 6.81202ZM11.5434 12.5102L12.1834 13.2786L12.2149 13.2524L12.2442 13.2236L11.5434 12.5102ZM11.5169 12.5323L10.8769 11.7639L10.8438 11.7915L10.8131 11.8219L11.5169 12.5323ZM7.16973 16.8384L7.87341 17.5489L7.87347 17.5489L7.16973 16.8384ZM6.60293 16.8803L5.95278 17.6401L5.98064 17.6639L6.01018 17.6857L6.60293 16.8803ZM6.554 16.8384L5.85031 17.5489L5.87618 17.5746L5.90385 17.5982L6.554 16.8384ZM2.18175 12.5081L2.88547 11.7976L2.87915 11.7914L2.18175 12.5081ZM3.95729 6.79779L4.12533 7.78357L3.95729 6.79779ZM2.1536 9.36818L3.1085 9.66509L2.1536 9.36818ZM2.69934 11.786L1.9647 12.4644L1.97397 12.4744L1.98352 12.4842L2.69934 11.786ZM2.79474 11.8837L2.07892 12.582L2.08492 12.5882L2.09103 12.5942L2.79474 11.8837ZM6.86188 15.9122L6.15816 16.6227L6.86188 17.3197L7.5656 16.6227L6.86188 15.9122ZM10.929 11.8837L10.2678 11.1336L10.246 11.1528L10.2253 11.1733L10.929 11.8837ZM10.947 11.8679L11.6082 12.6181L11.6365 12.5932L11.6629 12.5661L10.947 11.8679ZM11.0222 11.7908L11.7381 12.489L11.7492 12.4776L11.7599 12.4659L11.0222 11.7908ZM11.5595 9.37822L12.5141 9.08012L11.5595 9.37822ZM7.21156 8.62736L8.01083 9.22834L7.21156 8.62736ZM6.51074 8.62541L5.70814 9.22193L6.51074 8.62541ZM6.1197 8.3751L6.15127 8.40709L7.57479 7.00224L7.54322 6.97025L6.1197 8.3751ZM7.55638 8.42526L7.58814 8.39471L6.20143 6.95351L6.16968 6.98407L7.55638 8.42526ZM7.58005 8.4024C8.08888 7.92363 8.79029 7.69182 9.49307 7.78228L9.74841 5.79865C8.44748 5.63119 7.15075 6.06019 6.20951 6.94582L7.58005 8.4024ZM9.47177 7.7793L9.61488 7.80086L9.91282 5.82318L9.76971 5.80162L9.47177 7.7793ZM9.59368 7.79744C10.464 7.94773 11.1769 8.57246 11.4402 9.41547L13.3492 8.81925C12.8623 7.26007 11.5437 6.10458 9.93402 5.82661L9.59368 7.79744ZM11.4402 9.41547C11.7035 10.2585 11.4728 11.1779 10.8427 11.7968L12.2442 13.2236C13.4095 12.079 13.8362 10.3784 13.3492 8.81925L11.4402 9.41547ZM10.9035 11.7418L10.8769 11.7639L12.1568 13.3008L12.1834 13.2786L10.9035 11.7418ZM10.8131 11.8219L6.46598 16.128L7.87347 17.5489L12.2206 13.2428L10.8131 11.8219ZM6.46604 16.1279C6.66594 15.9299 6.97554 15.9129 7.19568 16.0749L6.01018 17.6857C6.57165 18.0989 7.3635 18.054 7.87341 17.5489L6.46604 16.1279ZM7.25308 16.1205L7.20415 16.0786L5.90385 17.5982L5.95278 17.6401L7.25308 16.1205ZM7.25769 16.1279L2.88544 11.7976L1.47806 13.2186L5.85031 17.5489L7.25769 16.1279ZM2.87915 11.7914C2.24414 11.1735 2.00987 10.2514 2.27294 9.40528L0.363134 8.81145C-0.123444 10.3763 0.309855 12.0819 1.48435 13.2248L2.87915 11.7914ZM2.27294 9.40528C2.53602 8.55919 3.25189 7.93247 4.12533 7.78357L3.78924 5.81202C2.17375 6.08741 0.849713 7.24656 0.363134 8.81145L2.27294 9.40528ZM4.12533 7.78357C4.86421 7.65761 5.61031 7.89166 6.14254 8.39751L7.52037 6.94783C6.53596 6.0122 5.15639 5.57895 3.78924 5.81202L4.12533 7.78357ZM3.9363 6.67459C2.64545 6.89464 1.58749 7.82085 1.19869 9.07127L3.1085 9.66509C3.2738 9.13348 3.72359 8.7397 4.27239 8.64615L3.9363 6.67459ZM1.19869 9.07127C0.828391 10.2622 1.12481 11.555 1.9647 12.4644L3.43398 11.1075C3.07709 10.721 2.9511 10.1713 3.1085 9.66509L1.19869 9.07127ZM1.98352 12.4842L2.07892 12.582L3.51057 11.1855L3.41517 11.0877L1.98352 12.4842ZM2.09103 12.5942L6.15816 16.6227L7.5656 15.2017L3.49846 11.1733L2.09103 12.5942ZM7.5656 16.6227L11.6327 12.5942L10.2253 11.1733L6.15816 15.2017L7.5656 16.6227ZM11.5903 12.6339L11.6082 12.6181L10.2857 11.1178L10.2678 11.1336L11.5903 12.6339ZM11.6629 12.5661L11.7381 12.489L10.3063 11.0926L10.2311 11.1697L11.6629 12.5661ZM11.7599 12.4659C12.593 11.5556 12.8846 10.2667 12.5141 9.08012L10.605 9.67633C10.7625 10.1807 10.6386 10.7288 10.2845 11.1156L11.7599 12.4659ZM12.5141 9.08012C12.125 7.83426 11.0713 6.91097 9.78514 6.68886L9.44479 8.65969C9.9916 8.75412 10.4396 9.14666 10.605 9.67633L12.5141 9.08012ZM9.78514 6.68886C8.49898 6.46675 7.19669 6.98318 6.41229 8.02638L8.01083 9.22834C8.34431 8.78482 8.89798 8.56526 9.44479 8.65969L9.78514 6.68886ZM6.41229 8.02638C6.6381 7.72607 7.08921 7.72733 7.31334 8.02889L5.70814 9.22193C6.28092 9.99259 7.43376 9.99579 8.01083 9.22834L6.41229 8.02638ZM7.31334 8.02889C6.53222 6.97791 5.22714 6.45453 3.9363 6.67459L4.27239 8.64615C4.8212 8.55259 5.37605 8.7751 5.70814 9.22193L7.31334 8.02889Z" fill="#212121" mask="url(#path-1-inside-1_921_102271)"/>
<path d="M25.672 14.732H20.772L19.806 17H17.93L22.34 7.2H24.132L28.556 17H26.652L25.672 14.732ZM25.07 13.304L23.222 9.02L21.388 13.304H25.07ZM36.888 6.612V17H35.208V16.034C34.9186 16.3887 34.5593 16.6547 34.13 16.832C33.71 17.0093 33.2433 17.098 32.73 17.098C32.0113 17.098 31.3626 16.9393 30.784 16.622C30.2146 16.3047 29.7666 15.8567 29.44 15.278C29.1133 14.69 28.95 14.018 28.95 13.262C28.95 12.506 29.1133 11.8387 29.44 11.26C29.7666 10.6813 30.2146 10.2333 30.784 9.916C31.3626 9.59867 32.0113 9.44 32.73 9.44C33.2246 9.44 33.6773 9.524 34.088 9.692C34.4986 9.86 34.8486 10.112 35.138 10.448V6.612H36.888ZM32.94 15.6C33.36 15.6 33.738 15.5067 34.074 15.32C34.41 15.124 34.676 14.8487 34.872 14.494C35.068 14.1393 35.166 13.7287 35.166 13.262C35.166 12.7953 35.068 12.3847 34.872 12.03C34.676 11.6753 34.41 11.4047 34.074 11.218C33.738 11.022 33.36 10.924 32.94 10.924C32.52 10.924 32.142 11.022 31.806 11.218C31.47 11.4047 31.204 11.6753 31.008 12.03C30.812 12.3847 30.714 12.7953 30.714 13.262C30.714 13.7287 30.812 14.1393 31.008 14.494C31.204 14.8487 31.47 15.124 31.806 15.32C32.142 15.5067 32.52 15.6 32.94 15.6ZM46.4993 6.612V17H44.8193V16.034C44.53 16.3887 44.1706 16.6547 43.7413 16.832C43.3213 17.0093 42.8546 17.098 42.3413 17.098C41.6226 17.098 40.974 16.9393 40.3953 16.622C39.826 16.3047 39.378 15.8567 39.0513 15.278C38.7246 14.69 38.5613 14.018 38.5613 13.262C38.5613 12.506 38.7246 11.8387 39.0513 11.26C39.378 10.6813 39.826 10.2333 40.3953 9.916C40.974 9.59867 41.6226 9.44 42.3413 9.44C42.836 9.44 43.2886 9.524 43.6993 9.692C44.11 9.86 44.46 10.112 44.7493 10.448V6.612H46.4993ZM42.5513 15.6C42.9713 15.6 43.3493 15.5067 43.6853 15.32C44.0213 15.124 44.2873 14.8487 44.4833 14.494C44.6793 14.1393 44.7773 13.7287 44.7773 13.262C44.7773 12.7953 44.6793 12.3847 44.4833 12.03C44.2873 11.6753 44.0213 11.4047 43.6853 11.218C43.3493 11.022 42.9713 10.924 42.5513 10.924C42.1313 10.924 41.7533 11.022 41.4173 11.218C41.0813 11.4047 40.8153 11.6753 40.6193 12.03C40.4233 12.3847 40.3253 12.7953 40.3253 13.262C40.3253 13.7287 40.4233 14.1393 40.6193 14.494C40.8153 14.8487 41.0813 15.124 41.4173 15.32C41.7533 15.5067 42.1313 15.6 42.5513 15.6ZM57.1518 16.594C56.9464 16.762 56.6944 16.888 56.3958 16.972C56.1064 17.056 55.7984 17.098 55.4718 17.098C54.6504 17.098 54.0158 16.8833 53.5678 16.454C53.1198 16.0247 52.8958 15.3993 52.8958 14.578V10.98H51.6638V9.58H52.8958V7.872H54.6458V9.58H56.6478V10.98H54.6458V14.536C54.6458 14.9 54.7344 15.18 54.9118 15.376C55.0891 15.5627 55.3458 15.656 55.6818 15.656C56.0738 15.656 56.4004 15.5533 56.6618 15.348L57.1518 16.594ZM61.7053 17.098C60.9493 17.098 60.2679 16.9347 59.6613 16.608C59.0546 16.2813 58.5786 15.8287 58.2333 15.25C57.8973 14.662 57.7293 13.9993 57.7293 13.262C57.7293 12.5247 57.8973 11.8667 58.2333 11.288C58.5786 10.7093 59.0546 10.2567 59.6613 9.93C60.2679 9.60333 60.9493 9.44 61.7053 9.44C62.4706 9.44 63.1566 9.60333 63.7633 9.93C64.3699 10.2567 64.8413 10.7093 65.1773 11.288C65.5226 11.8667 65.6953 12.5247 65.6953 13.262C65.6953 13.9993 65.5226 14.662 65.1773 15.25C64.8413 15.8287 64.3699 16.2813 63.7633 16.608C63.1566 16.9347 62.4706 17.098 61.7053 17.098ZM61.7053 15.6C62.3493 15.6 62.8813 15.3853 63.3013 14.956C63.7213 14.5267 63.9313 13.962 63.9313 13.262C63.9313 12.562 63.7213 11.9973 63.3013 11.568C62.8813 11.1387 62.3493 10.924 61.7053 10.924C61.0613 10.924 60.5293 11.1387 60.1093 11.568C59.6986 11.9973 59.4933 12.562 59.4933 13.262C59.4933 13.962 59.6986 14.5267 60.1093 14.956C60.5293 15.3853 61.0613 15.6 61.7053 15.6ZM74.2758 7.928C73.5385 7.928 73.1698 8.32933 73.1698 9.132V9.58H75.2278V10.98H73.2258V17H71.4758V10.98H70.2438V9.58H71.4758V9.104C71.4758 8.30133 71.7092 7.67133 72.1758 7.214C72.6425 6.74733 73.3005 6.514 74.1498 6.514C74.8218 6.514 75.3492 6.64933 75.7318 6.92L75.2418 8.236C74.9432 8.03067 74.6212 7.928 74.2758 7.928ZM79.1251 9.44C80.2264 9.44 81.0664 9.706 81.6451 10.238C82.2331 10.7607 82.5271 11.554 82.5271 12.618V17H80.8751V16.09C80.6604 16.4167 80.3524 16.6687 79.9511 16.846C79.5591 17.014 79.0831 17.098 78.5231 17.098C77.9631 17.098 77.4731 17.0047 77.0531 16.818C76.6331 16.622 76.3064 16.356 76.0731 16.02C75.8491 15.6747 75.7371 15.2873 75.7371 14.858C75.7371 14.186 75.9844 13.6493 76.4791 13.248C76.9831 12.8373 77.7718 12.632 78.8451 12.632H80.7771V12.52C80.7771 11.9973 80.6184 11.596 80.3011 11.316C79.9931 11.036 79.5311 10.896 78.9151 10.896C78.4951 10.896 78.0798 10.9613 77.6691 11.092C77.2678 11.2227 76.9271 11.4047 76.6471 11.638L75.9611 10.364C76.3531 10.0653 76.8244 9.83667 77.3751 9.678C77.9258 9.51933 78.5091 9.44 79.1251 9.44ZM78.8871 15.824C79.3258 15.824 79.7131 15.726 80.0491 15.53C80.3944 15.3247 80.6371 15.0353 80.7771 14.662V13.794H78.9711C77.9631 13.794 77.4591 14.1253 77.4591 14.788C77.4591 15.1053 77.5851 15.3573 77.8371 15.544C78.0891 15.7307 78.4391 15.824 78.8871 15.824ZM91.6363 9.524L88.4303 17H86.6243L83.4183 9.524H85.2383L87.5623 15.068L89.9563 9.524H91.6363ZM95.885 17.098C95.129 17.098 94.4476 16.9347 93.841 16.608C93.2343 16.2813 92.7583 15.8287 92.413 15.25C92.077 14.662 91.909 13.9993 91.909 13.262C91.909 12.5247 92.077 11.8667 92.413 11.288C92.7583 10.7093 93.2343 10.2567 93.841 9.93C94.4476 9.60333 95.129 9.44 95.885 9.44C96.6503 9.44 97.3363 9.60333 97.943 9.93C98.5496 10.2567 99.021 10.7093 99.357 11.288C99.7023 11.8667 99.875 12.5247 99.875 13.262C99.875 13.9993 99.7023 14.662 99.357 15.25C99.021 15.8287 98.5496 16.2813 97.943 16.608C97.3363 16.9347 96.6503 17.098 95.885 17.098ZM95.885 15.6C96.529 15.6 97.061 15.3853 97.481 14.956C97.901 14.5267 98.111 13.962 98.111 13.262C98.111 12.562 97.901 11.9973 97.481 11.568C97.061 11.1387 96.529 10.924 95.885 10.924C95.241 10.924 94.709 11.1387 94.289 11.568C93.8783 11.9973 93.673 12.562 93.673 13.262C93.673 13.962 93.8783 14.5267 94.289 14.956C94.709 15.3853 95.241 15.6 95.885 15.6ZM103.214 10.616C103.718 9.832 104.605 9.44 105.874 9.44V11.106C105.725 11.078 105.59 11.064 105.468 11.064C104.787 11.064 104.255 11.2647 103.872 11.666C103.49 12.058 103.298 12.6273 103.298 13.374V17H101.548V9.524H103.214V10.616ZM107.359 9.524H109.109V17H107.359V9.524ZM108.241 8.292C107.924 8.292 107.658 8.194 107.443 7.998C107.228 7.79267 107.121 7.54067 107.121 7.242C107.121 6.94333 107.228 6.696 107.443 6.5C107.658 6.29467 107.924 6.192 108.241 6.192C108.558 6.192 108.824 6.29 109.039 6.486C109.254 6.67267 109.361 6.91067 109.361 7.2C109.361 7.508 109.254 7.76933 109.039 7.984C108.834 8.18933 108.568 8.292 108.241 8.292ZM115.9 16.594C115.694 16.762 115.442 16.888 115.144 16.972C114.854 17.056 114.546 17.098 114.22 17.098C113.398 17.098 112.764 16.8833 112.316 16.454C111.868 16.0247 111.644 15.3993 111.644 14.578V10.98H110.412V9.58H111.644V7.872H113.394V9.58H115.396V10.98H113.394V14.536C113.394 14.9 113.482 15.18 113.66 15.376C113.837 15.5627 114.094 15.656 114.43 15.656C114.822 15.656 115.148 15.5533 115.41 15.348L115.9 16.594ZM124.121 13.304C124.121 13.4253 124.112 13.598 124.093 13.822H118.227C118.33 14.3727 118.596 14.8113 119.025 15.138C119.464 15.4553 120.005 15.614 120.649 15.614C121.471 15.614 122.147 15.3433 122.679 14.802L123.617 15.88C123.281 16.2813 122.857 16.5847 122.343 16.79C121.83 16.9953 121.251 17.098 120.607 17.098C119.786 17.098 119.063 16.9347 118.437 16.608C117.812 16.2813 117.327 15.8287 116.981 15.25C116.645 14.662 116.477 13.9993 116.477 13.262C116.477 12.534 116.641 11.8807 116.967 11.302C117.303 10.714 117.765 10.2567 118.353 9.93C118.941 9.60333 119.604 9.44 120.341 9.44C121.069 9.44 121.718 9.60333 122.287 9.93C122.866 10.2473 123.314 10.7 123.631 11.288C123.958 11.8667 124.121 12.5387 124.121 13.304ZM120.341 10.84C119.781 10.84 119.305 11.008 118.913 11.344C118.531 11.6707 118.297 12.1093 118.213 12.66H122.455C122.381 12.1187 122.152 11.68 121.769 11.344C121.387 11.008 120.911 10.84 120.341 10.84ZM128.112 17.098C127.506 17.098 126.913 17.0187 126.334 16.86C125.756 16.7013 125.294 16.5007 124.948 16.258L125.62 14.928C125.956 15.152 126.358 15.334 126.824 15.474C127.3 15.6047 127.767 15.67 128.224 15.67C129.27 15.67 129.792 15.3947 129.792 14.844C129.792 14.5827 129.657 14.4007 129.386 14.298C129.125 14.1953 128.7 14.0973 128.112 14.004C127.496 13.9107 126.992 13.8033 126.6 13.682C126.218 13.5607 125.882 13.3507 125.592 13.052C125.312 12.744 125.172 12.3193 125.172 11.778C125.172 11.0687 125.466 10.504 126.054 10.084C126.652 9.65467 127.454 9.44 128.462 9.44C128.976 9.44 129.489 9.50067 130.002 9.622C130.516 9.734 130.936 9.888 131.262 10.084L130.59 11.414C129.956 11.0407 129.242 10.854 128.448 10.854C127.935 10.854 127.543 10.9333 127.272 11.092C127.011 11.2413 126.88 11.442 126.88 11.694C126.88 11.974 127.02 12.1747 127.3 12.296C127.59 12.408 128.033 12.5153 128.63 12.618C129.228 12.7113 129.718 12.8187 130.1 12.94C130.483 13.0613 130.81 13.2667 131.08 13.556C131.36 13.8453 131.5 14.256 131.5 14.788C131.5 15.488 131.197 16.048 130.59 16.468C129.984 16.888 129.158 17.098 128.112 17.098Z" fill="#212121"/>
</svg>
