<svg width="30" height="24" viewBox="0 0 30 24" fill="none" xmlns="http://www.w3.org/2000/svg">
<path d="M2.12109 17V7.00586H3.75488V15.5986H7.98633V17H2.12109ZM11.1445 17H9.53809V9.43945H11.1445V17ZM9.44238 7.43652C9.44238 7.14941 9.51986 6.92839 9.6748 6.77344C9.83431 6.61849 10.0599 6.54102 10.3516 6.54102C10.6341 6.54102 10.8529 6.61849 11.0078 6.77344C11.1673 6.92839 11.2471 7.14941 11.2471 7.43652C11.2471 7.70996 11.1673 7.92643 11.0078 8.08594C10.8529 8.24089 10.6341 8.31836 10.3516 8.31836C10.0599 8.31836 9.83431 8.24089 9.6748 8.08594C9.51986 7.92643 9.44238 7.70996 9.44238 7.43652ZM20.0996 17H18.4863V12.3516C18.4863 11.7682 18.3678 11.333 18.1309 11.0459C17.8984 10.7588 17.527 10.6152 17.0166 10.6152C16.3376 10.6152 15.8408 10.8158 15.5264 11.2168C15.2119 11.6178 15.0547 12.29 15.0547 13.2334V17H13.4482V9.43945H14.7061L14.9316 10.4307H15.0137C15.2415 10.0706 15.5651 9.79264 15.9844 9.59668C16.4036 9.40072 16.8685 9.30273 17.3789 9.30273C19.1927 9.30273 20.0996 10.2256 20.0996 12.0713V17ZM23.8867 13.0078L24.7959 11.873L27.0791 9.43945H28.9316L25.8896 12.6865L29.123 17H27.2363L24.8096 13.6846L23.9277 14.4092V17H22.335V6.36328H23.9277V11.5518L23.8457 13.0078H23.8867Z" fill="#212121"/>
</svg>
