<svg width="47" height="24" viewBox="0 0 47 24" fill="none" xmlns="http://www.w3.org/2000/svg">
<path d="M1.81934 17V7.00586H3.45312V15.5986H7.68457V17H1.81934ZM10.8428 17H9.23633V9.43945H10.8428V17ZM9.14062 7.43652C9.14062 7.14941 9.2181 6.92839 9.37305 6.77344C9.53255 6.61849 9.75814 6.54102 10.0498 6.54102C10.3324 6.54102 10.5511 6.61849 10.7061 6.77344C10.8656 6.92839 10.9453 7.14941 10.9453 7.43652C10.9453 7.70996 10.8656 7.92643 10.7061 8.08594C10.5511 8.24089 10.3324 8.31836 10.0498 8.31836C9.75814 8.31836 9.53255 8.24089 9.37305 8.08594C9.2181 7.92643 9.14062 7.70996 9.14062 7.43652ZM19.7979 17H18.1846V12.3516C18.1846 11.7682 18.0661 11.333 17.8291 11.0459C17.5967 10.7588 17.2253 10.6152 16.7148 10.6152C16.0358 10.6152 15.5391 10.8158 15.2246 11.2168C14.9102 11.6178 14.7529 12.29 14.7529 13.2334V17H13.1465V9.43945H14.4043L14.6299 10.4307H14.7119C14.9398 10.0706 15.2633 9.79264 15.6826 9.59668C16.1019 9.40072 16.5667 9.30273 17.0771 9.30273C18.891 9.30273 19.7979 10.2256 19.7979 12.0713V17ZM23.585 13.0078L24.4941 11.873L26.7773 9.43945H28.6299L25.5879 12.6865L28.8213 17H26.9346L24.5078 13.6846L23.626 14.4092V17H22.0332V6.36328H23.626V11.5518L23.5439 13.0078H23.585Z" fill="#212121"/>
<path fill-rule="evenodd" clip-rule="evenodd" d="M36.6302 10.8143C36.4566 10.6407 36.4566 10.3593 36.6302 10.1857C36.788 10.0279 37.0349 10.0136 37.2089 10.1427L37.2587 10.1857L40.5 13.4268L43.7413 10.1857C43.8991 10.0279 44.146 10.0136 44.32 10.1427L44.3698 10.1857C44.5276 10.3435 44.542 10.5904 44.4129 10.7644L44.3698 10.8143L40.8143 14.3698C40.6565 14.5276 40.4096 14.542 40.2356 14.4129L40.1857 14.3698L36.6302 10.8143Z" fill="#212121"/>
</svg>
