<svg width="59" height="24" viewBox="0 0 59 24" fill="none" xmlns="http://www.w3.org/2000/svg">
<path d="M4.354 17.14C3.598 17.14 2.86533 17.0327 2.156 16.818C1.456 16.6033 0.900667 16.3187 0.49 15.964L1.12 14.55C1.52133 14.8673 2.01133 15.1287 2.59 15.334C3.178 15.53 3.766 15.628 4.354 15.628C5.082 15.628 5.62333 15.5113 5.978 15.278C6.342 15.0447 6.524 14.7367 6.524 14.354C6.524 14.074 6.42133 13.8453 6.216 13.668C6.02 13.4813 5.768 13.3367 5.46 13.234C5.152 13.1313 4.732 13.0147 4.2 12.884C3.45333 12.7067 2.84667 12.5293 2.38 12.352C1.92267 12.1747 1.526 11.8993 1.19 11.526C0.863333 11.1433 0.7 10.63 0.7 9.986C0.7 9.44467 0.844667 8.95467 1.134 8.516C1.43267 8.068 1.876 7.71333 2.464 7.452C3.06133 7.19067 3.78933 7.06 4.648 7.06C5.24533 7.06 5.83333 7.13467 6.412 7.284C6.99067 7.43333 7.49 7.648 7.91 7.928L7.336 9.342C6.90667 9.09 6.45867 8.89867 5.992 8.768C5.52533 8.63733 5.07267 8.572 4.634 8.572C3.91533 8.572 3.37867 8.69333 3.024 8.936C2.67867 9.17867 2.506 9.50067 2.506 9.902C2.506 10.182 2.604 10.4107 2.8 10.588C3.00533 10.7653 3.262 10.9053 3.57 11.008C3.878 11.1107 4.298 11.2273 4.83 11.358C5.558 11.526 6.15533 11.7033 6.622 11.89C7.08867 12.0673 7.48533 12.3427 7.812 12.716C8.148 13.0893 8.316 13.5933 8.316 14.228C8.316 14.7693 8.16667 15.2593 7.868 15.698C7.57867 16.1367 7.13533 16.4867 6.538 16.748C5.94067 17.0093 5.21267 17.14 4.354 17.14ZM14.1947 9.44C15.1374 9.44 15.8934 9.71533 16.4627 10.266C17.032 10.8167 17.3167 11.6333 17.3167 12.716V17H15.5667V12.94C15.5667 12.2867 15.4127 11.7967 15.1047 11.47C14.7967 11.134 14.358 10.966 13.7887 10.966C13.1447 10.966 12.636 11.162 12.2627 11.554C11.8894 11.9367 11.7027 12.492 11.7027 13.22V17H9.95269V6.612H11.7027V10.392C11.992 10.084 12.3467 9.85067 12.7667 9.692C13.196 9.524 13.672 9.44 14.1947 9.44ZM22.3927 9.44C23.494 9.44 24.334 9.706 24.9127 10.238C25.5007 10.7607 25.7947 11.554 25.7947 12.618V17H24.1427V16.09C23.928 16.4167 23.62 16.6687 23.2187 16.846C22.8267 17.014 22.3507 17.098 21.7907 17.098C21.2307 17.098 20.7407 17.0047 20.3207 16.818C19.9007 16.622 19.574 16.356 19.3407 16.02C19.1167 15.6747 19.0047 15.2873 19.0047 14.858C19.0047 14.186 19.252 13.6493 19.7467 13.248C20.2507 12.8373 21.0393 12.632 22.1127 12.632H24.0447V12.52C24.0447 11.9973 23.886 11.596 23.5687 11.316C23.2607 11.036 22.7987 10.896 22.1827 10.896C21.7627 10.896 21.3473 10.9613 20.9367 11.092C20.5353 11.2227 20.1947 11.4047 19.9147 11.638L19.2287 10.364C19.6207 10.0653 20.092 9.83667 20.6427 9.678C21.1933 9.51933 21.7767 9.44 22.3927 9.44ZM22.1547 15.824C22.5933 15.824 22.9807 15.726 23.3167 15.53C23.662 15.3247 23.9047 15.0353 24.0447 14.662V13.794H22.2387C21.2307 13.794 20.7267 14.1253 20.7267 14.788C20.7267 15.1053 20.8527 15.3573 21.1047 15.544C21.3567 15.7307 21.7067 15.824 22.1547 15.824ZM29.7066 10.616C30.2106 9.832 31.0972 9.44 32.3666 9.44V11.106C32.2172 11.078 32.0819 11.064 31.9606 11.064C31.2792 11.064 30.7472 11.2647 30.3646 11.666C29.9819 12.058 29.7906 12.6273 29.7906 13.374V17H28.0406V9.524H29.7066V10.616ZM40.8108 13.304C40.8108 13.4253 40.8014 13.598 40.7828 13.822H34.9168C35.0194 14.3727 35.2854 14.8113 35.7148 15.138C36.1534 15.4553 36.6948 15.614 37.3388 15.614C38.1601 15.614 38.8368 15.3433 39.3688 14.802L40.3068 15.88C39.9708 16.2813 39.5461 16.5847 39.0328 16.79C38.5194 16.9953 37.9408 17.098 37.2968 17.098C36.4754 17.098 35.7521 16.9347 35.1268 16.608C34.5014 16.2813 34.0161 15.8287 33.6708 15.25C33.3348 14.662 33.1668 13.9993 33.1668 13.262C33.1668 12.534 33.3301 11.8807 33.6568 11.302C33.9928 10.714 34.4548 10.2567 35.0428 9.93C35.6308 9.60333 36.2934 9.44 37.0308 9.44C37.7588 9.44 38.4074 9.60333 38.9768 9.93C39.5554 10.2473 40.0034 10.7 40.3208 11.288C40.6474 11.8667 40.8108 12.5387 40.8108 13.304ZM37.0308 10.84C36.4708 10.84 35.9948 11.008 35.6028 11.344C35.2201 11.6707 34.9868 12.1093 34.9028 12.66H39.1448C39.0701 12.1187 38.8414 11.68 38.4588 11.344C38.0761 11.008 37.6001 10.84 37.0308 10.84Z" fill="#212121"/>
<path fill-rule="evenodd" clip-rule="evenodd" d="M50.5518 7.48512C50.3494 7.28263 50.021 7.28263 49.8186 7.48512C49.6345 7.66921 49.6177 7.95727 49.7683 8.16026L49.8186 8.21842L53.5998 11.9999L49.8186 15.7814C49.6345 15.9655 49.6177 16.2536 49.7683 16.4566L49.8186 16.5147C50.0026 16.6988 50.2907 16.7155 50.4937 16.5649L50.5518 16.5147L54.7 12.3666C54.8841 12.1825 54.9008 11.8944 54.7502 11.6914L54.7 11.6333L50.5518 7.48512Z" fill="#212121"/>
</svg>
