<svg width="189" height="37" viewBox="0 0 189 37" fill="none" xmlns="http://www.w3.org/2000/svg">
<g clip-path="url(#clip0_878_100489)">
<path d="M17.04 23.45C17.04 24.99 16.45 26.3 15.27 27.38C14.09 28.44 12.36 29.03 10.08 29.15V32.6H8.58V29.18C7.12 29.1 5.74 28.82 4.44 28.34C3.16 27.84 2.15 27.21 1.41 26.45L2.28 24.74C2.98 25.42 3.89 25.99 5.01 26.45C6.15 26.91 7.34 27.18 8.58 27.26V19.37C7.2 19.03 6.05 18.67 5.13 18.29C4.21 17.89 3.44 17.32 2.82 16.58C2.22 15.82 1.92 14.82 1.92 13.58C1.92 12.04 2.48 10.75 3.6 9.71C4.72 8.65 6.38 8.03 8.58 7.85V4.4H10.08V7.82C11.22 7.86 12.32 8.05 13.38 8.39C14.46 8.71 15.39 9.14 16.17 9.68L15.42 11.45C14.6 10.93 13.73 10.52 12.81 10.22C11.89 9.92 10.98 9.75 10.08 9.71V17.66C11.56 18.02 12.77 18.39 13.71 18.77C14.65 19.13 15.44 19.69 16.08 20.45C16.72 21.21 17.04 22.21 17.04 23.45ZM4.11 13.52C4.11 14.56 4.49 15.35 5.25 15.89C6.03 16.43 7.14 16.89 8.58 17.27V9.77C7.1 9.89 5.98 10.3 5.22 11C4.48 11.68 4.11 12.52 4.11 13.52ZM10.08 27.26C11.66 27.14 12.85 26.75 13.65 26.09C14.45 25.43 14.85 24.59 14.85 23.57C14.85 22.49 14.44 21.68 13.62 21.14C12.8 20.6 11.62 20.14 10.08 19.76V27.26ZM34.007 27.08V29H19.277V27.47L28.007 18.92C29.107 17.84 29.847 16.91 30.227 16.13C30.627 15.33 30.827 14.53 30.827 13.73C30.827 12.49 30.397 11.53 29.537 10.85C28.697 10.15 27.487 9.8 25.907 9.8C23.447 9.8 21.537 10.58 20.177 12.14L18.647 10.82C19.467 9.86 20.507 9.12 21.767 8.6C23.047 8.08 24.487 7.82 26.087 7.82C28.227 7.82 29.917 8.33 31.157 9.35C32.417 10.35 33.047 11.73 33.047 13.49C33.047 14.57 32.807 15.61 32.327 16.61C31.847 17.61 30.937 18.76 29.597 20.06L22.457 27.08H34.007ZM53.5147 23.48H49.3147V29H47.1547V23.48H35.3047V21.92L46.4347 8H48.8347L38.0947 21.56H47.2147V16.7H49.3147V21.56H53.5147V23.48ZM63.5187 29.18C61.8987 29.18 60.4487 28.75 59.1687 27.89C57.9087 27.03 56.9187 25.8 56.1987 24.2C55.4987 22.58 55.1487 20.68 55.1487 18.5C55.1487 16.32 55.4987 14.43 56.1987 12.83C56.9187 11.21 57.9087 9.97 59.1687 9.11C60.4487 8.25 61.8987 7.82 63.5187 7.82C65.1387 7.82 66.5787 8.25 67.8387 9.11C69.1187 9.97 70.1187 11.21 70.8387 12.83C71.5587 14.43 71.9187 16.32 71.9187 18.5C71.9187 20.68 71.5587 22.58 70.8387 24.2C70.1187 25.8 69.1187 27.03 67.8387 27.89C66.5787 28.75 65.1387 29.18 63.5187 29.18ZM63.5187 27.2C64.7387 27.2 65.8087 26.86 66.7287 26.18C67.6687 25.5 68.3987 24.51 68.9187 23.21C69.4387 21.91 69.6987 20.34 69.6987 18.5C69.6987 16.66 69.4387 15.09 68.9187 13.79C68.3987 12.49 67.6687 11.5 66.7287 10.82C65.8087 10.14 64.7387 9.8 63.5187 9.8C62.2987 9.8 61.2187 10.14 60.2787 10.82C59.3587 11.5 58.6387 12.49 58.1187 13.79C57.5987 15.09 57.3387 16.66 57.3387 18.5C57.3387 20.34 57.5987 21.91 58.1187 23.21C58.6387 24.51 59.3587 25.5 60.2787 26.18C61.2187 26.86 62.2987 27.2 63.5187 27.2ZM75.9597 29.15C75.5197 29.15 75.1397 28.99 74.8197 28.67C74.5197 28.35 74.3697 27.96 74.3697 27.5C74.3697 27.04 74.5197 26.66 74.8197 26.36C75.1397 26.04 75.5197 25.88 75.9597 25.88C76.3997 25.88 76.7797 26.04 77.0997 26.36C77.4197 26.66 77.5797 27.04 77.5797 27.5C77.5797 27.96 77.4197 28.35 77.0997 28.67C76.7797 28.99 76.3997 29.15 75.9597 29.15ZM88.3948 29.18C86.7748 29.18 85.3248 28.75 84.0448 27.89C82.7848 27.03 81.7948 25.8 81.0748 24.2C80.3748 22.58 80.0248 20.68 80.0248 18.5C80.0248 16.32 80.3748 14.43 81.0748 12.83C81.7948 11.21 82.7848 9.97 84.0448 9.11C85.3248 8.25 86.7748 7.82 88.3948 7.82C90.0148 7.82 91.4548 8.25 92.7148 9.11C93.9948 9.97 94.9948 11.21 95.7148 12.83C96.4348 14.43 96.7948 16.32 96.7948 18.5C96.7948 20.68 96.4348 22.58 95.7148 24.2C94.9948 25.8 93.9948 27.03 92.7148 27.89C91.4548 28.75 90.0148 29.18 88.3948 29.18ZM88.3948 27.2C89.6148 27.2 90.6848 26.86 91.6048 26.18C92.5448 25.5 93.2748 24.51 93.7948 23.21C94.3148 21.91 94.5748 20.34 94.5748 18.5C94.5748 16.66 94.3148 15.09 93.7948 13.79C93.2748 12.49 92.5448 11.5 91.6048 10.82C90.6848 10.14 89.6148 9.8 88.3948 9.8C87.1748 9.8 86.0948 10.14 85.1548 10.82C84.2348 11.5 83.5148 12.49 82.9948 13.79C82.4748 15.09 82.2148 16.66 82.2148 18.5C82.2148 20.34 82.4748 21.91 82.9948 23.21C83.5148 24.51 84.2348 25.5 85.1548 26.18C86.0948 26.86 87.1748 27.2 88.3948 27.2ZM107.908 29.18C106.288 29.18 104.838 28.75 103.558 27.89C102.298 27.03 101.308 25.8 100.588 24.2C99.8881 22.58 99.5381 20.68 99.5381 18.5C99.5381 16.32 99.8881 14.43 100.588 12.83C101.308 11.21 102.298 9.97 103.558 9.11C104.838 8.25 106.288 7.82 107.908 7.82C109.528 7.82 110.968 8.25 112.228 9.11C113.508 9.97 114.508 11.21 115.228 12.83C115.948 14.43 116.308 16.32 116.308 18.5C116.308 20.68 115.948 22.58 115.228 24.2C114.508 25.8 113.508 27.03 112.228 27.89C110.968 28.75 109.528 29.18 107.908 29.18ZM107.908 27.2C109.128 27.2 110.198 26.86 111.118 26.18C112.058 25.5 112.788 24.51 113.308 23.21C113.828 21.91 114.088 20.34 114.088 18.5C114.088 16.66 113.828 15.09 113.308 13.79C112.788 12.49 112.058 11.5 111.118 10.82C110.198 10.14 109.128 9.8 107.908 9.8C106.688 9.8 105.608 10.14 104.668 10.82C103.748 11.5 103.028 12.49 102.508 13.79C101.988 15.09 101.728 16.66 101.728 18.5C101.728 20.34 101.988 21.91 102.508 23.21C103.028 24.51 103.748 25.5 104.668 26.18C105.608 26.86 106.688 27.2 107.908 27.2Z" fill="#212121"/>
<path d="M137.742 21.0625C137.742 21.7552 137.484 22.3203 136.969 22.7578C136.453 23.1953 135.74 23.4714 134.828 23.5859V25.4297H134.195V23.6172C133.716 23.6068 133.193 23.5495 132.625 23.4453C132.062 23.3359 131.615 23.2031 131.281 23.0469V22.2422C131.672 22.4297 132.138 22.5885 132.68 22.7188C133.227 22.849 133.732 22.9141 134.195 22.9141V18.9453C133.44 18.7161 132.88 18.487 132.516 18.2578C132.151 18.0286 131.885 17.7578 131.719 17.4453C131.552 17.1328 131.469 16.7526 131.469 16.3047C131.469 15.6589 131.714 15.1172 132.203 14.6797C132.698 14.237 133.362 13.9635 134.195 13.8594V12.3594H134.828V13.8438C135.854 13.8906 136.768 14.0781 137.57 14.4062L137.312 15.1094C136.578 14.7865 135.75 14.599 134.828 14.5469V18.3438C135.938 18.6875 136.701 19.0625 137.117 19.4688C137.534 19.875 137.742 20.4062 137.742 21.0625ZM136.883 21.0312C136.883 20.5885 136.719 20.224 136.391 19.9375C136.062 19.6458 135.542 19.3958 134.828 19.1875V22.8672C135.464 22.7995 135.964 22.6042 136.328 22.2812C136.698 21.9583 136.883 21.5417 136.883 21.0312ZM132.32 16.3047C132.32 16.7526 132.469 17.1198 132.766 17.4062C133.062 17.6927 133.539 17.9349 134.195 18.1328V14.5938C133.576 14.6771 133.107 14.875 132.789 15.1875C132.477 15.5 132.32 15.8724 132.32 16.3047ZM143.336 17.6328C144.555 17.6328 145.513 17.9271 146.211 18.5156C146.914 19.1042 147.266 19.9141 147.266 20.9453C147.266 22.1172 146.901 23.0286 146.172 23.6797C145.443 24.3307 144.438 24.6562 143.156 24.6562C142.589 24.6562 142.049 24.6016 141.539 24.4922C141.029 24.3776 140.602 24.2161 140.258 24.0078V23.2031C140.82 23.4896 141.32 23.6901 141.758 23.8047C142.195 23.9141 142.661 23.9688 143.156 23.9688C144.156 23.9688 144.958 23.7057 145.562 23.1797C146.167 22.6484 146.469 21.9323 146.469 21.0312C146.469 20.1823 146.174 19.5156 145.586 19.0312C144.997 18.5469 144.198 18.3047 143.188 18.3047C142.51 18.3047 141.802 18.4062 141.062 18.6094L140.594 18.3047L141.047 13.0781H146.547V13.8281H141.781L141.43 17.8594C142.242 17.7083 142.878 17.6328 143.336 17.6328ZM152.828 12.8828C153.797 12.8828 154.576 13.1302 155.164 13.625C155.758 14.1198 156.055 14.7891 156.055 15.6328C156.055 16.2161 155.87 16.7318 155.5 17.1797C155.135 17.6276 154.542 18.0417 153.719 18.4219C154.719 18.8333 155.422 19.2839 155.828 19.7734C156.234 20.263 156.438 20.8568 156.438 21.5547C156.438 22.4974 156.107 23.25 155.445 23.8125C154.789 24.375 153.906 24.6562 152.797 24.6562C151.646 24.6562 150.763 24.3932 150.148 23.8672C149.534 23.3411 149.227 22.5755 149.227 21.5703C149.227 20.888 149.443 20.2891 149.875 19.7734C150.307 19.2578 150.977 18.8177 151.883 18.4531C151.044 18.0573 150.453 17.6406 150.109 17.2031C149.766 16.7604 149.594 16.2318 149.594 15.6172C149.594 15.0703 149.732 14.5911 150.008 14.1797C150.284 13.763 150.669 13.4427 151.164 13.2188C151.664 12.9948 152.219 12.8828 152.828 12.8828ZM150.023 21.6875C150.023 22.4062 150.266 22.9635 150.75 23.3594C151.24 23.7552 151.922 23.9531 152.797 23.9531C153.651 23.9531 154.339 23.7448 154.859 23.3281C155.38 22.9062 155.641 22.3359 155.641 21.6172C155.641 20.9714 155.435 20.4479 155.023 20.0469C154.617 19.6406 153.831 19.2161 152.664 18.7734C151.706 19.1432 151.026 19.5521 150.625 20C150.224 20.4479 150.023 21.0104 150.023 21.6875ZM152.812 13.5859C152.078 13.5859 151.487 13.7682 151.039 14.1328C150.596 14.4922 150.375 14.987 150.375 15.6172C150.375 15.9818 150.456 16.3047 150.617 16.5859C150.784 16.862 151.021 17.1146 151.328 17.3438C151.641 17.5677 152.161 17.8307 152.891 18.1328C153.74 17.8047 154.349 17.4427 154.719 17.0469C155.089 16.651 155.273 16.1745 155.273 15.6172C155.273 14.9922 155.052 14.4974 154.609 14.1328C154.172 13.7682 153.573 13.5859 152.812 13.5859ZM165.664 18.7578C165.664 20.763 165.357 22.2474 164.742 23.2109C164.133 24.1745 163.208 24.6562 161.969 24.6562C160.776 24.6562 159.87 24.1615 159.25 23.1719C158.63 22.1771 158.32 20.7057 158.32 18.7578C158.32 16.7682 158.62 15.2943 159.219 14.3359C159.823 13.3776 160.74 12.8984 161.969 12.8984C163.172 12.8984 164.089 13.3958 164.719 14.3906C165.349 15.3802 165.664 16.8359 165.664 18.7578ZM159.164 18.7578C159.164 20.5286 159.396 21.8385 159.859 22.6875C160.323 23.5312 161.026 23.9531 161.969 23.9531C162.953 23.9531 163.669 23.5156 164.117 22.6406C164.57 21.7656 164.797 20.4714 164.797 18.7578C164.797 17.0703 164.57 15.7891 164.117 14.9141C163.669 14.0391 162.953 13.6016 161.969 13.6016C160.984 13.6016 160.271 14.0391 159.828 14.9141C159.385 15.7891 159.164 17.0703 159.164 18.7578ZM167.828 23.8906C167.828 23.3802 168.036 23.125 168.453 23.125C168.88 23.125 169.094 23.3802 169.094 23.8906C169.094 24.401 168.88 24.6562 168.453 24.6562C168.036 24.6562 167.828 24.401 167.828 23.8906ZM178.617 18.7578C178.617 20.763 178.31 22.2474 177.695 23.2109C177.086 24.1745 176.161 24.6562 174.922 24.6562C173.729 24.6562 172.823 24.1615 172.203 23.1719C171.583 22.1771 171.273 20.7057 171.273 18.7578C171.273 16.7682 171.573 15.2943 172.172 14.3359C172.776 13.3776 173.693 12.8984 174.922 12.8984C176.125 12.8984 177.042 13.3958 177.672 14.3906C178.302 15.3802 178.617 16.8359 178.617 18.7578ZM172.117 18.7578C172.117 20.5286 172.349 21.8385 172.812 22.6875C173.276 23.5312 173.979 23.9531 174.922 23.9531C175.906 23.9531 176.622 23.5156 177.07 22.6406C177.523 21.7656 177.75 20.4714 177.75 18.7578C177.75 17.0703 177.523 15.7891 177.07 14.9141C176.622 14.0391 175.906 13.6016 174.922 13.6016C173.938 13.6016 173.224 14.0391 172.781 14.9141C172.339 15.7891 172.117 17.0703 172.117 18.7578ZM187.758 18.7578C187.758 20.763 187.451 22.2474 186.836 23.2109C186.227 24.1745 185.302 24.6562 184.062 24.6562C182.87 24.6562 181.964 24.1615 181.344 23.1719C180.724 22.1771 180.414 20.7057 180.414 18.7578C180.414 16.7682 180.714 15.2943 181.312 14.3359C181.917 13.3776 182.833 12.8984 184.062 12.8984C185.266 12.8984 186.182 13.3958 186.812 14.3906C187.443 15.3802 187.758 16.8359 187.758 18.7578ZM181.258 18.7578C181.258 20.5286 181.49 21.8385 181.953 22.6875C182.417 23.5312 183.12 23.9531 184.062 23.9531C185.047 23.9531 185.763 23.5156 186.211 22.6406C186.664 21.7656 186.891 20.4714 186.891 18.7578C186.891 17.0703 186.664 15.7891 186.211 14.9141C185.763 14.0391 185.047 13.6016 184.062 13.6016C183.078 13.6016 182.365 14.0391 181.922 14.9141C181.479 15.7891 181.258 17.0703 181.258 18.7578Z" fill="#807E7E"/>
</g>
<defs>
<clipPath id="clip0_878_100489">
<rect width="189" height="37" fill="white"/>
</clipPath>
</defs>
</svg>
