<svg width="181" height="24" viewBox="0 0 181 24" fill="none" xmlns="http://www.w3.org/2000/svg">
<g clip-path="url(#clip0_878_100492)">
<path fill-rule="evenodd" clip-rule="evenodd" d="M13.0804 20.4167C12.8518 20.4167 12.6487 20.3406 12.471 20.239L8.86551 17.8777C8.81473 17.8523 8.78934 17.8523 8.73856 17.8777L5.13309 20.239C4.92996 20.3406 4.72684 20.4167 4.49832 20.4167C4.14285 20.4167 3.81278 20.2644 3.60965 19.9851C3.38113 19.7058 3.30496 19.3503 3.40653 19.0203L4.42215 14.5769C4.42215 14.5261 4.42215 14.4753 4.37137 14.45L1.0452 11.4539C0.715119 11.1492 0.588166 10.6667 0.715119 10.2351C0.867463 9.80347 1.24832 9.49878 1.70535 9.47339L5.99637 9.14331C6.04715 9.14331 6.07254 9.11792 6.09793 9.06714L7.69754 4.90308C7.90067 4.44604 8.30692 4.16675 8.78934 4.16675C9.27176 4.16675 9.67801 4.44604 9.85574 4.90308L11.4554 9.06714C11.4807 9.11792 11.5061 9.14331 11.5569 9.14331L15.8479 9.47339C16.305 9.49878 16.6858 9.80347 16.8382 10.2351C16.9905 10.6667 16.8636 11.1492 16.5081 11.4539L13.1819 14.45C13.1565 14.4753 13.1311 14.5261 13.1311 14.5769L14.1722 19.0203C14.2483 19.3503 14.1722 19.7058 13.969 19.9851C13.7659 20.2644 13.4104 20.4167 13.0804 20.4167ZM40.471 20.239C40.6487 20.3406 40.8518 20.4167 41.0804 20.4167C41.4104 20.4167 41.7659 20.2644 41.969 19.9851C42.1721 19.7058 42.2483 19.3503 42.1722 19.0203L41.1311 14.5769C41.1311 14.5261 41.1565 14.4753 41.1819 14.45L44.5081 11.4539C44.8636 11.1492 44.9905 10.6667 44.8382 10.2351C44.6858 9.80347 44.305 9.49878 43.8479 9.47339L39.5569 9.14331C39.5061 9.14331 39.4807 9.11792 39.4554 9.06714L37.8557 4.90308C37.678 4.44604 37.2718 4.16675 36.7893 4.16675C36.3069 4.16675 35.9007 4.44604 35.6975 4.90308L34.0979 9.06714C34.0725 9.11792 34.0471 9.14331 33.9964 9.14331L29.7054 9.47339C29.2483 9.49878 28.8675 9.80347 28.7151 10.2351C28.5882 10.6667 28.7151 11.1492 29.0452 11.4539L32.3714 14.45C32.4222 14.4753 32.4222 14.5261 32.4222 14.5769L31.4065 19.0203C31.305 19.3503 31.3811 19.7058 31.6097 19.9851C31.8128 20.2644 32.1429 20.4167 32.4983 20.4167C32.7268 20.4167 32.93 20.3406 33.1331 20.239L36.7386 17.8777C36.7893 17.8523 36.8147 17.8523 36.8655 17.8777L40.471 20.239ZM69.0804 20.4167C68.8518 20.4167 68.6487 20.3406 68.471 20.239L64.8655 17.8777C64.8147 17.8523 64.7893 17.8523 64.7386 17.8777L61.1331 20.239C60.93 20.3406 60.7268 20.4167 60.4983 20.4167C60.1429 20.4167 59.8128 20.2644 59.6096 19.9851C59.3811 19.7058 59.305 19.3503 59.4065 19.0203L60.4221 14.5769C60.4221 14.5261 60.4221 14.4753 60.3714 14.45L57.0452 11.4539C56.7151 11.1492 56.5882 10.6667 56.7151 10.2351C56.8675 9.80347 57.2483 9.49878 57.7054 9.47339L61.9964 9.14331C62.0471 9.14331 62.0725 9.11792 62.0979 9.06714L63.6975 4.90308C63.9007 4.44604 64.3069 4.16675 64.7893 4.16675C65.2718 4.16675 65.678 4.44604 65.8557 4.90308L67.4554 9.06714C67.4807 9.11792 67.5061 9.14331 67.5569 9.14331L71.8479 9.47339C72.305 9.49878 72.6858 9.80347 72.8382 10.2351C72.9905 10.6667 72.8636 11.1492 72.5081 11.4539L69.1819 14.45C69.1565 14.4753 69.1311 14.5261 69.1311 14.5769L70.1721 19.0203C70.2483 19.3503 70.1721 19.7058 69.969 19.9851C69.7659 20.2644 69.4104 20.4167 69.0804 20.4167ZM96.471 20.239C96.6487 20.3406 96.8518 20.4167 97.0804 20.4167C97.4104 20.4167 97.7659 20.2644 97.969 19.9851C98.1721 19.7058 98.2483 19.3503 98.1722 19.0203L97.1311 14.5769C97.1311 14.5261 97.1565 14.4753 97.1819 14.45L100.508 11.4539C100.864 11.1492 100.991 10.6667 100.838 10.2351C100.686 9.80347 100.305 9.49878 99.8479 9.47339L95.5569 9.14331C95.5061 9.14331 95.4807 9.11792 95.4554 9.06714L93.8557 4.90308C93.678 4.44604 93.2718 4.16675 92.7893 4.16675C92.3069 4.16675 91.9007 4.44604 91.6975 4.90308L90.0979 9.06714C90.0725 9.11792 90.0471 9.14331 89.9964 9.14331L85.7054 9.47339C85.2483 9.49878 84.8675 9.80347 84.7151 10.2351C84.5882 10.6667 84.7151 11.1492 85.0452 11.4539L88.3714 14.45C88.4221 14.4753 88.4221 14.5261 88.4221 14.5769L87.4065 19.0203C87.305 19.3503 87.3811 19.7058 87.6096 19.9851C87.8128 20.2644 88.1429 20.4167 88.4983 20.4167C88.7268 20.4167 88.93 20.3406 89.1331 20.239L92.7386 17.8777C92.7893 17.8523 92.8147 17.8523 92.8655 17.8777L96.471 20.239ZM124.471 20.239C124.649 20.3406 124.852 20.4167 125.08 20.4167C125.41 20.4167 125.766 20.2644 125.969 19.9851C126.172 19.7058 126.248 19.3503 126.172 19.0203L125.131 14.5769C125.131 14.5261 125.157 14.4753 125.182 14.45L128.508 11.4539C128.864 11.1492 128.991 10.6667 128.838 10.2351C128.686 9.80347 128.305 9.49878 127.848 9.47339L123.557 9.14331C123.506 9.14331 123.481 9.11792 123.455 9.06714L121.856 4.90308C121.678 4.44604 121.272 4.16675 120.789 4.16675C120.307 4.16675 119.901 4.44604 119.698 4.90308L118.098 9.06714C118.073 9.11792 118.047 9.14331 117.996 9.14331L113.705 9.47339C113.248 9.49878 112.867 9.80347 112.715 10.2351C112.588 10.6667 112.715 11.1492 113.045 11.4539L116.371 14.45C116.422 14.4753 116.422 14.5261 116.422 14.5769L115.407 19.0203C115.305 19.3503 115.381 19.7058 115.61 19.9851C115.813 20.2644 116.143 20.4167 116.498 20.4167C116.727 20.4167 116.93 20.3406 117.133 20.239L120.739 17.8777C120.789 17.8523 120.815 17.8523 120.866 17.8777L124.471 20.239Z" fill="#FD7E14"/>
<path d="M137.561 13.165C137.561 11.9574 137.736 10.8271 138.087 9.77441C138.442 8.72168 138.953 7.79883 139.618 7.00586H140.726C140.069 7.88542 139.575 8.85156 139.242 9.9043C138.914 10.957 138.75 12.0394 138.75 13.1514C138.75 14.2451 138.919 15.3138 139.256 16.3574C139.593 17.401 140.078 18.3535 140.712 19.2148H139.618C138.948 18.4401 138.438 17.5355 138.087 16.501C137.736 15.4665 137.561 14.3545 137.561 13.165ZM146.03 17H144.923V9.87695C144.923 9.28451 144.941 8.72396 144.978 8.19531C144.882 8.29102 144.775 8.39128 144.656 8.49609C144.538 8.60091 143.995 9.04525 143.029 9.8291L142.428 9.0498L145.073 7.00586H146.03V17ZM151.547 15.373L151.649 15.5303C151.531 15.986 151.36 16.5146 151.137 17.1162C150.913 17.7223 150.681 18.2852 150.439 18.8047H149.585C149.708 18.3307 149.842 17.7451 149.988 17.0479C150.139 16.3506 150.243 15.7923 150.303 15.373H151.547ZM160.311 14.7031H158.827V17H157.74V14.7031H152.88V13.7119L157.624 6.95117H158.827V13.6709H160.311V14.7031ZM157.74 13.6709V10.3486C157.74 9.69694 157.763 8.96094 157.809 8.14062H157.754C157.535 8.57812 157.33 8.94043 157.139 9.22754L154.015 13.6709H157.74ZM164.405 10.8955C165.458 10.8955 166.285 11.1576 166.887 11.6816C167.493 12.2012 167.796 12.9144 167.796 13.8213C167.796 14.8558 167.465 15.667 166.805 16.2549C166.148 16.8428 165.242 17.1367 164.084 17.1367C162.958 17.1367 162.099 16.9567 161.507 16.5967V15.5029C161.826 15.708 162.222 15.8698 162.696 15.9883C163.17 16.1022 163.637 16.1592 164.098 16.1592C164.9 16.1592 165.522 15.9701 165.964 15.5918C166.41 15.2135 166.634 14.6667 166.634 13.9512C166.634 12.5566 165.779 11.8594 164.07 11.8594C163.637 11.8594 163.059 11.9255 162.334 12.0576L161.746 11.6816L162.122 7.00586H167.092V8.05176H163.093L162.84 11.0527C163.364 10.9479 163.886 10.8955 164.405 10.8955ZM175.486 9.35742C175.486 9.99544 175.306 10.5173 174.946 10.9229C174.591 11.3285 174.085 11.5996 173.429 11.7363V11.791C174.231 11.8913 174.826 12.1465 175.213 12.5566C175.6 12.9668 175.794 13.5046 175.794 14.1699C175.794 15.1224 175.464 15.8561 174.803 16.3711C174.142 16.8815 173.203 17.1367 171.986 17.1367C171.458 17.1367 170.972 17.0957 170.53 17.0137C170.093 16.9362 169.667 16.7972 169.252 16.5967V15.5166C169.685 15.7308 170.145 15.8949 170.633 16.0088C171.125 16.1182 171.59 16.1729 172.027 16.1729C173.755 16.1729 174.618 15.4961 174.618 14.1426C174.618 12.9303 173.666 12.3242 171.761 12.3242H170.776V11.3467H171.774C172.554 11.3467 173.171 11.1758 173.627 10.834C174.083 10.4876 174.311 10.0091 174.311 9.39844C174.311 8.91081 174.142 8.52799 173.805 8.25C173.472 7.97201 173.019 7.83301 172.444 7.83301C172.007 7.83301 171.594 7.89225 171.207 8.01074C170.82 8.12923 170.378 8.34798 169.881 8.66699L169.307 7.90137C169.717 7.5778 170.188 7.32487 170.722 7.14258C171.259 6.95573 171.825 6.8623 172.417 6.8623C173.388 6.8623 174.142 7.08561 174.68 7.53223C175.217 7.97428 175.486 8.58268 175.486 9.35742ZM180.203 13.165C180.203 14.3636 180.025 15.4801 179.67 16.5146C179.319 17.5492 178.811 18.4492 178.146 19.2148H177.052C177.685 18.3581 178.171 17.4079 178.508 16.3643C178.845 15.3161 179.014 14.2451 179.014 13.1514C179.014 12.0394 178.847 10.957 178.515 9.9043C178.187 8.85156 177.694 7.88542 177.038 7.00586H178.146C178.815 7.80339 179.326 8.73079 179.677 9.78809C180.028 10.8408 180.203 11.9665 180.203 13.165Z" fill="#212121"/>
</g>
<defs>
<clipPath id="clip0_878_100492">
<rect width="181" height="24" fill="white"/>
</clipPath>
</defs>
</svg>
