<svg width="92" height="12" viewBox="0 0 92 12" fill="none" xmlns="http://www.w3.org/2000/svg">
<path fill-rule="evenodd" clip-rule="evenodd" d="M9.23317 11.9408C9.07187 11.9408 8.92848 11.887 8.80302 11.8153L6.25799 10.1485C6.22214 10.1306 6.20422 10.1306 6.16837 10.1485L3.62334 11.8153C3.47995 11.887 3.33657 11.9408 3.17527 11.9408C2.92435 11.9408 2.69135 11.8333 2.54797 11.6361C2.38666 11.439 2.33289 11.188 2.40459 10.955L3.1215 7.81856C3.1215 7.78272 3.1215 7.74687 3.08565 7.72895L0.737765 5.61406C0.504768 5.39898 0.415155 5.05845 0.504769 4.75376C0.612305 4.44908 0.881147 4.234 1.20376 4.21608L4.23271 3.98308C4.26856 3.98308 4.28648 3.96516 4.3044 3.92931L5.43354 0.989976C5.57692 0.667366 5.86368 0.470215 6.20422 0.470215C6.54475 0.470215 6.83152 0.667366 6.95698 0.989976L8.08611 3.92931C8.10403 3.96516 8.12196 3.98308 8.1578 3.98308L11.1868 4.21608C11.5094 4.234 11.7782 4.44908 11.8857 4.75376C11.9933 5.05845 11.9037 5.39898 11.6527 5.61406L9.30486 7.72895C9.28694 7.74687 9.26902 7.78272 9.26902 7.81856L10.0039 10.955C10.0576 11.188 10.0039 11.439 9.86047 11.6361C9.71709 11.8333 9.46617 11.9408 9.23317 11.9408ZM28.5677 11.8153C28.6932 11.887 28.8366 11.9408 28.9979 11.9408C29.2309 11.9408 29.4818 11.8333 29.6252 11.6361C29.7686 11.439 29.8223 11.188 29.7686 10.955L29.0337 7.81856C29.0337 7.78272 29.0516 7.74687 29.0696 7.72895L31.4175 5.61406C31.6684 5.39898 31.758 5.05845 31.6505 4.75376C31.5429 4.44908 31.2741 4.234 30.9515 4.21608L27.9225 3.98308C27.8867 3.98308 27.8687 3.96516 27.8508 3.92931L26.7217 0.989976C26.5962 0.667366 26.3095 0.470215 25.9689 0.470215C25.6284 0.470215 25.3416 0.667366 25.1982 0.989976L24.0691 3.92931C24.0512 3.96516 24.0333 3.98308 23.9974 3.98308L20.9685 4.21608C20.6459 4.234 20.377 4.44908 20.2695 4.75376C20.1799 5.05845 20.2695 5.39898 20.5025 5.61406L22.8504 7.72895C22.8862 7.74687 22.8862 7.78272 22.8862 7.81856L22.1693 10.955C22.0976 11.188 22.1514 11.439 22.3127 11.6361C22.4561 11.8333 22.6891 11.9408 22.94 11.9408C23.1013 11.9408 23.2447 11.887 23.388 11.8153L25.9331 10.1485C25.9689 10.1306 25.9868 10.1306 26.0227 10.1485L28.5677 11.8153ZM48.7626 11.9408C48.6013 11.9408 48.4579 11.887 48.3324 11.8153L45.7874 10.1485C45.7516 10.1306 45.7336 10.1306 45.6978 10.1485L43.1527 11.8153C43.0094 11.887 42.866 11.9408 42.7047 11.9408C42.4538 11.9408 42.2208 11.8333 42.0774 11.6361C41.9161 11.439 41.8623 11.188 41.934 10.955L42.6509 7.81856C42.6509 7.78272 42.6509 7.74687 42.6151 7.72895L40.2672 5.61406C40.0342 5.39898 39.9446 5.05845 40.0342 4.75376C40.1417 4.44908 40.4106 4.234 40.7332 4.21608L43.7621 3.98308C43.798 3.98308 43.8159 3.96516 43.8338 3.92931L44.9629 0.989976C45.1063 0.667366 45.3931 0.470215 45.7336 0.470215C46.0742 0.470215 46.3609 0.667366 46.4864 0.989976L47.6155 3.92931C47.6334 3.96516 47.6514 3.98308 47.6872 3.98308L50.7162 4.21608C51.0388 4.234 51.3076 4.44908 51.4152 4.75376C51.5227 5.05845 51.4331 5.39898 51.1822 5.61406L48.8343 7.72895C48.8163 7.74687 48.7984 7.78272 48.7984 7.81856L49.5333 10.955C49.587 11.188 49.5333 11.439 49.3899 11.6361C49.2465 11.8333 48.9956 11.9408 48.7626 11.9408ZM68.0972 11.8153C68.2226 11.887 68.366 11.9408 68.5273 11.9408C68.7603 11.9408 69.0112 11.8333 69.1546 11.6361C69.298 11.439 69.3518 11.188 69.298 10.955L68.5632 7.81856C68.5632 7.78272 68.5811 7.74687 68.599 7.72895L70.9469 5.61406C71.1978 5.39898 71.2874 5.05845 71.1799 4.75376C71.0723 4.44908 70.8035 4.234 70.4809 4.21608L67.4519 3.98308C67.4161 3.98308 67.3982 3.96516 67.3802 3.92931L66.2511 0.989976C66.1257 0.667366 65.8389 0.470215 65.4984 0.470215C65.1578 0.470215 64.8711 0.667366 64.7277 0.989976L63.5985 3.92931C63.5806 3.96516 63.5627 3.98308 63.5269 3.98308L60.4979 4.21608C60.1753 4.234 59.9064 4.44908 59.7989 4.75376C59.7093 5.05845 59.7989 5.39898 60.0319 5.61406L62.3798 7.72895C62.4156 7.74687 62.4156 7.78272 62.4156 7.81856L61.6987 10.955C61.627 11.188 61.6808 11.439 61.8421 11.6361C61.9855 11.8333 62.2185 11.9408 62.4694 11.9408C62.6307 11.9408 62.7741 11.887 62.9175 11.8153L65.4625 10.1485C65.4984 10.1306 65.5163 10.1306 65.5521 10.1485L68.0972 11.8153ZM87.8619 11.8153C87.9873 11.887 88.1307 11.9408 88.292 11.9408C88.525 11.9408 88.7759 11.8333 88.9193 11.6361C89.0627 11.439 89.1165 11.188 89.0627 10.955L88.3279 7.81856C88.3279 7.78272 88.3458 7.74687 88.3637 7.72895L90.7116 5.61406C90.9625 5.39898 91.0521 5.05845 90.9446 4.75376C90.8371 4.44908 90.5682 4.234 90.2456 4.21608L87.2167 3.98308C87.1808 3.98308 87.1629 3.96516 87.145 3.92931L86.0158 0.989976C85.8904 0.667366 85.6036 0.470215 85.2631 0.470215C84.9225 0.470215 84.6358 0.667366 84.4924 0.989976L83.3633 3.92931C83.3453 3.96516 83.3274 3.98308 83.2916 3.98308L80.2626 4.21608C79.94 4.234 79.6712 4.44908 79.5636 4.75376C79.474 5.05845 79.5636 5.39898 79.7966 5.61406L82.1445 7.72895C82.1803 7.74687 82.1803 7.78272 82.1803 7.81856L81.4634 10.955C81.3917 11.188 81.4455 11.439 81.6068 11.6361C81.7502 11.8333 81.9832 11.9408 82.2341 11.9408C82.3954 11.9408 82.5388 11.887 82.6822 11.8153L85.2272 10.1485C85.2631 10.1306 85.281 10.1306 85.3168 10.1485L87.8619 11.8153Z" fill="#FD7E14"/>
</svg>
