<svg width="329" height="48" viewBox="0 0 329 48" fill="none" xmlns="http://www.w3.org/2000/svg">
<rect width="329" height="48" rx="3" fill="#121212"/>
<path fill-rule="evenodd" clip-rule="evenodd" d="M101.278 14.25C101.571 14.25 101.826 14.4408 101.913 14.7134L101.935 14.8071L102.583 18.6944H115.5C115.874 18.6944 116.169 19.0006 116.167 19.3636L116.16 19.4554L115.271 25.6776L115.24 25.8045C114.767 27.1488 113.496 28.0375 112.117 28.033L111.944 28.0278L105.76 28.0267C104.337 28.1074 103.028 27.2757 102.49 25.9701L102.427 25.8045L102.398 25.6929L101.391 19.6544L101.375 19.6206C101.352 19.5674 101.336 19.5107 101.328 19.4516L101.322 19.3611C101.322 19.3304 101.324 19.3002 101.328 19.2706L100.712 15.5833H99.4999C99.1624 15.5833 98.8835 15.3325 98.8393 15.0071L98.8333 14.9167C98.8333 14.5792 99.0841 14.3002 99.4095 14.2561L99.4999 14.25H101.278ZM114.731 20.0278H102.805L103.701 25.4047L103.742 25.5073C104.055 26.2169 104.755 26.682 105.56 26.6974L105.722 26.6944L111.982 26.6955C112.819 26.743 113.59 26.2642 113.925 25.5073L113.961 25.4127L114.731 20.0278ZM102.389 31.3056C102.389 29.9555 103.483 28.8611 104.833 28.8611C106.183 28.8611 107.278 29.9555 107.278 31.3056C107.278 32.6556 106.183 33.75 104.833 33.75C103.483 33.75 102.389 32.6556 102.389 31.3056ZM105.944 31.3056C105.944 30.6919 105.447 30.1944 104.833 30.1944C104.22 30.1944 103.722 30.6919 103.722 31.3056C103.722 31.9192 104.22 32.4167 104.833 32.4167C105.447 32.4167 105.944 31.9192 105.944 31.3056ZM109.5 31.3056C109.5 29.9555 110.594 28.8611 111.944 28.8611C113.294 28.8611 114.389 29.9555 114.389 31.3056C114.389 32.6556 113.294 33.75 111.944 33.75C110.594 33.75 109.5 32.6556 109.5 31.3056ZM113.055 31.3056C113.055 30.6919 112.558 30.1944 111.944 30.1944C111.331 30.1944 110.833 30.6919 110.833 31.3056C110.833 31.9192 111.331 32.4167 111.944 32.4167C112.558 32.4167 113.055 31.9192 113.055 31.3056Z" fill="white"/>
<path d="M136.959 27.3H131.109L129.993 30H127.005L132.621 17.4H135.501L141.135 30H138.075L136.959 27.3ZM136.041 25.086L134.043 20.262L132.045 25.086H136.041ZM152.02 16.644V30H149.338V28.884C148.642 29.724 147.634 30.144 146.314 30.144C145.402 30.144 144.574 29.94 143.83 29.532C143.098 29.124 142.522 28.542 142.102 27.786C141.682 27.03 141.472 26.154 141.472 25.158C141.472 24.162 141.682 23.286 142.102 22.53C142.522 21.774 143.098 21.192 143.83 20.784C144.574 20.376 145.402 20.172 146.314 20.172C147.55 20.172 148.516 20.562 149.212 21.342V16.644H152.02ZM146.8 27.84C147.508 27.84 148.096 27.6 148.564 27.12C149.032 26.628 149.266 25.974 149.266 25.158C149.266 24.342 149.032 23.694 148.564 23.214C148.096 22.722 147.508 22.476 146.8 22.476C146.08 22.476 145.486 22.722 145.018 23.214C144.55 23.694 144.316 24.342 144.316 25.158C144.316 25.974 144.55 26.628 145.018 27.12C145.486 27.6 146.08 27.84 146.8 27.84ZM164.483 16.644V30H161.801V28.884C161.105 29.724 160.097 30.144 158.777 30.144C157.865 30.144 157.037 29.94 156.293 29.532C155.561 29.124 154.985 28.542 154.565 27.786C154.145 27.03 153.935 26.154 153.935 25.158C153.935 24.162 154.145 23.286 154.565 22.53C154.985 21.774 155.561 21.192 156.293 20.784C157.037 20.376 157.865 20.172 158.777 20.172C160.013 20.172 160.979 20.562 161.675 21.342V16.644H164.483ZM159.263 27.84C159.971 27.84 160.559 27.6 161.027 27.12C161.495 26.628 161.729 25.974 161.729 25.158C161.729 24.342 161.495 23.694 161.027 23.214C160.559 22.722 159.971 22.476 159.263 22.476C158.543 22.476 157.949 22.722 157.481 23.214C157.013 23.694 156.779 24.342 156.779 25.158C156.779 25.974 157.013 26.628 157.481 27.12C157.949 27.6 158.543 27.84 159.263 27.84ZM178.426 29.532C178.15 29.736 177.808 29.892 177.4 30C177.004 30.096 176.584 30.144 176.14 30.144C174.988 30.144 174.094 29.85 173.458 29.262C172.834 28.674 172.522 27.81 172.522 26.67V22.692H171.028V20.532H172.522V18.174H175.33V20.532H177.742V22.692H175.33V26.634C175.33 27.042 175.432 27.36 175.636 27.588C175.852 27.804 176.152 27.912 176.536 27.912C176.98 27.912 177.358 27.792 177.67 27.552L178.426 29.532ZM184.311 30.144C183.291 30.144 182.373 29.934 181.557 29.514C180.753 29.082 180.123 28.488 179.667 27.732C179.211 26.976 178.983 26.118 178.983 25.158C178.983 24.198 179.211 23.34 179.667 22.584C180.123 21.828 180.753 21.24 181.557 20.82C182.373 20.388 183.291 20.172 184.311 20.172C185.331 20.172 186.243 20.388 187.047 20.82C187.851 21.24 188.481 21.828 188.937 22.584C189.393 23.34 189.621 24.198 189.621 25.158C189.621 26.118 189.393 26.976 188.937 27.732C188.481 28.488 187.851 29.082 187.047 29.514C186.243 29.934 185.331 30.144 184.311 30.144ZM184.311 27.84C185.031 27.84 185.619 27.6 186.075 27.12C186.543 26.628 186.777 25.974 186.777 25.158C186.777 24.342 186.543 23.694 186.075 23.214C185.619 22.722 185.031 22.476 184.311 22.476C183.591 22.476 182.997 22.722 182.529 23.214C182.061 23.694 181.827 24.342 181.827 25.158C181.827 25.974 182.061 26.628 182.529 27.12C182.997 27.6 183.591 27.84 184.311 27.84ZM201.276 30.144C200.244 30.144 199.314 29.934 198.486 29.514C197.67 29.082 197.028 28.488 196.56 27.732C196.104 26.976 195.876 26.118 195.876 25.158C195.876 24.198 196.104 23.34 196.56 22.584C197.028 21.828 197.67 21.24 198.486 20.82C199.314 20.388 200.244 20.172 201.276 20.172C202.296 20.172 203.184 20.388 203.94 20.82C204.708 21.24 205.266 21.846 205.614 22.638L203.436 23.808C202.932 22.92 202.206 22.476 201.258 22.476C200.526 22.476 199.92 22.716 199.44 23.196C198.96 23.676 198.72 24.33 198.72 25.158C198.72 25.986 198.96 26.64 199.44 27.12C199.92 27.6 200.526 27.84 201.258 27.84C202.218 27.84 202.944 27.396 203.436 26.508L205.614 27.696C205.266 28.464 204.708 29.064 203.94 29.496C203.184 29.928 202.296 30.144 201.276 30.144ZM211.136 20.172C212.636 20.172 213.788 20.532 214.592 21.252C215.396 21.96 215.798 23.034 215.798 24.474V30H213.17V28.794C212.642 29.694 211.658 30.144 210.218 30.144C209.474 30.144 208.826 30.018 208.274 29.766C207.734 29.514 207.32 29.166 207.032 28.722C206.744 28.278 206.6 27.774 206.6 27.21C206.6 26.31 206.936 25.602 207.608 25.086C208.292 24.57 209.342 24.312 210.758 24.312H212.99C212.99 23.7 212.804 23.232 212.432 22.908C212.06 22.572 211.502 22.404 210.758 22.404C210.242 22.404 209.732 22.488 209.228 22.656C208.736 22.812 208.316 23.028 207.968 23.304L206.96 21.342C207.488 20.97 208.118 20.682 208.85 20.478C209.594 20.274 210.356 20.172 211.136 20.172ZM210.92 28.254C211.4 28.254 211.826 28.146 212.198 27.93C212.57 27.702 212.834 27.372 212.99 26.94V25.95H211.064C209.912 25.95 209.336 26.328 209.336 27.084C209.336 27.444 209.474 27.732 209.75 27.948C210.038 28.152 210.428 28.254 210.92 28.254ZM221.022 21.594C221.358 21.126 221.808 20.772 222.372 20.532C222.948 20.292 223.608 20.172 224.352 20.172V22.764C224.04 22.74 223.83 22.728 223.722 22.728C222.918 22.728 222.288 22.956 221.832 23.412C221.376 23.856 221.148 24.528 221.148 25.428V30H218.34V20.316H221.022V21.594ZM232.601 29.532C232.325 29.736 231.983 29.892 231.575 30C231.179 30.096 230.759 30.144 230.315 30.144C229.163 30.144 228.269 29.85 227.633 29.262C227.009 28.674 226.697 27.81 226.697 26.67V22.692H225.203V20.532H226.697V18.174H229.505V20.532H231.917V22.692H229.505V26.634C229.505 27.042 229.607 27.36 229.811 27.588C230.027 27.804 230.327 27.912 230.711 27.912C231.155 27.912 231.533 27.792 231.845 27.552L232.601 29.532Z" fill="white"/>
</svg>
