<svg width="212" height="22" viewBox="0 0 212 22" fill="none" xmlns="http://www.w3.org/2000/svg">
<path d="M7.68164 15.5H6.68555V11.4688H2.17383V15.5H1.17773V6.93359H2.17383V10.5781H6.68555V6.93359H7.68164V15.5ZM15.4336 12.2832C15.4336 13.3301 15.1699 14.1484 14.6426 14.7383C14.1152 15.3242 13.3867 15.6172 12.457 15.6172C11.8828 15.6172 11.373 15.4824 10.9277 15.2129C10.4824 14.9434 10.1387 14.5566 9.89648 14.0527C9.6543 13.5488 9.5332 12.959 9.5332 12.2832C9.5332 11.2363 9.79492 10.4219 10.3184 9.83984C10.8418 9.25391 11.5684 8.96094 12.498 8.96094C13.3965 8.96094 14.1094 9.25977 14.6367 9.85742C15.168 10.4551 15.4336 11.2637 15.4336 12.2832ZM10.541 12.2832C10.541 13.1035 10.7051 13.7285 11.0332 14.1582C11.3613 14.5879 11.8438 14.8027 12.4805 14.8027C13.1172 14.8027 13.5996 14.5898 13.9277 14.1641C14.2598 13.7344 14.4258 13.1074 14.4258 12.2832C14.4258 11.4668 14.2598 10.8477 13.9277 10.4258C13.5996 10 13.1133 9.78711 12.4688 9.78711C11.832 9.78711 11.3516 9.99609 11.0273 10.4141C10.7031 10.832 10.541 11.4551 10.541 12.2832ZM25.3301 15.5V11.3223C25.3301 10.8105 25.2207 10.4277 25.002 10.1738C24.7832 9.91602 24.4434 9.78711 23.9824 9.78711C23.377 9.78711 22.9297 9.96094 22.6406 10.3086C22.3516 10.6562 22.207 11.1914 22.207 11.9141V15.5H21.2344V11.3223C21.2344 10.8105 21.125 10.4277 20.9062 10.1738C20.6875 9.91602 20.3457 9.78711 19.8809 9.78711C19.2715 9.78711 18.8242 9.9707 18.5391 10.3379C18.2578 10.7012 18.1172 11.2988 18.1172 12.1309V15.5H17.1445V9.07812H17.9355L18.0938 9.95703H18.1406C18.3242 9.64453 18.582 9.40039 18.9141 9.22461C19.25 9.04883 19.625 8.96094 20.0391 8.96094C21.043 8.96094 21.6992 9.32422 22.0078 10.0508H22.0547C22.2461 9.71484 22.5234 9.44922 22.8867 9.25391C23.25 9.05859 23.6641 8.96094 24.1289 8.96094C24.8555 8.96094 25.3984 9.14844 25.7578 9.52344C26.1211 9.89453 26.3027 10.4902 26.3027 11.3105V15.5H25.3301ZM31.0254 15.6172C30.0762 15.6172 29.3262 15.3281 28.7754 14.75C28.2285 14.1719 27.9551 13.3691 27.9551 12.3418C27.9551 11.3066 28.209 10.4844 28.7168 9.875C29.2285 9.26562 29.9141 8.96094 30.7734 8.96094C31.5781 8.96094 32.2148 9.22656 32.6836 9.75781C33.1523 10.2852 33.3867 10.9824 33.3867 11.8496V12.4648H28.9629C28.9824 13.2188 29.1719 13.791 29.5312 14.1816C29.8945 14.5723 30.4043 14.7676 31.0605 14.7676C31.752 14.7676 32.4355 14.623 33.1113 14.334V15.2012C32.7676 15.3496 32.4414 15.4551 32.1328 15.5176C31.8281 15.584 31.459 15.6172 31.0254 15.6172ZM30.7617 9.77539C30.2461 9.77539 29.834 9.94336 29.5254 10.2793C29.2207 10.6152 29.041 11.0801 28.9863 11.6738H32.3438C32.3438 11.0605 32.207 10.5918 31.9336 10.2676C31.6602 9.93945 31.2695 9.77539 30.7617 9.77539Z" fill="#212121"/>
<path fill-rule="evenodd" clip-rule="evenodd" d="M37.9316 15.6318L41.4883 6.36816H40.5625L37 15.6318H37.9316Z" fill="#3F3B3B"/>
<path d="M54.334 7.70117C53.3926 7.70117 52.6484 8.01562 52.1016 8.64453C51.5586 9.26953 51.2871 10.127 51.2871 11.2168C51.2871 12.3379 51.5488 13.2051 52.0723 13.8184C52.5996 14.4277 53.3496 14.7324 54.3223 14.7324C54.9199 14.7324 55.6016 14.625 56.3672 14.4102V15.2832C55.7734 15.5059 55.041 15.6172 54.1699 15.6172C52.9082 15.6172 51.9336 15.2344 51.2461 14.4688C50.5625 13.7031 50.2207 12.6152 50.2207 11.2051C50.2207 10.3223 50.3848 9.54883 50.7129 8.88477C51.0449 8.2207 51.5215 7.70898 52.1426 7.34961C52.7676 6.99023 53.502 6.81055 54.3457 6.81055C55.2441 6.81055 56.0293 6.97461 56.7012 7.30273L56.2793 8.1582C55.6309 7.85352 54.9824 7.70117 54.334 7.70117ZM63.6328 12.2832C63.6328 13.3301 63.3691 14.1484 62.8418 14.7383C62.3145 15.3242 61.5859 15.6172 60.6562 15.6172C60.082 15.6172 59.5723 15.4824 59.127 15.2129C58.6816 14.9434 58.3379 14.5566 58.0957 14.0527C57.8535 13.5488 57.7324 12.959 57.7324 12.2832C57.7324 11.2363 57.9941 10.4219 58.5176 9.83984C59.041 9.25391 59.7676 8.96094 60.6973 8.96094C61.5957 8.96094 62.3086 9.25977 62.8359 9.85742C63.3672 10.4551 63.6328 11.2637 63.6328 12.2832ZM58.7402 12.2832C58.7402 13.1035 58.9043 13.7285 59.2324 14.1582C59.5605 14.5879 60.043 14.8027 60.6797 14.8027C61.3164 14.8027 61.7988 14.5898 62.127 14.1641C62.459 13.7344 62.625 13.1074 62.625 12.2832C62.625 11.4668 62.459 10.8477 62.127 10.4258C61.7988 10 61.3125 9.78711 60.668 9.78711C60.0312 9.78711 59.5508 9.99609 59.2266 10.4141C58.9023 10.832 58.7402 11.4551 58.7402 12.2832ZM66.3164 15.5H65.3438V6.38281H66.3164V15.5ZM69.3516 15.5H68.3789V6.38281H69.3516V15.5ZM74.127 15.6172C73.1777 15.6172 72.4277 15.3281 71.877 14.75C71.3301 14.1719 71.0566 13.3691 71.0566 12.3418C71.0566 11.3066 71.3105 10.4844 71.8184 9.875C72.3301 9.26562 73.0156 8.96094 73.875 8.96094C74.6797 8.96094 75.3164 9.22656 75.7852 9.75781C76.2539 10.2852 76.4883 10.9824 76.4883 11.8496V12.4648H72.0645C72.084 13.2188 72.2734 13.791 72.6328 14.1816C72.9961 14.5723 73.5059 14.7676 74.1621 14.7676C74.8535 14.7676 75.5371 14.623 76.2129 14.334V15.2012C75.8691 15.3496 75.543 15.4551 75.2344 15.5176C74.9297 15.584 74.5605 15.6172 74.127 15.6172ZM73.8633 9.77539C73.3477 9.77539 72.9355 9.94336 72.627 10.2793C72.3223 10.6152 72.1426 11.0801 72.0879 11.6738H75.4453C75.4453 11.0605 75.3086 10.5918 75.0352 10.2676C74.7617 9.93945 74.3711 9.77539 73.8633 9.77539ZM80.7188 15.6172C79.7891 15.6172 79.0684 15.332 78.5566 14.7617C78.0488 14.1875 77.7949 13.377 77.7949 12.3301C77.7949 11.2559 78.0527 10.4258 78.5684 9.83984C79.0879 9.25391 79.8262 8.96094 80.7832 8.96094C81.0918 8.96094 81.4004 8.99414 81.709 9.06055C82.0176 9.12695 82.2598 9.20508 82.4355 9.29492L82.1367 10.1211C81.9219 10.0352 81.6875 9.96484 81.4336 9.91016C81.1797 9.85156 80.9551 9.82227 80.7598 9.82227C79.4551 9.82227 78.8027 10.6543 78.8027 12.3184C78.8027 13.1074 78.9609 13.7129 79.2773 14.1348C79.5977 14.5566 80.0703 14.7676 80.6953 14.7676C81.2305 14.7676 81.7793 14.6523 82.3418 14.4219V15.2832C81.9121 15.5059 81.3711 15.6172 80.7188 15.6172ZM85.9453 14.8145C86.1172 14.8145 86.2832 14.8027 86.4434 14.7793C86.6035 14.752 86.7305 14.7246 86.8242 14.6973V15.4414C86.7188 15.4922 86.5625 15.5332 86.3555 15.5645C86.1523 15.5996 85.9688 15.6172 85.8047 15.6172C84.5625 15.6172 83.9414 14.9629 83.9414 13.6543V9.83398H83.0215V9.36523L83.9414 8.96094L84.3516 7.58984H84.9141V9.07812H86.7773V9.83398H84.9141V13.6133C84.9141 14 85.0059 14.2969 85.1895 14.5039C85.373 14.7109 85.625 14.8145 85.9453 14.8145ZM89.0859 15.5H88.1133V9.07812H89.0859V15.5ZM88.0312 7.33789C88.0312 7.11523 88.0859 6.95312 88.1953 6.85156C88.3047 6.74609 88.4414 6.69336 88.6055 6.69336C88.7617 6.69336 88.8965 6.74609 89.0098 6.85156C89.123 6.95703 89.1797 7.11914 89.1797 7.33789C89.1797 7.55664 89.123 7.7207 89.0098 7.83008C88.8965 7.93555 88.7617 7.98828 88.6055 7.98828C88.4414 7.98828 88.3047 7.93555 88.1953 7.83008C88.0859 7.7207 88.0312 7.55664 88.0312 7.33789ZM96.6914 12.2832C96.6914 13.3301 96.4277 14.1484 95.9004 14.7383C95.373 15.3242 94.6445 15.6172 93.7148 15.6172C93.1406 15.6172 92.6309 15.4824 92.1855 15.2129C91.7402 14.9434 91.3965 14.5566 91.1543 14.0527C90.9121 13.5488 90.791 12.959 90.791 12.2832C90.791 11.2363 91.0527 10.4219 91.5762 9.83984C92.0996 9.25391 92.8262 8.96094 93.7559 8.96094C94.6543 8.96094 95.3672 9.25977 95.8945 9.85742C96.4258 10.4551 96.6914 11.2637 96.6914 12.2832ZM91.7988 12.2832C91.7988 13.1035 91.9629 13.7285 92.291 14.1582C92.6191 14.5879 93.1016 14.8027 93.7383 14.8027C94.375 14.8027 94.8574 14.5898 95.1855 14.1641C95.5176 13.7344 95.6836 13.1074 95.6836 12.2832C95.6836 11.4668 95.5176 10.8477 95.1855 10.4258C94.8574 10 94.3711 9.78711 93.7266 9.78711C93.0898 9.78711 92.6094 9.99609 92.2852 10.4141C91.9609 10.832 91.7988 11.4551 91.7988 12.2832ZM102.797 15.5V11.3457C102.797 10.8223 102.678 10.4316 102.439 10.1738C102.201 9.91602 101.828 9.78711 101.32 9.78711C100.648 9.78711 100.156 9.96875 99.8438 10.332C99.5312 10.6953 99.375 11.2949 99.375 12.1309V15.5H98.4023V9.07812H99.1934L99.3516 9.95703H99.3984C99.5977 9.64062 99.877 9.39648 100.236 9.22461C100.596 9.04883 100.996 8.96094 101.438 8.96094C102.211 8.96094 102.793 9.14844 103.184 9.52344C103.574 9.89453 103.77 10.4902 103.77 11.3105V15.5H102.797Z" fill="#212121"/>
<path fill-rule="evenodd" clip-rule="evenodd" d="M108.42 15.6318L111.977 6.36816H111.051L107.488 15.6318H108.42Z" fill="#212121"/>
<path d="M127.342 15H126.17L123.047 10.8457L122.15 11.6426V15H121.154V6.43359H122.15V10.6816L126.035 6.43359H127.213L123.768 10.1543L127.342 15ZM133.922 11.7832C133.922 12.8301 133.658 13.6484 133.131 14.2383C132.604 14.8242 131.875 15.1172 130.945 15.1172C130.371 15.1172 129.861 14.9824 129.416 14.7129C128.971 14.4434 128.627 14.0566 128.385 13.5527C128.143 13.0488 128.021 12.459 128.021 11.7832C128.021 10.7363 128.283 9.92188 128.807 9.33984C129.33 8.75391 130.057 8.46094 130.986 8.46094C131.885 8.46094 132.598 8.75977 133.125 9.35742C133.656 9.95508 133.922 10.7637 133.922 11.7832ZM129.029 11.7832C129.029 12.6035 129.193 13.2285 129.521 13.6582C129.85 14.0879 130.332 14.3027 130.969 14.3027C131.605 14.3027 132.088 14.0898 132.416 13.6641C132.748 13.2344 132.914 12.6074 132.914 11.7832C132.914 10.9668 132.748 10.3477 132.416 9.92578C132.088 9.5 131.602 9.28711 130.957 9.28711C130.32 9.28711 129.84 9.49609 129.516 9.91406C129.191 10.332 129.029 10.9551 129.029 11.7832ZM140.004 14.1387H139.951C139.502 14.791 138.83 15.1172 137.936 15.1172C137.096 15.1172 136.441 14.8301 135.973 14.2559C135.508 13.6816 135.275 12.8652 135.275 11.8066C135.275 10.748 135.51 9.92578 135.979 9.33984C136.447 8.75391 137.1 8.46094 137.936 8.46094C138.807 8.46094 139.475 8.77734 139.939 9.41016H140.016L139.975 8.94727L139.951 8.49609V5.88281H140.924V15H140.133L140.004 14.1387ZM138.059 14.3027C138.723 14.3027 139.203 14.123 139.5 13.7637C139.801 13.4004 139.951 12.8164 139.951 12.0117V11.8066C139.951 10.8965 139.799 10.248 139.494 9.86133C139.193 9.4707 138.711 9.27539 138.047 9.27539C137.477 9.27539 137.039 9.49805 136.734 9.94336C136.434 10.3848 136.283 11.0098 136.283 11.8184C136.283 12.6387 136.434 13.2578 136.734 13.6758C137.035 14.0938 137.477 14.3027 138.059 14.3027ZM146.941 15L146.748 14.0859H146.701C146.381 14.4883 146.061 14.7617 145.74 14.9062C145.424 15.0469 145.027 15.1172 144.551 15.1172C143.914 15.1172 143.414 14.9531 143.051 14.625C142.691 14.2969 142.512 13.8301 142.512 13.2246C142.512 11.9277 143.549 11.248 145.623 11.1855L146.713 11.1504V10.752C146.713 10.248 146.604 9.87695 146.385 9.63867C146.17 9.39648 145.824 9.27539 145.348 9.27539C144.812 9.27539 144.207 9.43945 143.531 9.76758L143.232 9.02344C143.549 8.85156 143.895 8.7168 144.27 8.61914C144.648 8.52148 145.027 8.47266 145.406 8.47266C146.172 8.47266 146.738 8.64258 147.105 8.98242C147.477 9.32227 147.662 9.86719 147.662 10.6172V15H146.941ZM144.744 14.3145C145.35 14.3145 145.824 14.1484 146.168 13.8164C146.516 13.4844 146.689 13.0195 146.689 12.4219V11.8418L145.717 11.8828C144.943 11.9102 144.385 12.0312 144.041 12.2461C143.701 12.457 143.531 12.7871 143.531 13.2363C143.531 13.5879 143.637 13.8555 143.848 14.0391C144.062 14.2227 144.361 14.3145 144.744 14.3145ZM158.045 8.57812V9.19336L156.855 9.33398C156.965 9.4707 157.062 9.65039 157.148 9.87305C157.234 10.0918 157.277 10.3398 157.277 10.6172C157.277 11.2461 157.062 11.748 156.633 12.123C156.203 12.498 155.613 12.6855 154.863 12.6855C154.672 12.6855 154.492 12.6699 154.324 12.6387C153.91 12.8574 153.703 13.1328 153.703 13.4648C153.703 13.6406 153.775 13.7715 153.92 13.8574C154.064 13.9395 154.312 13.9805 154.664 13.9805H155.801C156.496 13.9805 157.029 14.127 157.4 14.4199C157.775 14.7129 157.963 15.1387 157.963 15.6973C157.963 16.4082 157.678 16.9492 157.107 17.3203C156.537 17.6953 155.705 17.8828 154.611 17.8828C153.771 17.8828 153.123 17.7266 152.666 17.4141C152.213 17.1016 151.986 16.6602 151.986 16.0898C151.986 15.6992 152.111 15.3613 152.361 15.0762C152.611 14.791 152.963 14.5977 153.416 14.4961C153.252 14.4219 153.113 14.3066 153 14.1504C152.891 13.9941 152.836 13.8125 152.836 13.6055C152.836 13.3711 152.898 13.166 153.023 12.9902C153.148 12.8145 153.346 12.6445 153.615 12.4805C153.283 12.3438 153.012 12.1113 152.801 11.7832C152.594 11.4551 152.49 11.0801 152.49 10.6582C152.49 9.95508 152.701 9.41406 153.123 9.03516C153.545 8.65234 154.143 8.46094 154.916 8.46094C155.252 8.46094 155.555 8.5 155.824 8.57812H158.045ZM152.924 16.0781C152.924 16.4258 153.07 16.6895 153.363 16.8691C153.656 17.0488 154.076 17.1387 154.623 17.1387C155.439 17.1387 156.043 17.0156 156.434 16.7695C156.828 16.5273 157.025 16.1973 157.025 15.7793C157.025 15.4316 156.918 15.1895 156.703 15.0527C156.488 14.9199 156.084 14.8535 155.49 14.8535H154.324C153.883 14.8535 153.539 14.959 153.293 15.1699C153.047 15.3809 152.924 15.6836 152.924 16.0781ZM153.451 10.6348C153.451 11.084 153.578 11.4238 153.832 11.6543C154.086 11.8848 154.439 12 154.893 12C155.842 12 156.316 11.5391 156.316 10.6172C156.316 9.65234 155.836 9.16992 154.875 9.16992C154.418 9.16992 154.066 9.29297 153.82 9.53906C153.574 9.78516 153.451 10.1504 153.451 10.6348ZM162.293 8.46094C162.578 8.46094 162.834 8.48438 163.061 8.53125L162.926 9.43359C162.66 9.375 162.426 9.3457 162.223 9.3457C161.703 9.3457 161.258 9.55664 160.887 9.97852C160.52 10.4004 160.336 10.9258 160.336 11.5547V15H159.363V8.57812H160.166L160.277 9.76758H160.324C160.562 9.34961 160.85 9.02734 161.186 8.80078C161.521 8.57422 161.891 8.46094 162.293 8.46094ZM168.211 15L168.018 14.0859H167.971C167.65 14.4883 167.33 14.7617 167.01 14.9062C166.693 15.0469 166.297 15.1172 165.82 15.1172C165.184 15.1172 164.684 14.9531 164.32 14.625C163.961 14.2969 163.781 13.8301 163.781 13.2246C163.781 11.9277 164.818 11.248 166.893 11.1855L167.982 11.1504V10.752C167.982 10.248 167.873 9.87695 167.654 9.63867C167.439 9.39648 167.094 9.27539 166.617 9.27539C166.082 9.27539 165.477 9.43945 164.801 9.76758L164.502 9.02344C164.818 8.85156 165.164 8.7168 165.539 8.61914C165.918 8.52148 166.297 8.47266 166.676 8.47266C167.441 8.47266 168.008 8.64258 168.375 8.98242C168.746 9.32227 168.932 9.86719 168.932 10.6172V15H168.211ZM166.014 14.3145C166.619 14.3145 167.094 14.1484 167.438 13.8164C167.785 13.4844 167.959 13.0195 167.959 12.4219V11.8418L166.986 11.8828C166.213 11.9102 165.654 12.0312 165.311 12.2461C164.971 12.457 164.801 12.7871 164.801 13.2363C164.801 13.5879 164.906 13.8555 165.117 14.0391C165.332 14.2227 165.631 14.3145 166.014 14.3145ZM175.336 15V10.8457C175.336 10.3223 175.217 9.93164 174.979 9.67383C174.74 9.41602 174.367 9.28711 173.859 9.28711C173.188 9.28711 172.695 9.46875 172.383 9.83203C172.07 10.1953 171.914 10.7949 171.914 11.6309V15H170.941V8.57812H171.732L171.891 9.45703H171.938C172.137 9.14062 172.416 8.89648 172.775 8.72461C173.135 8.54883 173.535 8.46094 173.977 8.46094C174.75 8.46094 175.332 8.64844 175.723 9.02344C176.113 9.39453 176.309 9.99023 176.309 10.8105V15H175.336ZM182.684 14.1387H182.631C182.182 14.791 181.51 15.1172 180.615 15.1172C179.775 15.1172 179.121 14.8301 178.652 14.2559C178.188 13.6816 177.955 12.8652 177.955 11.8066C177.955 10.748 178.189 9.92578 178.658 9.33984C179.127 8.75391 179.779 8.46094 180.615 8.46094C181.486 8.46094 182.154 8.77734 182.619 9.41016H182.695L182.654 8.94727L182.631 8.49609V5.88281H183.604V15H182.812L182.684 14.1387ZM180.738 14.3027C181.402 14.3027 181.883 14.123 182.18 13.7637C182.48 13.4004 182.631 12.8164 182.631 12.0117V11.8066C182.631 10.8965 182.479 10.248 182.174 9.86133C181.873 9.4707 181.391 9.27539 180.727 9.27539C180.156 9.27539 179.719 9.49805 179.414 9.94336C179.113 10.3848 178.963 11.0098 178.963 11.8184C178.963 12.6387 179.113 13.2578 179.414 13.6758C179.715 14.0938 180.156 14.3027 180.738 14.3027ZM192.932 13.248C192.932 13.8457 192.709 14.3066 192.264 14.6309C191.818 14.9551 191.193 15.1172 190.389 15.1172C189.537 15.1172 188.873 14.9824 188.396 14.7129V13.8105C188.705 13.9668 189.035 14.0898 189.387 14.1797C189.742 14.2695 190.084 14.3145 190.412 14.3145C190.92 14.3145 191.311 14.2344 191.584 14.0742C191.857 13.9102 191.994 13.6621 191.994 13.3301C191.994 13.0801 191.885 12.8672 191.666 12.6914C191.451 12.5117 191.029 12.3008 190.4 12.0586C189.803 11.8359 189.377 11.6426 189.123 11.4785C188.873 11.3105 188.686 11.1211 188.561 10.9102C188.439 10.6992 188.379 10.4473 188.379 10.1543C188.379 9.63086 188.592 9.21875 189.018 8.91797C189.443 8.61328 190.027 8.46094 190.77 8.46094C191.461 8.46094 192.137 8.60156 192.797 8.88281L192.451 9.67383C191.807 9.4082 191.223 9.27539 190.699 9.27539C190.238 9.27539 189.891 9.34766 189.656 9.49219C189.422 9.63672 189.305 9.83594 189.305 10.0898C189.305 10.2617 189.348 10.4082 189.434 10.5293C189.523 10.6504 189.666 10.7656 189.861 10.875C190.057 10.9844 190.432 11.1426 190.986 11.3496C191.748 11.627 192.262 11.9062 192.527 12.1875C192.797 12.4688 192.932 12.8223 192.932 13.248ZM200.062 11.7832C200.062 12.8301 199.799 13.6484 199.271 14.2383C198.744 14.8242 198.016 15.1172 197.086 15.1172C196.512 15.1172 196.002 14.9824 195.557 14.7129C195.111 14.4434 194.768 14.0566 194.525 13.5527C194.283 13.0488 194.162 12.459 194.162 11.7832C194.162 10.7363 194.424 9.92188 194.947 9.33984C195.471 8.75391 196.197 8.46094 197.127 8.46094C198.025 8.46094 198.738 8.75977 199.266 9.35742C199.797 9.95508 200.062 10.7637 200.062 11.7832ZM195.17 11.7832C195.17 12.6035 195.334 13.2285 195.662 13.6582C195.99 14.0879 196.473 14.3027 197.109 14.3027C197.746 14.3027 198.229 14.0898 198.557 13.6641C198.889 13.2344 199.055 12.6074 199.055 11.7832C199.055 10.9668 198.889 10.3477 198.557 9.92578C198.229 9.5 197.742 9.28711 197.098 9.28711C196.461 9.28711 195.98 9.49609 195.656 9.91406C195.332 10.332 195.17 10.9551 195.17 11.7832ZM204.668 9.33398H203.033V15H202.061V9.33398H200.912V8.89453L202.061 8.54297V8.18555C202.061 6.60742 202.75 5.81836 204.129 5.81836C204.469 5.81836 204.867 5.88672 205.324 6.02344L205.072 6.80273C204.697 6.68164 204.377 6.62109 204.111 6.62109C203.744 6.62109 203.473 6.74414 203.297 6.99023C203.121 7.23242 203.033 7.62305 203.033 8.16211V8.57812H204.668V9.33398ZM209.789 15L209.596 14.0859H209.549C209.229 14.4883 208.908 14.7617 208.588 14.9062C208.271 15.0469 207.875 15.1172 207.398 15.1172C206.762 15.1172 206.262 14.9531 205.898 14.625C205.539 14.2969 205.359 13.8301 205.359 13.2246C205.359 11.9277 206.396 11.248 208.471 11.1855L209.561 11.1504V10.752C209.561 10.248 209.451 9.87695 209.232 9.63867C209.018 9.39648 208.672 9.27539 208.195 9.27539C207.66 9.27539 207.055 9.43945 206.379 9.76758L206.08 9.02344C206.396 8.85156 206.742 8.7168 207.117 8.61914C207.496 8.52148 207.875 8.47266 208.254 8.47266C209.02 8.47266 209.586 8.64258 209.953 8.98242C210.324 9.32227 210.51 9.86719 210.51 10.6172V15H209.789ZM207.592 14.3145C208.197 14.3145 208.672 14.1484 209.016 13.8164C209.363 13.4844 209.537 13.0195 209.537 12.4219V11.8418L208.564 11.8828C207.791 11.9102 207.232 12.0312 206.889 12.2461C206.549 12.457 206.379 12.7871 206.379 13.2363C206.379 13.5879 206.484 13.8555 206.695 14.0391C206.91 14.2227 207.209 14.3145 207.592 14.3145Z" fill="#0D6EFD"/>
<rect x="119.977" y="21" width="92" height="1" fill="#0D6EFD"/>
</svg>
